<?xml version="1.0" encoding="UTF-8"?>
<svg width="1264.7" height="1428.8" version="1.1" viewBox="0 0 1264.6875 1428.75" xmlns="http://www.w3.org/2000/svg">
 <path d="m580.31 1428.5c-0.25781-0.2625-9.9609-0.7294-21.562-1.0376-52.293-1.3894-117.49-12.902-160.78-28.39-3.6094-1.2913-11.203-3.9668-16.875-5.9456-5.6719-1.9787-13.898-5.1415-18.281-7.0285s-8.6016-3.6594-9.375-3.9386c-9.5678-3.4547-44.925-20.746-57.656-28.197-22.375-13.095-55.579-34.793-63.281-41.354-2.8359-2.4158-6.3787-5.1687-7.8728-6.1175-4.5031-2.8599-25.652-20.23-31.428-25.813-2.9699-2.8704-10.635-10.282-17.034-16.469-15.826-15.303-32.885-33.627-42.275-45.407-17.521-21.982-16.997-21.283-31.373-41.781-5.6332-8.0318-21.749-33.881-26.109-41.877-2.061-3.7801-5.5982-10.248-7.8605-14.373-9.1033-16.599-18.911-37.265-23.581-49.688-9.2082-24.495-11.982-31.868-13.404-35.625-5.083-13.429-10.488-32.642-15.956-56.719-7.3806-32.497-8.2736-37.261-10.016-53.438-0.47222-4.3828-1.2991-10.922-1.8375-14.531-2.6992-18.095-3.8223-75.756-1.8624-95.625 0.55947-5.6719 1.8326-18.961 2.8293-29.531 0.99664-10.57 2.4462-22.594 3.2211-26.719s2.0541-11.439 2.8424-16.253c1.7155-10.476 8.052-37.268 11.898-50.31 1.5208-5.1562 3.3538-11.484 4.0734-14.062 0.71958-2.5781 2.6147-8.2734 4.2113-12.656 1.5966-4.3828 3.6594-10.5 4.584-13.594 3.5547-11.894 14.615-37.487 25.119-58.125 6.327-12.431 9.1849-17.765 17.578-32.812 5.7768-10.357 10.289-17.897 14.774-24.689 2.7209-4.1202 5.7908-8.7674 6.8221-10.327 6.3291-9.5728 14.164-20.392 19.342-26.71 3.2838-4.0066 7.4472-9.3016 9.2519-11.767 8.1785-11.172 11.787-15.489 23.543-28.168 18.799-20.275 30.763-32.124 45.832-45.391 7.4766-6.5826 16.758-14.81 20.625-18.283 13.262-11.91 53.371-39.892 70.312-49.054 3.3516-1.8125 9.8906-5.3821 14.531-7.9325 13.85-7.6118 53.542-26.585 55.615-26.585 0.51095 0 3.816-1.3055 7.3445-2.9011 6.973-3.1532 10.14-4.2948 35.478-12.788 19.211-6.4398 38.505-11.741 50.156-13.781 4.3828-0.76738 11.977-2.2103 16.875-3.2065 16.805-3.4175 30.48-5.6702 40.312-6.6407 5.4141-0.53437 13.852-1.3883 18.75-1.8976 4.8984-0.5093 16.589-1.2126 25.979-1.5628 19.412-0.72404 19.083-0.5863 24.099-10.096 5.0481-9.5713-5.0878-23.695-21.962-30.601-52.605-21.531-81.924-86.807-64.638-143.91 22.54-74.456 120.24-109.43 185.12-66.264 21.972 14.62 27.907 21.08 48.924 53.247 1.7091 2.6159 3.1042 5.7799 3.1003 7.0312-4e-3 1.2513 1.0188 6.4939 2.2727 11.65 9.158 37.658 4.6644 66.365-15.603 99.677-5.5087 9.0542-23.47 27.257-33.183 33.629-4.0621 2.665-8.1866 5.57-9.1655 6.4557-2.9001 2.6238-20.809 8.8054-25.557 8.8217-25.131 0.0861-22.165 31.596 3.1229 33.168 10.894 0.6773 24.176 2.4656 39.214 5.28 5.1562 0.96497 11.062 2.0243 13.125 2.354s11.977 2.6277 22.031 5.1066l18.281 4.5071 18.75-0.41838c10.312-0.23012 20.016-0.80815 21.562-1.2845 2.7318-0.84128 33.769-0.34133 35.24 0.56765 0.40338 0.24932 3.6082 0.85406 7.1217 1.3439 28.729 4.0052 38.928 6.3756 65.92 15.321 11.602 3.8449 24.591 8.0872 28.865 9.4272s9.3367 3.258 11.25 4.262c6.2905 3.3011 38.09 18.633 41.691 20.101 1.9386 0.79029 5.7355 2.8665 8.4375 4.6139 2.7019 1.7473 6.811 4.257 9.1313 5.577s7.1446 4.9864 10.721 8.1476c3.576 3.1612 8.8494 7.0656 11.719 8.6765 5.17 2.9026 18.409 12.338 20.221 14.411 0.5179 0.59261 3.3856 2.6408 6.3726 4.5516 2.9871 1.9108 8.0812 5.8741 11.32 8.8075 3.2391 2.9333 7.7542 6.5948 10.034 8.1366 9.0314 6.1089 43.55 38.794 68.836 65.181 9.3668 9.7743 22.478 26.311 33.357 42.074 2.276 3.2975 6.1279 8.7819 8.5599 12.188 2.4318 3.4056 5.5498 8.0905 6.9286 10.411s4.9396 8.0156 7.9128 12.656c7.0984 11.079 14.224 23.594 23.965 42.093 4.3717 8.3019 8.362 15.727 8.8673 16.501s3.49 8.3672 6.6326 16.875 7.18 19.266 8.9719 23.906c7.5866 19.647 18.677 58.969 20.889 74.062 3.5393 24.152 4.6939 33.218 4.7082 36.974 0.01 2.3517 0.7016 7.229 1.5393 10.838s1.5045 7.6172 1.4818 8.9062c-0.023 1.2891-0.2716 17.742-0.5532 36.562-0.4299 28.72-0.8199 35.951-2.4269 45-1.0532 5.9297-2.3905 16.471-2.9717 23.425-0.5813 6.9542-1.6558 14.759-2.388 17.344-0.7321 2.5848-1.7073 7.9584-2.1671 11.941-0.7895 6.8384-2.8241 14.501-8.1589 30.727-1.2714 3.8672-3.0926 9.7734-4.0471 13.125s-2.8142 8.625-4.1327 11.719-2.4173 6.6797-2.4418 7.9688c-0.024 1.2891-1.1177 4.875-2.4293 7.9688-3.4261 8.0812-7.8832 20.84-7.8832 22.566 0 4.0169-6.058 19.322-9.016 22.777-1.753 2.048-4.1723 5.8499-5.3764 8.4488s-2.6128 5.2699-3.1304 5.9355c-0.5176 0.6658-1.6684 3.5307-2.5573 6.3666-2.1072 6.7227-7.5231 17.888-11.823 24.375-1.8799 2.8359-4.989 7.8984-6.9091 11.25s-4.6771 8.0274-6.1266 10.391c-1.4495 2.3633-4.319 7.4258-6.3764 11.25-2.0574 3.8241-4.809 8.896-6.1146 11.271-2.6031 4.7351-9.369 14.476-17.953 25.846-3.0464 4.0352-6.6541 8.8132-8.017 10.618-1.3631 1.8047-3.3778 4.7578-4.4774 6.5625s-3.5573 4.7578-5.4615 6.5625c-1.9043 1.8047-6.5984 7.0781-10.432 11.719-3.833 4.6406-11.268 12.684-16.522 17.875-5.2537 5.1905-11.662 11.661-14.24 14.379-8.8505 9.3303-29.984 26.071-35.615 28.212-1.4485 0.5507-3.9417 2.0771-5.5404 3.3919s-8.813 5.7701-16.032 9.9006c-7.2188 4.1306-18.018 10.433-23.997 14.005-5.9797 3.572-12.73 7.1986-15 8.0592-2.2704 0.8605-5.1826 2.2458-6.4717 3.0785-3.0563 1.9743-8.8921 4.3766-13.594 5.596-2.3231 0.6026-6.247 3.1255-10.312 6.6305-31.896 27.5-61.903 49.032-89.062 63.911-13.138 7.1974-14.579 7.9646-18.281 9.7342-1.8047 0.8626-8.7405 4.2877-15.413 7.6113s-15.954 7.6548-20.625 9.6249c-4.6713 1.9699-11.446 4.9442-15.056 6.6092-6.4072 2.9556-28.127 10.859-41.25 15.01-3.6094 1.1418-8.8828 2.8528-11.719 3.8023-4.5746 1.5315-15.218 4.3045-39.844 10.381-4.125 1.0178-9.6094 2.2257-12.188 2.6843-39.857 7.0887-36.679 6.6544-71.719 9.802-17.115 1.5375-47.079 2.8655-47.812 2.1191zm30.938-10.997c26.455-1.4033 57.321-4.6667 66.562-7.0376 2.8359-0.7275 9.5859-2.0019 15-2.8319 9.6265-1.4758 14.022-2.4478 33.454-7.3983 5.2513-1.3378 10.619-2.4323 11.928-2.4323 1.3091 0 4.1845-0.829 6.3897-1.8423 2.2052-1.0132 11.181-4.1543 19.947-6.9801 21.948-7.0755 24.686-8.05 29.667-10.558 2.3952-1.2059 7.2287-3.2741 10.741-4.5963 3.5125-1.322 8.0918-3.1788 10.176-4.1261 2.0846-0.9472 6.1104-2.7588 8.9464-4.0256 5.9647-2.6645 28.416-13.33 31.875-15.142 2.3144-1.2125 7.9597-4.539 19.522-11.503 19.821-11.939 43.771-27.997 52.954-35.504 3.193-2.6104 7.7039-6.0397 10.024-7.6208 2.3203-1.581 6.3639-4.9296 8.9858-7.4414 2.6219-2.5117 9.3085-8.3166 14.859-12.9 5.5507-4.5831 12.687-11.071 15.858-14.418 3.1712-3.3465 7.8297-7.7353 10.352-9.7528 2.5225-2.0174 5.7444-5.1253 7.1599-6.9063 2.0724-2.6079 17.472-19.372 26.691-29.057 3.3016-3.4684 9.2639-10.922 13.125-16.408 5.6706-8.0572 17.861-24.333 21.392-28.562 3.8071-4.5593 16.532-23.933 19.358-29.47 1.1247-2.2047 3.9967-7.0227 6.3821-10.707 4.1613-6.4266 5.8879-9.5618 15.525-28.191 2.3808-4.6023 4.7608-8.7999 5.289-9.3281s0.9603-1.7276 0.9603-2.6655 1.2656-4.0769 2.8125-6.9758c1.5469-2.8987 2.8125-5.8579 2.8125-6.5759s1.0265-3.3312 2.2811-5.807c2.9736-5.868 5.5928-13.116 9.5311-26.374 4.2752-14.392 9.2246-30.18 13.225-42.188 7.8705-23.625 13.372-45.965 15.353-62.344 0.5613-4.6406 1.639-11.391 2.3949-15 1.8312-8.7442 2.9705-21.078 4.2433-45.938 2.5387-49.585 1.2716-77.443-5.3938-118.59-3.5011-21.615-4.4585-26.475-7.4792-37.969-1.7617-6.7031-3.6014-14.319-4.0883-16.924-0.487-2.605-1.7043-6.8237-2.7054-9.375-1.001-2.5513-2.1109-6.3809-2.4665-8.5102-0.3557-2.1294-2.3537-8.6684-4.4402-14.531-2.0865-5.8628-4.5675-13.191-5.5132-16.285-2.8494-9.3212-6.3442-18.108-12.304-30.938-3.1142-6.7031-6.6743-14.585-7.9113-17.515s-4.0005-8.4144-6.141-12.188-5.3691-10.024-7.1747-13.891c-1.8055-3.8672-4.6383-9.3516-6.2949-12.188-17.964-30.753-24.766-41.581-29.74-47.344-1.7798-2.0625-3.7174-4.6712-4.3055-5.7971-3.1718-6.0712-30.65-40.278-46.07-57.352-13.442-14.883-17.874-19.094-22.899-21.76-2.947-1.5629-4.59-3.1626-5.2293-5.0914-0.57281-1.7285-4.761-6.2452-10.866-11.719-21.699-19.453-30.246-26.166-54.287-42.637-4.125-2.8261-9.1742-6.307-11.22-7.7352-3.4387-2.4002-14.268-9.0963-22.061-13.64-1.8047-1.0524-5.3906-3.2523-7.9688-4.8886-2.5781-1.6364-9.75-5.5307-15.938-8.654-6.1875-3.1234-12.938-6.557-15-7.6303-13.161-6.8487-59.962-25.236-74.531-29.281-5.9297-1.6466-11.639-3.554-12.688-4.2387-1.0488-0.68467-4.6347-1.6446-7.9688-2.1332-3.334-0.48859-7.9396-1.5656-10.234-2.3934-5.4317-1.9593-32.4-8.4461-40.827-9.8204-3.6094-0.5886-10.359-1.7194-15-2.5128-4.6406-0.79345-13.5-2.0522-19.688-2.7972s-17.367-2.13-24.844-3.0779c-24.283-3.0784-82.462-2.3516-107.53 1.3434-5.258 0.77507-12.641 1.5491-16.406 1.72-8.259 0.37499-25.693 2.9954-32.159 4.8335-2.5781 0.73297-9.9609 2.4375-16.406 3.788-6.4453 1.3504-14.461 3.2004-17.812 4.1111-3.3516 0.91068-8.625 2.1872-11.719 2.8368-11.12 2.3346-31.067 9.2345-71.719 24.808-9.5681 3.6654-48.516 23.014-64.219 31.902-6.1875 3.5024-12.522 7.0455-14.077 7.8736s-6.333 4.0368-10.619 7.1305-9.7637 6.83-12.173 8.3028c-5.8856 3.5971-21.124 15.132-50.065 37.897-5.3888 4.239-45.723 44.261-45.723 45.369 0 0.43377-2.6367 3.468-5.8594 6.7427-16.458 16.724-56.497 70.1-64.441 85.907-1.6844 3.3516-3.787 7.1484-4.6726 8.4375s-3.186 5.2969-5.112 8.9062c-1.9261 3.6094-4.0857 7.2114-4.7992 8.0045s-3.2372 5.8173-5.6082 11.165c-2.371 5.3476-5.5514 11.526-7.0675 13.73-1.5161 2.2036-3.9803 7.3044-5.4759 11.335-3.1812 8.5731-8.4742 21.667-12.247 30.297-2.6715 6.111-7.0844 19.393-11.681 35.156-1.3531 4.6406-3.2753 11.18-4.2714 14.531-0.99619 3.3516-2.8708 10.611-4.1659 16.133-1.295 5.5216-3.0004 11.585-3.7897 13.474-0.78929 1.889-1.4354 4.5433-1.4358 5.8982-4.22e-4 1.355-0.63471 5.5023-1.4095 9.2163s-1.8454 10.042-2.379 14.062-1.5551 10.263-2.2699 13.872c-0.71483 3.6094-1.7415 11.414-2.2814 17.344s-1.4873 16.266-2.1052 22.969c-3.0894 33.515-0.59863 93.442 5.3187 127.97 0.75114 4.3828 1.7815 10.5 2.2896 13.594 0.86804 5.2847 3.3803 17.124 7.0621 33.281 3.6368 15.959 15.891 54.364 25.127 78.75 6.1496 16.236 7.7695 19.893 14.875 33.581 4.1973 8.0851 9.1094 17.653 10.916 21.263 1.8065 3.6093 3.8137 7.1953 4.4604 7.9687 0.64671 0.7734 3.0915 4.9922 5.433 9.375s5.3516 9.8672 6.6893 12.188c4.412 7.653 16.409 25.527 22.968 34.219 2.3345 3.0937 4.8702 6.5271 5.6348 7.6298 0.76465 1.1027 5.3981 7.0089 10.297 13.125s10.026 12.597 11.394 14.401c7.0466 9.2948 37.489 40.807 53.888 55.781 15.474 14.13 49.663 41.173 57.589 45.552 1.3164 0.7273 5.3224 3.3407 8.9022 5.8075 10.792 7.437 23.217 15.117 34.634 21.409 4.6406 2.5575 10.486 5.9122 12.989 7.455 6.834 4.212 37.455 18.202 57.324 26.19 15.306 6.1533 24.766 9.5895 34.219 12.43 4.3828 1.3168 12.188 3.6633 17.344 5.2146 26.113 7.8558 52.399 13.488 77.344 16.573 5.9297 0.7333 13.102 1.7321 15.938 2.2195 2.8359 0.4873 12.75 1.3758 22.031 1.9743s17.93 1.2061 19.219 1.3504c5.5212 0.618 41.095 0.3726 55.312-0.3816zm-64.688-14.038c-7.9922-0.369-15.586-0.9505-16.875-1.2922s-7.1953-1.0193-13.125-1.5056c-21.221-1.7406-64.457-10.152-77.319-15.042-1.4638-0.5565-7.5526-2.2452-13.531-3.7527-12.118-3.0558-18.981-5.1794-28.682-8.8755-3.6094-1.3751-8.25-3.0721-10.312-3.771-14.456-4.899-46.525-18.951-60.469-26.497-4.3828-2.3718-10.5-5.541-13.594-7.0428s-9-4.8097-13.125-7.351-11.768-7.2515-16.984-10.467c-21.6-13.315-42.523-28.406-56.141-40.492-4.125-3.6608-9.8203-8.6018-12.656-10.98-15.817-13.264-32.763-30.309-52.031-52.336-4.6406-5.3051-10.662-12.124-13.381-15.154-2.7187-3.0296-6.4031-7.7164-8.1877-10.415-1.7846-2.6988-5.6774-8.1497-8.6507-12.113-2.9733-3.9634-7.064-9.8697-9.0903-13.125-2.0263-3.2554-5.4768-8.2393-7.6678-11.075-2.1909-2.8359-5.5328-8.1094-7.4263-11.719-1.8935-3.6094-4.4966-7.9604-5.7845-9.6688-3.9592-5.2516-30.281-56.617-30.281-59.092 0-0.467-1.9199-4.9856-4.2664-10.041-12.922-27.841-29.824-88.13-35.993-128.39-7.5521-49.278-7.7019-110.62-0.39158-160.31 0.75858-5.1562 1.7766-12.539 2.2623-16.406 0.48568-3.8672 1.2728-8.7188 1.7492-10.781s1.969-9.0234 3.317-15.469c2.7179-12.996 9.1206-36.593 11.701-43.125 0.91666-2.3203 2.1919-6.3281 2.8338-8.9062 3.0473-12.239 10.542-31.815 22.792-59.531 8.8962-20.129 21.654-42.834 42.67-75.938 4.0957-6.4515 20.348-29.472 23.575-33.393 1.3238-1.6084 7.4694-9.168 13.657-16.799 12.415-15.312 41.591-46.119 47.977-50.659 2.2398-1.5924 5.5883-4.6664 7.4411-6.8309 4.8714-5.6911 31.344-27.793 40.675-33.96 4.3828-2.8964 14.148-9.7065 21.7-15.134 7.5524-5.427 17.856-12.134 22.898-14.905s11.518-6.3999 14.393-8.0645c8.8403-5.1183 38.386-19.859 49.759-24.825 16.088-7.0252 53.214-20.292 63.75-22.781 2.8359-0.66985 7.8984-2.0647 11.25-3.0998 3.3516-1.035 10.312-2.7894 15.469-3.8987 5.1562-1.1093 14.227-3.2298 20.156-4.7123 5.9297-1.4825 12.891-2.9549 15.469-3.272 2.5781-0.31709 9.9609-1.3627 16.406-2.3236 78.933-11.768 188.54-3.6219 250.31 18.603 2.8359 1.0203 11.906 4.1852 20.156 7.033 37.253 12.86 87.852 38.324 122.81 61.807 15.339 10.303 27.607 19.265 40.037 29.246 19.999 16.059 57.516 52.227 69.348 66.854 3.2599 4.0298 9.302 11.25 13.427 16.046 7.8851 9.1662 14.088 17.58 26.657 36.163 4.1854 6.1875 10.499 15.469 14.031 20.625s7.1629 10.852 8.0693 12.656c0.9065 1.8047 3.4894 6.3308 5.7398 10.058 2.2504 3.7273 5.3155 9.3036 6.8115 12.392s3.5671 6.9996 4.6025 8.6919c1.0353 1.6923 3.6214 7.2957 5.7468 12.452s4.6908 11.062 5.701 13.125c11.612 23.71 27.805 73.704 33.201 102.51 0.8058 4.3016 2.0767 10.208 2.824 13.125 1.317 5.1406 5.9436 35.953 7.9755 53.116 2.4317 20.541 3.0089 74.637 1.0104 94.688-0.5141 5.1562-1.3951 14.438-1.9581 20.625-3.3205 36.498-16.713 97.003-27.274 123.22-1.5709 3.8998-4.4344 11.313-6.3635 16.474-1.929 5.1608-3.9561 10.223-4.5047 11.25s-3.1992 6.7182-5.8903 12.648c-9.7354 21.451-18.778 39.558-22.47 44.996-2.0731 3.0527-4.148 6.5173-4.6111 7.699-1.1649 2.973-9.6019 16.477-17.227 27.572-3.5016 5.0953-8.888 13.061-11.97 17.702-16.446 24.763-53.25 66.431-78.226 88.563-2.5781 2.2846-9.9367 8.932-16.352 14.772-11.249 10.24-25.893 21.607-41.081 31.887-3.9896 2.7004-9.935 6.8571-13.212 9.237-3.277 2.38-7.9176 5.1795-10.312 6.2213s-4.9872 2.4366-5.7606 3.0996c-5.0563 4.3346-34.468 20.75-47.344 26.424-47.467 20.916-89.863 35.489-120.47 41.407-2.8359 0.5484-9.1641 1.8036-14.062 2.7892-43.475 8.748-92.627 11.976-145.31 9.5436zm70.312-7.5881c21.584-1.279 49.006-4.2034 60-6.3984 2.3203-0.4633 8.4375-1.7592 13.594-2.8797 5.1562-1.1206 12.539-2.7084 16.406-3.5285 15.785-3.3476 23.045-5.3819 44.531-12.478 24.189-7.9885 43.695-15.247 57.188-21.28 4.6406-2.075 12.023-5.3638 16.406-7.3086 4.3828-1.9447 12.609-6.1607 18.281-9.3687 5.6719-3.208 11.27-6.131 12.441-6.4955 1.1705-0.3645 4.0851-2.1565 6.477-3.9823 2.3918-1.8258 8.145-5.3822 12.785-7.9032 4.6398-2.5211 10.163-5.8546 12.273-7.4078 2.1104-1.5533 8.8995-6.4042 15.087-10.78 17.492-12.37 47.692-36.632 54.211-43.552 3.8081-4.0426 8.7831-9.0126 20.818-20.797 14.011-13.72 35.252-37.644 43.449-48.937 2.384-3.2845 6.2231-8.455 8.5311-11.49 5.146-6.7669 10.084-14.038 11.851-17.452 1.5829-3.058 16.29-23.965 20.69-29.413 1.7088-2.1156 3.1138-4.6468 3.1224-5.625 0.01-0.9781 1.0376-3.4659 2.287-5.5284 1.2495-2.0625 3.7447-6.7032 5.5452-10.312 1.8004-3.6094 4.7312-9.3047 6.513-12.656 5.2549-9.8846 17.111-37.289 19.874-45.938 0.906-2.8359 2.3754-6.6328 3.2652-8.4375 1.9166-3.8871 9.8765-26.973 11.152-32.344 0.4898-2.0625 2.8424-11.133 5.228-20.156s4.6869-18.727 5.1138-21.562c0.427-2.8359 1.2297-6.8438 1.7838-8.9062 0.9963-3.7088 5.0435-29.995 6.712-43.594 4.3179-35.193 4.5022-98.855 0.3636-125.62-0.7573-4.8984-1.8042-12.07-2.3263-15.938-0.5222-3.8672-1.965-12.531-3.2063-19.252-1.2413-6.7216-2.5399-14.737-2.8858-17.812s-1.0658-6.4352-1.5998-7.4665-1.9057-5.4609-3.0483-9.8438c-5.3691-20.595-14.846-49.289-21.52-65.156-1.7348-4.125-3.8628-9.6094-4.7286-12.188-0.8659-2.5781-2.9424-7.4297-4.6143-10.781-1.6721-3.3516-3.5794-7.7812-4.2387-9.8438-0.6592-2.0625-3.7932-8.3906-6.9644-14.062-3.1712-5.6719-6.3036-11.578-6.9609-13.125-1.5914-3.7451-16.072-28.084-22.311-37.5-16.4-24.751-24.753-36.228-33.746-46.367-2.6554-2.994-5.5997-6.6534-6.5427-8.1319-4.5547-7.1411-42.213-46.326-55.979-58.248-4.6064-3.9893-10.973-9.5736-14.148-12.41-3.1753-2.8359-7.6529-6.5238-9.9502-8.1953s-6.9191-5.1161-10.271-7.6547c-10.658-8.0725-28.533-20.275-41.421-28.276-6.8667-4.2628-13.961-8.7035-15.766-9.8683-6.0482-3.9036-38.794-20.157-49.219-24.429-27.753-11.375-36.11-14.567-43.594-16.653-3.3516-0.93415-7.2326-2.2832-8.6245-2.9979-1.3919-0.71469-4.7669-1.8973-7.5-2.6281-2.7331-0.73076-11.086-3.0247-18.563-5.0975-7.4766-2.0729-23.297-5.8569-35.156-8.409-18.895-4.0662-27.305-5.5138-55.781-9.6014-27.6-3.9619-95.353-3.635-123.1 0.5938-5.256 0.80108-13.142 1.8378-17.525 2.3038-14.27 1.5173-54.535 10.203-73.594 15.875-7.4422 2.2149-41.227 14.197-48.281 17.124-29.057 12.055-43.883 18.93-58.125 26.954-4.8984 2.7598-11.227 6.225-14.062 7.7005-11.329 5.8942-26.459 15.215-31.962 19.691-2.2724 1.8481-9.149 6.8259-15.281 11.062-16.518 11.41-44.473 34.686-59.121 49.227-9.1128 9.0458-31.55 33.488-36.136 39.365-2.3203 2.9736-6.1211 7.5671-8.4462 10.208-3.8408 4.3621-15.715 19.782-24.57 31.905-1.9165 2.624-5.5024 8.0452-7.9688 12.047s-8.0095 12.65-12.318 19.219c-4.3086 6.5685-9.9812 16.372-12.606 21.786-2.6246 5.4136-6.6494 13.007-8.944 16.875-2.2946 3.8676-5.3938 9.981-6.887 13.585-1.4932 3.6042-3.3423 7.5106-4.1091 8.6809s-3.2911 7.1988-5.6096 13.397-5.2353 13.575-6.4817 16.393c-3.3843 7.6525-11.533 32.455-14.93 45.444-0.74172 2.8359-2.9003 10.852-4.7969 17.812-3.7775 13.864-7.7284 33.926-8.8886 45.135-0.408 3.9416-1.1854 10.059-1.7276 13.594-4.3712 28.501-6.1726 100.24-2.9689 118.23 0.48245 2.7094 0.6567 5.5007 0.38722 6.2029-0.26948 0.70227 0.35162 5.8683 1.3802 11.48s2.1368 12.735 2.4626 15.828c0.65047 6.1759 2.7318 18.243 4.2849 24.844 0.54599 2.3203 1.5654 7.1719 2.2653 10.781s2.2006 9.9375 3.3348 14.062c1.1342 4.125 2.3694 8.9766 2.7448 10.781 2.8178 13.545 9.9162 36.082 15.902 50.488 1.5756 3.7917 2.8647 7.6002 2.8647 8.4632 0 0.8631 0.62284 2.4585 1.3841 3.5454 0.76125 1.0868 2.8107 5.5049 4.5544 9.8179 8.0395 19.886 26.126 55.535 35.468 69.909 2.7497 4.2306 7.828 12.035 11.285 17.344 3.457 5.3085 9.4691 14.081 13.36 19.496 3.8911 5.4141 8.2221 11.531 9.6244 13.594 1.4023 2.0625 4.9514 6.3631 7.8868 9.557s6.591 7.6236 8.1234 9.8438c1.5324 2.2201 4.6275 5.9676 6.8779 8.3277 6.351 6.6605 15.844 16.799 20.562 21.961 4.0434 4.4237 14.469 14.517 28.096 27.2 5.5451 5.161 10.524 9.32 25.196 21.047 18.056 14.432 59.19 41.102 80.238 52.024 3.0938 1.6055 6.4688 3.4199 7.5 4.032 3.6581 2.1712 20.858 9.8799 37.5 16.807 9.2812 3.8632 18.984 7.9647 21.562 9.1144 6.9435 3.0963 42.195 13.893 61.406 18.808 21.631 5.5335 63.216 12.28 84.375 13.689 34.955 2.3272 53.886 2.5152 82.5 0.8195zm-50.156-114.43c-3.6094-0.3275-10.372-0.6479-15.028-0.712-9.2318-0.1269-27.762-2.2145-38.878-4.3799-3.8672-0.7533-9.5625-1.8136-12.656-2.3561-3.0938-0.5424-7.9453-1.5834-10.781-2.3132-2.8359-0.7297-10.641-2.6592-17.344-4.2876-13.401-3.2558-40.756-12.003-52.5-16.788-14.667-5.976-25.339-10.594-27.188-11.766-1.0312-0.6535-4.5933-2.3192-7.9157-3.7015-3.3224-1.3822-8.3849-4.1-11.25-6.0395-11.357-7.6878-13.337-8.0602-15.922-2.994-3.2325 6.3362-10.57 7.5495-11.8 1.951-0.47953-2.1833 0.0132-3.7294 2.2785-7.1494 3.3717-5.0903 2.7779-6.4835-4.0825-9.5786-25.078-11.314-87.034-70.531-114.53-109.47-7.3433-10.398-9.0499-13.024-17.256-26.556-2.3451-3.8672-5.7742-9.3516-7.6203-12.188-15.561-23.905-42.947-95.969-46.783-123.11-0.46338-3.2782-1.6581-6.8397-2.823-8.4153-1.3678-1.8501-1.8576-3.5414-1.5177-5.2411 0.27604-1.3802 0.11836-5.4508-0.35039-9.0458-0.46876-3.595-1.5198-12.419-2.3357-19.609s-1.691-13.408-1.9447-13.819c-0.25367-0.41043-0.44501-6.5513-0.42521-13.646 0.0198-7.095-0.21801-15.537-0.52846-18.759l-0.56445-5.8594h-4.5173c-5.8168 0-9.174-1.3097-10.179-3.9707-1.6631-4.4049 2.3444-6.4877 12.336-6.4115 2.1669 0.0165 3.5157-0.41453 3.5158-1.1236 4e-3 -25.342 9.1326-81.772 16.862-104.24 1.01-2.9356 2.515-8.1526 3.3444-11.593 1.925-7.9854 7.1472-22.996 11.146-32.037 1.7104-3.8672 5.3317-12.305 8.0475-18.75 2.7157-6.4453 6.8482-15.305 9.1834-19.688 2.3351-4.3828 5.3489-10.078 6.6973-12.656 1.3484-2.5781 4.5877-8.0625 7.1984-12.188s6.7389-10.664 9.1737-14.531c20.821-33.07 69.781-85.58 97.813-104.9 2.958-2.0392 7.6462-5.5966 10.418-7.9055 2.7721-2.3088 7.6237-5.7407 10.781-7.6264 22.762-13.593 21.787-12.596 19.315-19.761-3.898-11.3 1.7978-15.946 7.1972-5.8704 3.6972 6.8992 4.4555 6.8371 21.689-1.7784 8.0998-4.0494 16.414-7.9833 18.477-8.7422s7.0145-2.9441 11.004-4.8562c3.9899-1.912 9.0524-3.9274 11.25-4.4785 2.1976-0.55112 6.7378-2.0131 10.089-3.2489 15.357-5.6626 36.849-12.101 44.531-13.341 10.534-1.6996 12.81-2.7783 13.775-6.5275 1.1804-4.5883 7.3078-4.8492 12.26-0.52187 1.4992 1.31 2.7243 1.2944 12.656-0.16079 17.066-2.5004 64.665-5.8547 68.075-4.7971 0.57579 0.17861 8.2188 0.57963 16.984 0.89114 8.7656 0.3115 19.102 0.97461 22.969 1.4736 3.8672 0.49895 11.039 1.3516 15.938 1.8948 8.9336 0.99061 29.89 4.8527 35.156 6.4792 1.5469 0.47771 4.7531 1.1406 7.125 1.4731l4.3125 0.60452 2.25-4.5355c5.307-10.698 15.686-8.5771 12.992 2.6545-1.4292 5.9578-0.8326 6.597 8.477 9.0814 8.1117 2.1647 26.671 8.7039 30.879 10.88 1.5756 0.81478 6.2284 2.7216 10.34 4.2375 7.0986 2.6173 31.824 14.576 39.887 19.291 4.3554 2.5472 4.5163 2.4767 9.2397-4.0453 5.2687-7.275 11.24-6.0311 9.5166 1.9827-1.3055 6.0725-1.1528 11.185 0.37412 12.519 2.0503 1.7914 10.09 7.233 14.608 9.887 6.3776 3.7467 28.965 21.469 45 35.307 20.492 17.685 47.097 46.545 59.696 64.757 2.6754 3.8672 6.7913 9.606 9.1466 12.753 2.3552 3.147 4.9641 6.9438 5.7974 8.4375 0.83334 1.4937 5.0032 8.4111 9.2663 15.372 36.794 60.078 58.451 133.79 60.732 206.72l0.6743 21.562 6.0938 0.28153c7.3294 0.33862 10.312 1.9933 10.312 5.7201 0 3.0274-1.3994 3.7898-10.781 5.8739l-5.6251 1.2495-0.6989 5.625c-0.3844 3.0938-1.7836 14.695-3.1094 25.781-3.4455 28.812-6.7426 46.122-12.32 64.688-1.3169 4.3828-2.947 10.289-3.6226 13.125-2.126 8.9244-9.3481 29.106-14.426 40.312-2.6869 5.9297-6.2662 13.947-7.954 17.816-9.7642 22.384-41.572 71.997-57.16 89.155-2.6243 2.8887-7.3027 8.3156-10.396 12.06-5.7514 6.9606-24.155 25.39-39.536 39.592-14.049 12.971-29.881 24.512-58.198 42.423-11.784 7.4534-12.473 8.227-10.108 11.354 4.8162 6.3676-2.7792 10.976-8.4077 5.101-3.5968-3.7543-2.9901-3.8992-20.87 4.9854-8.631 4.2889-19.49 9.1765-24.13 10.861-4.6406 1.6848-12.234 4.4855-16.875 6.2236-10.814 4.0505-24.389 8.4724-28.594 9.3144-1.8047 0.3614-7.0781 1.8752-11.719 3.364-7.8242 2.5103-26.403 6.0879-50.156 9.6581-18.816 2.8283-60.543 4.6509-75.469 3.2965zm5.8594-7.9002c0.83876-0.2643 1.1835-3.2426 1.2127-10.477 0.0225-5.5592 0.41251-12.006 0.86679-14.326 1.0995-5.616 1.8449-5.3273-17.073-6.6111-21.258-1.4423-22.468-0.2329-20.687 20.674l0.75871 8.9063 4.6875 0.6419c2.5781 0.3529 8.0457 0.8986 12.15 1.2126s7.6686 0.7767 7.9202 1.0284c0.44708 0.4471 7.8378-0.3153 10.164-1.0485zm38.672-0.3065 5.1562-0.5962 0.24245-13.872c0.22825-13.059-0.53569-18.327-2.4832-17.124-0.4072 0.2516-7.8743 0.7275-16.594 1.0575-8.7193 0.3299-16.025 0.7646-16.235 0.9659-2.2954 2.2014-1.207 25.17 1.3827 29.178 1.3947 2.1581 11.989 2.3032 28.53 0.3904zm37.466-3.9103c17.997-2.2773 17.244-1.5439 14.883-14.493-3.7504-20.572-3.1582-19.742-12.65-17.734-3.5295 0.7467-10.636 1.8192-15.792 2.3834-13.267 1.4516-12.833 1.045-12.176 11.417 1.1156 17.612 2.8692 21.947 8.4259 20.827 1.5469-0.3116 9.336-1.3921 17.309-2.4009zm-119.6-0.5068c0.31298-0.8157 0.56913-3.8743 0.56921-6.7969 9e-5 -2.9227 0.63337-8.623 1.4073-12.667 1.6746-8.7513 1.7096-8.6689-3.966-9.3368-7.6596-0.9014-26.381-4.2167-27.413-4.8546-3.9237-2.4251-6.1148 3.0589-7.4848 18.732-0.95742 10.954 3.0335 16.03 11.675 14.852 1.5469-0.2111 4.7109 0.01 7.0312 0.4828 7.4121 1.5224 17.527 1.2937 18.181-0.411zm155.26-6.0133c0.77344-0.3816 6.2578-2.0543 12.188-3.717 13.233-3.7104 12.89-3.3829 10.543-10.062-1.0522-2.9941-2.6188-8.6079-3.4814-12.475-0.86251-3.8672-2.1527-7.9372-2.8671-9.0443l-1.2989-2.0132-8.7133 2.6211c-4.7923 1.4417-11.446 3.1221-14.785 3.7344-10.927 2.0033-11.143 2.6445-6.4769 19.19 4.0824 14.476 6.1267 16.091 14.892 11.765zm-201.11-3.0507c0.33061-1.6758 1.1798-5.1562 1.8872-7.7343 5.5342-20.171 5.7907-18.775-3.8893-21.17-4.046-1.0009-10.867-2.9292-15.159-4.2852l-7.8027-2.4654-2.5098 1.857c-3.136 2.3203-4.9425 5.9337-5.469 10.939-0.22413 2.1308-1.1033 6.3509-1.9538 9.3781-1.9026 6.7725-1.6703 7.0174 9.4275 9.9342 4.2202 1.1093 10.626 3.0132 14.236 4.2309 9.2216 3.1114 10.5 3.0335 11.233-0.6847zm242.67-9.5533c3.1817-1.2582 9.5696-3.5874 14.195-5.1761 10.574-3.6315 10.182-2.9974 6.8938-11.147-1.5295-3.7904-3.5438-9.8961-4.4764-13.568-2.5147-9.9023-1.1617-9.8339-24.304-1.2303-11.13 4.1378-10.639 3.4383-9.0988 12.95 1.376 8.5002 1.9799 10.066 6.3524 16.474 3.189 4.6736 2.9913 4.6414 10.438 1.6967zm-284.39-4.0404c7.6358-26.934 7.7467-25.005-1.6248-28.266-4.254-1.48-8.7596-3.3625-10.012-4.1834-5.396-3.5355-13.953-5.7225-15.023-3.8392-1.2318 2.1687-4.3369 5.2966-6.4748 6.5227-1.4496 0.8312-5.5623 10.482-6.886 16.159-0.55586 2.3837-0.69384 2.3119 22.225 11.564 16.308 6.5839 16.502 6.6061 17.796 2.0418zm332.51-15.795c9.8528-4.8735 12.505-6.5854 12.505-8.0709 0-1.6471-11.701-21.748-14.475-24.868-1.1678-1.3131-6.2912 0.5604-18.2 6.6551l-6.8942 3.5283 0.65449 4.3924c0.7775 5.2178 6.5953 20.574 8.6785 22.908 2.307 2.584 4.4068 2.0457 17.731-4.5448zm-166.09 3.8353c30.672-2.6668 48.981-5.226 60.469-8.452 4.3828-1.2308 13.217-3.5636 19.632-5.184 6.4146-1.6203 12.743-3.3691 14.062-3.886s8.0949-2.9455 15.056-5.3969c40.466-14.251 52.98-21.849 47.849-29.055-2.4745-3.475-3.9428-10.194-2.725-12.47 1.7187-3.2113 4.8095-1.632 7.4647 3.8143 1.3378 2.7441 3.5152 6.0721 4.8388 7.3957l2.4065 2.4065 8.2862-4.4704c8.623-4.6521 9.7943-5.4218 27.3-17.939 31.821-22.752 66.296-57.719 89.044-90.314 9.3376-13.38 15.027-22.078 17.193-26.287 1.1942-2.3203 3.5067-6.1172 5.1389-8.4375 1.6323-2.3203 4.013-6.3281 5.2906-8.9062 1.2776-2.5782 3.8799-7.7464 5.7829-11.485 12.71-24.97 26.913-70.974 32.779-106.17 7.3806-44.286 7.2074-46.33-3.927-46.377-5.6999-0.0241-7.0992-0.33941-8.2031-1.8488-3.0439-4.1618 0.62541-7.0814 8.924-7.1008 3.3832-7e-3 6.6203-0.3243 7.1937-0.70313 6.7712-4.4743-5.0764-90.382-17.032-123.5-1.8614-5.1562-4.2142-11.906-5.2284-15-10.3-31.418-31.687-70.339-57.184-104.07-9.7886-12.949-34.221-39.549-42.03-45.759-1.825-1.4514-6.0734-5.3219-9.4411-8.601s-8.072-7.3651-10.454-9.0798c-2.3821-1.7147-9.4646-6.9146-15.739-11.555-13.073-9.6693-20.475-14.695-25.76-17.489l-3.7008-1.9567-1.9242 2.3724c-1.0583 1.3048-3.4008 4.5236-5.2055 7.1527-4.5299 6.5993-9.386 7.7041-9.3659 2.1309 6e-3 -1.4508 1.3728-4.2381 3.2182-6.5595 3.1728-3.991 4.9212-8.6867 3.8685-10.39-2.3476-3.7985-60.032-28.661-75.755-32.651-6.8384-1.7354-7.6851-1.3916-8.9467 3.6333-6.2701 24.973-5.81 46.067 1.1863 54.382 6.0962 7.245-0.82783 11.617-12.254 7.7377-2.4192-0.82133-4.7213-1.124-5.1661-0.67916-0.99569 0.99569-4.5642 14.962-4.5838 17.94-8e-3 1.2021-1.5453 7.1083-3.4163 13.125-1.8711 6.0167-3.9843 13.26-4.6961 16.096-2.612 10.407-4.36 15.529-6.1734 18.091-5.7272 8.0901-3.6125 11.032 11.459 15.943 27.536 8.9723 57.433 27.8 84.452 53.183 12.932 12.15 14.674 14.349 33.765 42.626 17.776 26.33 30.682 58.564 34.534 86.25 0.57399 4.125 1.4656 10.031 1.9815 13.125 2.8304 16.976 2.4791 39.568-0.93314 60-0.51668 3.0938-1.3664 8.623-1.8883 12.287-3.6368 25.534-18.602 64.649-31.301 81.815-2.6557 3.5897-7.1412 9.8305-9.9679 13.869-7.7167 11.024-20.409 25.319-28.717 32.344-17.786 15.04-20.901 17.532-27.55 22.047-23.853 16.196-48.122 27.378-73.125 33.694-10.009 2.5282-13.125 4.0585-13.125 6.4452 0 4.2241 0.92304 5.1554 5.1098 5.1554 23.392 0 43.812 22.29 40.794 44.531-2.847 20.983-10.158 27.904-11.387 10.781-1.2421-17.298-4.1614-22.218-17.278-29.118-26.789-14.092-54.527 26.582-33.051 48.464 4.2765 4.3575 4.3443 6.4519 0.24226 7.4815-4.8829 1.2256-17.41-8.4115-20.442-15.726-0.92815-2.2391-2.5443-6.0447-3.5914-8.4567-7.6726-17.674 6.5961-47.727 25.511-53.73 1.3944-0.4426 1.9014-1.4048 1.8909-3.5885-0.0264-5.5021-0.77452-5.8601-9.5849-4.5862-11.777 1.7028-45.168 2.4691-53.356 1.2245-3.7885-0.5759-9.8414-1.4699-13.451-1.9865-39.296-5.6252-84.456-24.34-107.2-44.425-1.8818-1.6617-4.8981-4.0204-6.7028-5.2417-22.451-15.193-58.544-62.396-69.517-90.916-9.2795-24.12-10.886-29.231-13.944-44.365-5.2244-25.852-6.5595-64.379-2.8005-80.813 0.47176-2.0625 1.9724-9.6445 3.3348-16.849 1.3624-7.2044 3.6668-16.697 5.1209-21.094 1.4541-4.3971 3.2909-10.579 4.0818-13.737 0.79088-3.1585 2.662-8.221 4.158-11.25 6.1524-12.457 12.31-23.885 15.09-28.003 1.6246-2.4073 3.8168-6.0683 4.8715-8.1356s5.1589-7.9665 9.1205-13.109 8.3583-10.856 9.7705-12.695c9.7751-12.734 31.088-31.15 54.777-47.33 12.931-8.8324 57.121-27.015 65.656-27.015 2.4924 0 4.0303 2.9626 4.0303 7.7641 0 1.625 0.68406 4.7457 1.5201 6.9349 1.8674 4.8898 1.2378 6.8615-2.1938 6.8701-6.6225 0.0167-19.103 4.113-32.581 10.693-7.7492 3.7835-18.473 8.9314-23.831 11.44-11.178 5.2332-18.517 12.386-17.633 17.184 0.90645 4.9224 11.078 32.67 14.624 39.895 2.0248 4.125 5.1998 11.086 7.0558 15.469 5.4567 12.886 11.052 23.455 15.108 28.535 2.0838 2.6102 6.1967 8.0109 9.1399 12.001 6.4869 8.7954 12.618 13.114 21.759 15.329 13.827 3.3493 13.458 10.109-0.43483 7.9536-14.749-2.2884-24.588-10.534-37.91-31.771-1.3958-2.2251-2.9854-3.8965-3.5324-3.7141-6.5406 2.1802-6.936 44.722-0.43882 47.215 0.74952 0.28762 1.8744 1.7582 2.4998 3.2681 1.2954 3.1274 2.9688 3.3375 14.503 1.821 3.9703-0.52198 11.747-0.52686 19.688-0.0124 7.2188 0.46774 19.117 0.93079 26.441 1.029l13.316 0.17855 3.2264-2.8328c1.7745-1.5581 5.2747-3.6013 7.7781-4.5405 5.7392-2.1532 6.2757-2.9855 4.1963-6.5098-2.1602-3.6614-2.466-4.9459-6.2432-26.232-1.7385-9.7969-5.031-27.094-7.3167-38.438s-4.6498-23.789-5.2535-27.656c-0.60373-3.8672-1.6899-9.9844-2.4137-13.594-2.0744-10.344-8.3417-42.874-13.095-67.969-2.3929-12.633-5.7601-28.875-7.4826-36.094-1.7225-7.2188-3.8217-16.289-4.665-20.156-0.84325-3.8672-2.4687-11.039-3.6122-15.938-2.3492-10.064-0.87849-9.1764-13.095-7.9023-11.595 1.2092-16.882-8.4058-8.0713-14.679 8.7955-6.2629 10.863-25.318 5.8115-53.568-1.7705-9.9026-2.2433-10.399-8.3106-8.7289-2.5557 0.70356-9.9202 2.6313-16.366 4.2838-6.4453 1.6525-14.039 3.9628-16.875 5.1339-11.926 4.9251-40.165 15.487-43.125 16.129-1.2891 0.27984-3.1875 1.2596-4.2188 2.1772-1.0312 0.91766-6.1713 3.8186-11.422 6.4466-11.938 5.9745-12.485 7.2326-6.6093 15.211 2.2826 3.0996 1.4825 6.4352-1.5436 6.4352-2.1498 0-5.5404-3.1218-8.4006-7.7344-1.857-2.9948-4.1429-3.27-7.2883-0.87756-1.2297 0.93532-4.7367 3.0907-7.7933 4.7897s-6.2207 3.8128-7.0312 4.6972c-1.9061 2.0799-8.6535 7.3117-14.599 11.32-13.7 9.2358-43.542 36.409-56.104 51.087-3.5305 4.125-7.1727 8.1602-8.0939 8.9671-5.4692 4.7908-28.705 37.603-34.811 49.158-1.6348 3.0938-5.499 9.6328-8.587 14.531s-6.1477 10.413-6.7992 12.254c-0.65154 1.8414-2.2331 5.4274-3.5146 7.9688-12.629 25.045-27.158 72.481-32.428 105.87-3.4246 21.7-3.9653 26.071-4.5323 36.652-0.64201 11.98-1.1035 11.307 8.3473 12.164l7.1165 0.64488 0.0174-7.8552c0.0215-9.675 0.29255-10.366 6.9331-17.674l5.3568-5.895 7.4165 0.42934c5.3517 0.30981 8.3776 0.9964 10.869 2.4662 3.6176 2.1344 7.042 2.6152 8.5481 1.2 9.1186-8.568 28.009-5.4568 35.636 5.8692 8.2297 12.22 1.3563 33.215-10.93 33.384-0.82312 0.0113-2.7448 0.64327-4.2703 1.4043-3.7691 1.8803-11.662 0.89221-15.912-1.9919-3.7685-2.5574-6.9751-2.7614-12.54-0.79805-7.3137 2.5804-18.465 0.95727-25.617-3.7286-2.1984-1.4404-2.576-1.4406-5.3564-3e-3 -2.2383 1.1574-4.3213 1.403-8.2746 0.97557-8.123-0.87834-8.1284-0.8682-7.8943 14.684 0.34055 22.623 2.8692 44.479 7.3476 63.508 0.79305 3.3698 1.8668 7.9836 2.3862 10.253 0.51933 2.2693 1.5444 5.2865 2.2779 6.705 0.7335 1.4184 2.202 6.5869 3.2633 11.485 1.798 8.2989 13.48 43.934 15.748 48.036 0.55795 1.0095 4.0337 8.304 7.7239 16.21 6.1669 13.212 11.1 22.057 19.174 34.375 1.6898 2.5781 6.0249 9.3281 9.6334 15 22.676 35.641 62.681 75.771 102.66 102.98 11.112 7.5624 11.036 7.5581 15.272 0.8484 5.0611-8.0164 9.3347-10.616 12.404-7.5469 1.9818 1.9818 1.2192 5.2285-2.625 11.176-4.5337 7.0146-4.5734 7.6086-0.70313 10.522 6.8872 5.1844 38.91 20.171 53.248 24.919 43.756 14.492 39.165 13.264 77.172 20.653 9.845 1.914 38.528 4.4386 56.846 5.0036 4.8984 0.1511 10.383 0.3562 12.188 0.4558 1.8047 0.1 10.453-0.4424 19.219-1.2046zm100.52-43.588c-4.8886-3.8453-7.7758-17.946-5.0323-24.577 2.0697-5.0024 4.4202-12.154 5.4797-16.672 0.54406-2.3203 1.9579-5.374 3.1419-6.786 2.8546-3.4043 4.7882-11.864 3.3331-14.583-2.7417-5.1228-10.356-3.2529-14.835 3.6428-5.9287 9.1289-8.0689 10.536-12.053 7.9261-6.4057-4.1971-1.9641-16.408 8.1144-22.309 20.503-12.004 40.482 8.5972 27.938 28.81-7.042 11.348-10.249 24.727-6.9842 29.136 1.3018 1.7583 1.7672 1.6046 13.781-4.5516l12.434-6.3712 2.3908 1.7764c6.6519 4.9429 3.4547 8.5249-16.82 18.844-16.137 8.2135-17.307 8.5335-20.89 5.7153zm-307.57-25.151c-4.1346-4.5687 1.3105-14.758 13.132-24.574 4.0108-3.3304 9.6252-8.4303 12.476-11.333s6.7661-6.4334 8.6997-7.8456c4.4604-3.2578-0.25641-8.6891-11.014-12.682-6.4215-2.3836-8.0646-7.4664-3.7943-11.737 3.3721-3.3721 5.7752-2.8909 15.092 3.0225 4.6133 2.9279 11.552 7.0423 15.419 9.1431 7.8608 4.2701 9.151 6.6238 5.6651 10.334-1.0941 1.1646-2.2287 3.5924-2.5212 5.3951-0.44859 2.7643-1.2091 3.6066-4.8567 5.3787-12.151 5.9035-33.066 23.48-35.803 30.088-2.2012 5.3143-9.4972 8.1228-12.495 4.8101zm358.92-4.8197c-3.093-1.3036-10.521-6.9407-12.42-9.425-4.5097-5.9006-10.471-16.741-11.072-20.135-0.36549-2.0625-1.241-4.8892-1.9455-6.2815-3.5969-7.1087-0.73247-21.734 5.6267-28.729 7.5723-8.3296 28.861-6.2164 25.801 2.5612-1.063 3.0493-1.7048 3.3706-8.6079 4.3093-8.8172 1.199-13.269 7.6535-10.421 15.11 1.8644 4.8817 1.5869 4.8306 7.9853 1.4699 18.371-9.6492 31.534-2.2755 33.289 18.647 1.2767 15.225-14.894 28.096-28.235 22.473zm11.491-14.034c7.8178-5.6633 5.0022-19.745-3.9479-19.745-8.8512 0-13.05 14.195-5.9626 20.159 3.5882 3.0193 5.2676 2.9491 9.9105-0.4143zm-391.21 2.7449c-3.4057-0.7274-4.8038-1.5015-8.98-4.9724-1.7464-1.4515-7.1743-5.4847-12.062-8.9626-10.239-7.2857-12.999-10.908-11.09-14.551 1.8136-3.4615 10.511-10.55 14.572-11.876 1.9413-0.634 5-1.9344 6.7971-2.8898 2.1486-1.1423 5.3586-1.7642 9.375-1.8162 11.668-0.1511 16.623-1.1901 19.69-4.1289 6.7765-6.4922 1.8264-12.878-9.6362-12.432-9.5417 0.3717-12.117-3.9708-5.989-10.099 12.313-12.313 40.175 8.0954 31.827 23.313-5.9871 10.913-12.34 14.344-29.611 15.988-25.194 2.3988-25.503 6.996-1.3581 20.23 9.3284 5.113 6.6458 14.372-3.534 12.197zm-109.66-251.18c-7.4594-1.8249-14.273-6.2081-23.438-15.078-13.145-12.722-18.14-14.793-22.272-9.2325-2.5975 3.4951-1.5192 5.7442 4.919 10.26 6.3528 4.4562 7.1758 5.8999 5.137 9.0115-7.6893 11.735-26.127-3.766-23.024-19.358 3.8346-19.27 33.76-19.617 43.473-0.50468 1.6868 3.319 14.444 10.516 16.942 9.5574 1.2772-0.49009 1.5473-2.0936 1.5658-9.2936 0.03651-14.208 1.7852-18.545 7.4776-18.545 5.2169 0 6.1225 1.775 4.904 9.6126-0.65502 4.2132-0.77421 8.1303-0.29792 9.791 5.5206 19.249 0.13237 27.576-15.387 23.779zm646.88-20.755c-8.25-0.39844-19.433-0.90345-24.852-1.1223-11.195-0.45207-15.525-2.0242-16.523-5.9988-1.2494-4.9782 3.1881-8.0922 10.437-7.3241 2.5781 0.27317 13.547 0.7008 24.375 0.95026 31.653 0.72926 38.199 2.2883 37.233 8.8679-0.86756 5.9109-1.6481 6.0287-30.67 4.627zm-29.062-25.32c-15.344-7.8777-17.657-28.789-4.2423-38.341 8.2412-5.8682 14.795 1.7047 7.9923 9.2348-7.4559 8.2528-2.8074 19.533 7.6907 18.662 6.5239-0.54101 8.7156-2.54 8.7156-7.9494 0-4.5716 1.9341-9.1142 4.2608-10.007 4.6975-1.8026 7.9268 0.92292 7.9268 6.6901 0 3.5519 1.7682 6.79 3.7076 6.79 0.41865 0 0.98184 0.84375 1.2515 1.875 0.34414 1.316 1.2851 1.8788 3.1562 1.8878 1.4662 8e-3 3.5913 0.26096 4.7224 0.56426 7.4543 1.9989 8.9472-8.7563 2.1623-15.577-5.0999-5.1268-5.4203-6.0366-3.2281-9.1664 3.2153-4.5905 12.982-1.6892 16.917 5.0254 9.5168 16.239-5.1802 36.932-22.034 31.023-8.3457-2.9265-13.373-2.9983-18.807-0.26882-6.8756 3.4534-12.859 3.3223-20.192-0.44244zm-498.05-233.59c-1.947-2.4295-6.9081-14.982-6.4221-16.248 0.27887-0.72671 0.0594-3.7424-0.48755-6.7015-1.1624-6.2879 0.70104-16.919 4.4608-25.448 3.7684-8.5493 2.4691-14.18-3.2721-14.18-4.0791 0-8.5752 4.5027-10.815 10.831-1.795 5.0715-2.2406 5.6014-4.9302 5.8625-11.223 1.0896-5.4478-19.628 7.2818-26.122 18.644-9.5116 31.384 7.8914 22.376 30.567-2.9343 7.3866-3.2542 9.2106-2.9521 16.831 0.30676 7.7384 0.76281 7.8942 9.6799 3.3068 4.3016-2.213 8.6919-4.8115 9.7564-5.7745 3.3924-3.0691 8.1708-1.7558 9.2495 2.5423 0.86233 3.4358-1.0344 5.9236-7.8479 10.294-3.1682 2.0319-9.0614 6.3312-13.096 9.5538-7.326 5.8516-10.989 7.1742-12.982 4.6875zm359.43-13.599c-23.154-12.884 8.5776-69.011 34.831-61.609 10.015 2.8237 17.602 13.506 15.282 21.515-2.9957 10.342-4.5917 13.993-9.0931 20.797-11.751 17.764-29.105 25.927-41.02 19.296zm22.379-16.401c3.6476-3.7383 7.3637-8.4844 8.2582-10.547s2.4595-5.3101 3.4781-7.217c5.8338-10.922-2.5006-21.671-10.941-14.111-19.123 17.126-25.687 38.672-11.781 38.672 4.1705 0 4.6342-0.2869 10.986-6.7969zm-342.73-0.63101c-4.5676-4.5676-3.1097-7.8704 4.2805-9.6972 3.727-0.92129 4.9469-1.7275 6.005-3.9687 0.73031-1.5469 1.7369-2.9707 2.2369-3.1641 4.4367-1.7157 6.1023-9.4659 2.454-11.418-1.6898-0.90434-2.3247-0.6547-4.4531 1.7509-9.528 10.769-27.716 4.5146-33.893-11.655-8.1925-21.444 14.32-38.554 30.787-23.399 17.496 16.102 26.257 43.607 17.396 54.614-8.0831 10.04-18.733 13.018-24.813 6.9378zm2.8647-34.281c6.2062-3.2093 3.3577-15.543-4.3318-18.755-6.7644-2.8264-11.599-0.90735-11.572 4.5935 0.056 11.403 7.8378 18.333 15.903 14.162zm280.1 30.058c-8.4101-3.0013-13.278-8.7845-13.174-15.652 0.11338-7.5162 5.6604-10.407 9.3825-4.8888 4.6198 6.8486 8.3328 9.6905 12.661 9.6905 9.6936 0 12.61-12.829 3.9408-17.335-9.6763-5.0291-5.2006-15.859 5.0332-12.179 6.3085 2.2685 8.9271 1.4326 12.014-3.8352 4.3792-7.4725 8e-3 -12.455-9.2877-10.588-6.6984 1.3452-8.5969 0.2064-7.8037-4.6813 1.6627-10.246 13.899-11.402 26.101-2.467 9.3981 6.8823 7.752 23.59-2.915 29.585-4.3051 2.4196-5.7275 5.1308-6.3615 12.125-1.1217 12.375-6.8243 19.148-17.413 20.679-7.4357 1.0755-7.9436 1.0565-12.177-0.45419zm-317.46 644.24c0.61843-1.1556 3.1161-4.847 5.5503-8.2032 6.3064-8.6948 8.3008-14.868 5.5288-17.112-2.6015-2.1067-24.652-13.834-26.012-13.834-2.9479 0-15.749 21.255-15.031 24.958 1.0051 5.185 27.953 17.948 29.964 14.191zm407.69-12.061c1.8047-1.0819 4.3359-2.9143 5.625-4.0721 1.2891-1.1577 5.0859-3.7247 8.4375-5.7042 3.3516-1.9797 10.734-6.9147 16.406-10.967 30.879-22.06 34.659-25.488 30.278-27.451-1.136-0.509-3.6636-3.2429-5.6169-6.0755-8.9274-12.946-13.616-15.31-19.873-10.021-2.6337 2.2261-8.0581 6.4478-12.054 9.3816-4.8939 3.5931-7.2656 5.951-7.2656 7.2234 0 3.2448 7.5762 17.133 11.114 20.374 4.0974 3.7531 3.3501 6.3178-1.841 6.3178-2.9024 0-3.4132-0.4488-5.8689-5.1563-3.0157-5.7809-10.053-17.812-10.419-17.812-1.1648 0-29.16 17.722-29.9 18.927-0.7572 1.2341 0.13509 3.8182 4.0464 11.719 7.5977 15.346 10.171 17.37 16.932 13.318zm-446.56-7.849c11.564-8.0998 15.237-24.274 6.8735-30.268-21.134-15.146-20.168-15.233-31.169 2.7949-5.2072 8.5333-4.9244 9.7216 3.75 15.759 3.9961 2.7815 9.4969 6.8667 12.224 9.0784 5.588 4.5317 5.606 4.5374 8.3214 2.6355zm-33.281-28.849c1.7187-2.1914 5.7917-7.0593 9.051-10.818 7.1291-8.2204 7.8696-6.1924-6.8621-18.792-14.505-12.406-13.847-12.3-21.058-3.406-12.623 15.569-12.407 16.508 7.3838 32.225 7.2794 5.781 7.557 5.8001 11.486 0.7909zm560.43-25.972c15.143-15.011 15.181-12.746-0.49525-29.422l-7.0805-7.5323-11.634 11.659c-6.3986 6.4123-11.645 12.084-11.659 12.604-0.0239 0.9004 9.3635 15.142 13.174 19.986 0.99066 1.2594 1.8012 3.3025 1.8012 4.5401 0 3.4219 2.0228 1.9156 15.894-11.835zm-586.99-8.6547c6.3882-6.4595 10.12-10.921 9.7182-11.619-10.413-18.082-24.687-24.547-33.471-15.16-12.286 13.13-12.428 11.644 2.6029 27.188 11.682 12.08 8.743 12.137 21.15-0.4082zm614.63-20.386c16.038-18.415 18.437-22.398 14.817-24.597-1.4147-0.8595-6.58-4.5555-11.478-8.2131-11.635-8.6881-10.931-8.4864-14.648-4.196-6.9795 8.0557-18.165 22.842-18.165 24.014 0 0.3958 2.0039 2.96 4.4531 5.6982 2.4492 2.7383 6.758 7.5942 9.575 10.791 6.4865 7.3614 5.8676 7.5015 15.446-3.497zm-647.22-7.7998c3.6703-3.2226 8.525-7.125 10.788-8.6718 5.0553-3.4554 5.0603-3.6217 0.28167-9.3922-2.1271-2.5687-6.8075-8.7836-10.401-13.811-7.3264-10.25-7.4934-10.325-13.645-6.0924-10.971 7.5478-15.212 12.608-15.212 18.152 0 3.0418 17.909 25.675 20.316 25.675 0.65906 0 4.2013-2.6367 7.8716-5.8594zm669.47-20.724c20.909-28.809 21.441-31.53 7.3461-37.577-3.3516-1.4379-7.8564-3.6213-10.011-4.852-5.1944-2.9675-5.1474-2.9815-9.0626 2.6842-1.8707 2.707-5.7273 8.243-8.5702 12.302-6.8998 9.8518-6.4045 11.768 4.8388 18.726 2.1527 1.3322 5.7386 4.2699 7.9688 6.5282 4.7762 4.8368 5.4291 5.0275 7.4899 2.1882zm-702.38-9.9581c1.7279-0.9247 16.576-11.691 20.366-14.767l2.0457-1.6604-7.4425-12.656c-8.884-15.108-8.849-15.077-13.592-11.854-2.0066 1.3635-4.2 2.4791-4.8743 2.4791-3.5499 0-16.151 8.5632-16.151 10.976 0 1.6159 3.0599 7.6496 7.0086 13.82 1.6668 2.6046 4.4017 6.9505 6.0775 9.6575 3.1886 5.1507 3.7648 5.5025 6.5623 4.0053zm363.28-11.672c0.94647-0.7527 1.3985-5.5918 1.8014-19.286 0.29582-10.055 0.77115-19.547 1.0563-21.094 0.74276-4.0293-7.6244-8.9071-15.278-8.9065-11.03 1e-3 -50.943-16.571-69.431-28.828-8.9428-5.9288-12.48-5.379-5.9959 0.93226 8.0052 7.7924 20.754 15.744 29.062 18.126 6.4154 1.8395 0.26931 3.2056-12.388 2.7536-16.569-0.5918-24.847-3.6447-42.375-15.628-4.8617-3.3237-7.3289-3.5349-6.5314-0.5591 0.31092 1.1601 0.57106 2.7838 0.5781 3.608 0.0219 2.5657 13.437 10.788 22.105 13.548 7.3687 2.3463 9.6972 3.6332 8.5856 4.7448-1.564 1.564-29.593 0.4008-34.839-1.4458-6.6707-2.3481-7.6657-1.706-5.1707 3.3369 3.3601 6.7913 1.195 8.4983-5.1991 4.0991-2.2483-1.5469-4.4337-2.8151-4.8564-2.8183-0.42272 0-1.8769-0.5841-3.2316-1.2909-4.2606-2.2231-17.783-6.427-18.456-5.7377-2.6465 2.7103 34.1 26.52 51.385 33.295 2.8346 1.111 5.5836 2.3767 6.1088 2.8126 1.9481 1.6167 17.092 7.225 23.894 8.8482 3.8672 0.923 9.7734 2.4494 13.125 3.3922 7.0416 1.9807 20.977 4.31 33.699 5.6328 4.8705 0.5064 9.066 1.1313 9.3234 1.3888 0.90591 0.9059 21.779 0.068 23.027-0.9241zm21.018-0.4718c6.3068-1.2183 6.3819-2.3872 1.5102-23.502-1.2492-5.4141-3.5251-15.71-5.0577-22.88-2.7109-12.682-3.7292-14.884-6.6448-14.369-1.2063 0.2132-1.4158 3.7782-1.4734 25.077-0.0369 13.656-0.36967 27.057-0.73949 29.781-0.97324 7.1686 0.9849 8.0988 12.405 5.8929zm28.919-6.2074c4.012-1.3164 11.091-3.427 15.732-4.6903 12.019-3.2717 30.147-12.436 29.567-14.948-0.23816-1.0312-0.44909-8.9747-0.46875-17.652-0.0431-19.037 0.33557-18.441-11.725-18.441-15.907 0-17.67-9.3804-21.512-114.45-0.80197-21.934-0.5874-21.171-6.1976-22.013-8.3522-1.2525-9.9006 2.9041-12.664 33.996-0.51351 5.7781-1.1233 11.052-1.3551 11.719-0.60781 1.7494-5.9787 56.195-6.9547 70.5l-0.82545 12.099-3.4609 3.2651c-2.6133 2.4655-3.3167 3.7499-2.8721 5.2445 0.32385 1.0885 0.93406 4.0886 1.356 6.6667 0.42196 2.5782 1.2191 6.586 1.7714 8.9063 0.55231 2.3203 1.6088 7.3828 2.3477 11.25 2.6619 13.931 6.5837 29.545 7.5905 30.22 1.4742 0.9883 1.6356 0.9603 9.6703-1.6757zm-7.0023-9.3068c-4.5022-3.2685-1.7198-10.39 4.4444-11.376 7.8176-1.2501 9.9407-9.0845 3.6715-13.548-6.4577-4.5983 1.0317-11.056 8.8245-7.6092 12.455 5.5095 13.191 25.552 1.1681 31.794-4.2701 2.2169-15.445 2.6736-18.109 0.7399zm321.29-2.5969c5.0072-7.8338 15.978-28.671 15.978-30.347 0-0.7114-0.76894-1.2934-1.7087-1.2934-1.5976 0-14.43-6.0844-21.665-10.272-4.1615-2.4088-4.5114-2.0846-10.427 9.6608-2.6367 5.2347-6.0582 11.506-7.6033 13.936-4.0674 6.3971-3.6508 7.041 8.4628 13.078 5.859 2.92 11.111 5.7676 11.672 6.3282 1.6364 1.6364 3.839 1.1826 5.2916-1.0901zm-741.45-9.7296c4.3433-2.3865 9.4999-5.1487 11.459-6.1381 5.1463-2.5991 5.114-2.8908-1.9586-17.725-3.5447-7.4344-6.9286-14.677-7.5197-16.095-1.2886-3.0909-2.3843-3.1743-8.3029-0.6316-2.492 1.0707-7.484 2.9703-11.093 4.2214-11.966 4.148-11.168 10.167 5.1815 39.066 1.4202 2.5103 3.649 2.0187 12.234-2.6984zm496.25-9.2419c5.852-3.5239 16.843-12.632 16.118-13.356-0.24359-0.2435-3.1066 0.4148-6.3622 1.463-3.2556 1.0481-7.1849 2.167-8.7318 2.4862-3.8911 0.8032-6.975 3.5856-8.0226 7.2384-1.8834 6.567-0.84177 6.8899 6.9981 2.1689zm-1.3193-21.037c19.992-2.301 38.208-11.162 37.11-18.053-0.30239-1.8987-0.1271-4.5639 0.38955-5.9228 1.7893-4.7063-0.56318-13.037-3.0895-10.94-0.74655 0.6196-4.4701 2.2257-8.2746 3.5692s-9.2375 3.2745-12.073 4.2912c-5.6326 2.0194-18.902 3.9748-24.844 3.6611-18.448-0.97387-21.185-0.32025-23.273 5.5586-2.1376 6.0194-2.3072 5.8858 8.2236 6.4859 9.9151 0.5652 12.705 2.0584 12.705 6.8001 0 3.8157 1.6419 6.553 3.5727 5.9564 0.87095-0.2691 5.1695-0.902 9.5523-1.4065zm267.91-2.1787c3.3808-7.2159 11.465-30.301 11.465-32.74 0-2.8745-4.5428-4.8625-19.08-8.35-10.885-2.6115-10.211-3.007-14.137 8.2922-1.3858 3.9878-3.9672 11.03-5.7365 15.65-1.7692 4.6196-2.9043 8.7107-2.5224 9.0913 7.8756 7.848 27.625 13.15 30.011 8.0562zm-781.62-11.348c18.342-6.36 17.575-5.1409 12.037-19.145-1.4836-3.7517-2.6995-7.3376-2.7019-7.9688-5e-3 -1.3264-4.1281-11.686-4.9966-12.555-0.32056-0.32053-4.2835 0.69234-8.8066 2.2509-4.523 1.5586-9.9757 3.3118-12.117 3.896-2.1413 0.58425-4.7923 1.7959-5.8911 2.6925l-1.9978 1.6303 2.8595 8.9062c1.5727 4.8984 3.4855 10.236 4.2505 11.86 0.76506 1.6249 1.391 3.2982 1.391 3.7187 0 1.4098 3.0603 8.7959 3.643 8.7924 0.31667 0 5.8652-1.8376 12.33-4.0793zm408.37 2.6874c0.2945-0.7674 0.10224-3.4041-0.42725-5.8594-0.52949-2.4552-1.4484-7.2062-2.042-10.558-1.9858-11.212-3.0763-15.446-4.8255-18.736-0.95533-1.797-1.737-4.0182-1.737-4.936 0-0.91772-0.61952-4.0881-1.3767-7.0451s-2.279-10.017-3.3817-15.689c-1.1027-5.6719-2.8105-14.32-3.795-19.219-0.98455-4.8984-2.1851-11.438-2.6678-14.531-4.2061-26.954-5.8897-30.172-12.246-23.406-1.31 1.3945-4.8619 3.1744-8.6009 4.3101-7.0525 2.1422-8.3077 4.3946-4.413 7.9193 1.076 0.97374 3.2041 3.6194 4.7292 5.8791 3.3793 5.0071 9.4235 12.303 14.238 17.186 4.0304 4.0882 4.2224 6.715 0.52208 7.1456-2.8052 0.3265-10.419-6.6991-17.664-16.298-2.3031-3.0517-5.6781-7.2658-7.5-9.3646s-4.0312-5.1574-4.9096-6.7969l-1.597-2.9808h-11.872c-13.899 0-13.097-1.7234-6.8953 14.809l3.9726 10.59 9.4629 8.572c11.308 10.244 20.687 20.162 21.509 22.747 0.53628 1.6857 4.7024 4.8705 11.711 8.952 1.3712 0.79856 3.304 3.1189 4.2952 5.1562 2.0325 4.1781 3.0174 4.9417 8.9792 6.9621 4.4304 1.5014 6.2769 4.9593 3.5976 6.7372-3.4905 2.3163-15.785-1.1838-15.785-4.4937 0-0.68165-1.0473-1.9255-2.3272-2.7642-1.28-0.83869-3.2192-2.968-4.3093-4.7318s-3.1014-3.8066-4.4696-4.5396c-2.9968-1.6054-8.8669-7.24-20.769-19.936-16.52-17.622-20.625-22.875-20.625-26.396 0-1.6201-9.084-19.838-10.622-21.303-1.5096-1.4376-13.176-3.1746-21.322-3.1746h-6.7397l0.4729 3.5257c5.8555 43.656 64.167 102.79 109.72 111.27 3.4911 0.6496 6.62 1.4537 6.9531 1.7869 1.0171 1.0171 2.1988 0.6793 2.7625-0.7897zm154.74-11.495c3.872-4.7433 6.6578-8.5028 15.017-20.266l5.2412-7.3751-0.71225-16.531c-0.39174-9.0922-0.85253-19.906-1.024-24.031-0.17146-4.125-0.56676-12.141-0.87846-17.812-0.31169-5.6719-0.71193-27.681-0.88943-48.908-0.37061-44.323-0.47867-44.795-8.2915-36.162-0.91625 1.0124-4.231 2.8486-7.3661 4.0803-4.0444 1.589-5.9741 2.9204-6.6432 4.5833-0.97199 2.4158-1.3864 143.64-0.44572 151.88 0.26495 2.3203 0.52106 6.6445 0.56914 9.6094 0.1061 6.5437 0.75499 6.6559 5.4229 0.9375zm-140.92-12.431c3.3494-21.747 2.9435-23.95-4.8239-26.178-4.4657-1.2807-5.292 2.7691-2.6728 13.099 0.71387 2.8154 1.7977 8.6408 2.4085 12.945 1.9191 13.524 3.0212 13.553 5.0881 0.13331zm78.862 2.8146c25.057-1.5957 33.407-4.5863 47.211-16.909 2.1204-1.8927 2.8468-13.495 0.96282-15.379-0.74036-0.74034-14.173 2.8158-21.092 5.5837-3.2116 1.2848-7.4851 2.3361-9.4967 2.3361s-5.5256 0.62062-7.8088 1.3792c-2.6078 0.86634-8.8433 1.4764-16.77 1.6406l-12.619 0.26147-0.63488 3.1081c-0.34918 1.7095-1.512 4.0418-2.5841 5.183-2.3427 2.4937-4.9563 9.4948-4.2407 11.36 0.96966 2.5268 5.8654 2.7866 27.072 1.4362zm298.91-25.54c5.9271-21.215 5.094-25.078-5.4084-25.078-1.7104 0-4.8742-0.62249-7.0305-1.3833-2.1564-0.76082-6.0953-1.4991-8.7532-1.6406l-4.8324-0.25732-0.68503 3.2812c-1.8907 9.0562-2.6757 12.376-3.0817 13.033-5.9088 9.5607-3.4214 16.451 6.9746 19.32 4.8984 1.3517 10.383 3.0218 12.188 3.7112 6.8783 2.6278 6.8041 2.7045 10.629-10.986zm-818.22 3.0568c22.95-5.1132 22.092-4.3203 18.227-16.846-1.6047-5.2-3.1663-11.554-3.4702-14.121-0.97509-8.233-0.83161-8.1972-16.29-4.0656-12.974 3.4675-13.544 3.7216-13.826 6.1591-0.39947 3.4639 5.5576 30.739 6.7136 30.739 0.15088 0 4.0414-0.83925 8.6457-1.8651zm531.11-8.9083c9.4169-1.6164 12.076-2.3906 23.82-6.9345 12.458-4.8202 12.142-4.3574 12.45-18.269 0.33073-14.957 0.62044-14.795-13.674-7.6543-17.672 8.828-32.907 12.937-44.517 12.005-9.7179-0.78006-10.133-0.52032-15.161 9.4759-5.0925 10.125-5.1651 12.03-0.49399 12.954 5.2106 1.031 27.94 0.0769 37.576-1.5768zm-86.852-4.1502c1.3456-2.1772 3.5524-18.458 3.8227-28.201 0.16448-5.9297 0.96399-13.945 1.7767-17.812 2.3538-11.201 2.0923-14.44-1.099-13.612-6.9108 1.7926-22.03-0.0266-27.982-3.367-5.0069-2.81-6.0059-2.7276-5.9973 0.49501 0.0128 4.815 1.9828 8.9946 4.9603 10.524 1.6518 0.84849 5.1126 3.7304 7.6907 6.4043s6.375 5.9485 8.4375 7.277c7.6986 4.9588 10.406 7.8157 9.0056 9.503-2.3428 2.8229-7.666 1.923-13.244-2.2391-2.7754-2.0707-5.4883-3.6134-6.0287-3.4281-1.9192 0.65811 0.15417 19.835 2.7318 25.267 2.5242 5.3195 14.166 12.038 15.926 9.1903zm172.38-13.018c3.2155-3.5531 15.611-47.073 14.346-50.369-0.29647-0.77262-1.5685-1.7962-2.8268-2.2746-1.8577-0.70629-2.436-1.805-3.0766-5.8453-1.6065-10.133-7.1411-6.2392-9.3329 6.5658-0.67865 3.9648-2.1572 9.2024-3.2857 11.639-2.017 4.3551-2.0254 4.5507-0.49598 11.511 0.98782 4.4955 1.5559 11.349 1.5559 18.773 0 11.851 0.36903 13.035 3.1156 10zm209.51-12.113c3.8118-20.66 3.6523-24.632-0.9899-24.632-1.7134 0-8.1037-0.65421-14.201-1.4538-13.127-1.7216-11.732-2.6495-13.826 9.1929-3.0024 16.975-2.3603 17.916 13.943 20.449 4.0131 0.62348 8.562 1.4351 10.109 1.8037 3.7709 0.89836 3.8197 0.84561 4.9648-5.36zm-303.91-1.117c1.2567-0.98849 4.0654-2.0824 6.2416-2.4309 5.0738-0.81258 20.785-6.5915 25.051-9.2141 1.8047-1.1096 5.2516-2.9338 7.6598-4.0537 5.7814-2.6885 6.4053-4.1554 6.3883-15.021-0.0209-13.388-1.8132-13.59-18.267-2.0649-9.1126 6.3831-36.722 11.923-46.788 9.3887-9.0516-2.2792-10.56-1.2871-14.184 9.3312-3.6556 10.71 1.4502 17.439 10.815 14.253 1.4765-0.50233 3.5578-0.37179 5.625 0.35279 5.3363 1.8705 14.763 1.5782 17.458-0.54129zm-525.11-2.9933c4.125-0.96733 8.7656-1.7682 10.312-1.7797 4.5971-0.0342 5.4425-1.0538 4.3517-5.2485-0.52206-2.0075-1.4316-8.7125-2.0211-14.9-1.6231-17.036-1.3153-16.717-13.282-13.727-10.845 2.7101-18.579 6.4906-18.579 9.0814 0 4.2858 2.9019 25.333 3.7809 27.422 1.0207 2.4263 1.6102 2.3939 15.438-0.84881zm833.56-30.6c0.3858-2.4492 0.728-9.0938 0.7606-14.766l0.059-10.312-13.858-0.0411c-17.293-0.0513-16.707-0.49793-17.636 13.436-0.83034 12.453-1.1886 12.042 12.363 14.197 17.482 2.7804 17.476 2.7813 18.31-2.5139zm-302.41-0.28335c9.7966-2.2237 13.442-3.489 16.357-5.6765 2.0625-1.5482 4.9744-3.5301 6.4708-4.4041 3.55-2.0735 15.031-13.388 15.91-15.68 0.37574-0.97916 0.19207-10.128-0.40813-20.332-1.2689-21.571-0.71832-24.046 5.0634-22.765 10.282 2.2792 23.379-5.7939 29.694-18.304 5.2185-10.338 3.1764-34.664-2.91-34.664-5.2723 0-10.453 7.3739-9.6026 13.667 1.1665 8.6279-5.2585 21.021-10.898 21.021-2.7 0-4.1015 0.70867-6.6516 3.3634-3.8177 3.9745-9.2208 6.9491-12.622 6.9491-1.3391 0-4.2673 0.46146-6.5072 1.0255-3.2557 0.81979-4.7021 0.74743-7.212-0.36085-6.3017-2.7826-60.421-1.8411-68.73 1.1956-7.8181 2.8574 14.679 4.2211 39.555 2.3977 30.12-2.2077 45.08 8.1556 44.606 30.898-0.59798 28.652-15.592 38.85-57.187 38.895-10.367 0.0112-13.337 0.85821-9.747 2.7798 6.793 3.6355 18.788 3.6338 34.819-5e-3zm-536.23-10.332c4.8621-1.0687 10.485-2.1874 12.496-2.486l3.6555-0.54285-0.57784-14.077c-0.68748-16.748 0.15175-15.608-11.447-15.551-5.142 0.0252-11.312 6e-3 -13.712-0.0443-6.7892-0.14025-10.245 19.453-5.9027 33.472 0.52335 1.6898 5.3952 1.4472 15.488-0.77123zm421.59-3.7494c13.303 0.48011 28.334-21.896 25.588-38.091-4.5451-26.805-53.339-34.338-59.495-9.1849-0.37861 1.5469-1.7609 5.2152-3.0718 8.1519-8.1276 18.208 10.26 42.67 29.702 39.513 1.8047-0.29303 5.0796-0.46787 7.2775-0.38855zm-20.009-18.818c-9.5767-4.6469-4.586-27.237 6.4752-29.309 1.1204-0.20996 4.1709-0.81651 6.7788-1.3479 9.7407-1.9847 20.102 3.7172 20.102 11.062 0 4.7134-7.0948 7.3776-11.668 4.3813-4.458-2.921-8.0199 0.39143-8.0199 7.4581 0 5.5102-8.4338 10.295-13.669 7.7554zm-19.305 16.547c0.2112-0.21121-1.0917-2.108-2.8953-4.2152-6.9332-8.0998-8.8123-22.059-4.5368-33.704 4.58-12.473 8.6634-10.997-35.556-12.856-33.027-1.3881-45.906 11.372-39.452 39.087 2.5528 10.963 2.0253 10.674 20.046 10.986 8.3664 0.14485 18.165 0.64277 21.774 1.1065 6.108 0.78475 39.766 0.44839 40.62-0.40595zm-56.999-13.122c-12.994-3.1386-12.765-16.039 0.39798-22.432 5.5086-2.6752 8.1959 1.5051 3.5595 5.537-2.087 1.8149-2.3859 2.5562-1.5689 3.8911 2.1309 3.4821 8.8345 2.9939 8.8345-0.64341 0-1.9719 4.7327-4.0644 6.0558-2.6774 9.2872 9.736-1.6758 20.093-17.279 16.324zm126.74 11.113c2.4517-0.4053 3.6697-1.1693 4.0938-2.5678 0.33207-1.095 2.1211-4.5145 3.9756-7.599 5.5372-9.2098 6.552-19.972 2.6977-28.611-0.80522-1.8047-1.6925-4.0195-1.9718-4.9219-1.2663-4.0914-5.4817-1.959-4.6334 2.3438 2.0885 10.593-0.46186 23.427-6.7162 33.797-4.8323 8.0121-4.5866 8.7391 2.5543 7.5586zm77.604-2.1055c20.222-2.0849 23.26-3.4054 26.683-11.598 2.0403-4.8832 2.0271-21.546-0.0184-23.244-0.80322-0.66662-2.0537-2.6319-2.7788-4.3673-2.216-5.3036-17.703-9.18-27.979-7.0029-12.575 2.6641-19.987 3.2239-36.917 2.7878-21.458-0.55281-20.475-0.8279-17.564 4.9175 4.1495 8.1886 3.4523 19.318-1.8444 29.444-5.0432 9.6413-5.5437 9.1778 10.723 9.9318 22.446 1.0404 32.954 0.85664 49.694-0.86933zm-45.75-4.047c-1.6131-1.6131-1.3898-4.3078 0.63553-7.6706 4.2566-7.0676 4.2684-18.543 0.0243-23.657-2.8857-3.4771 3.8306-5.8801 6.902-2.4695 2.8772 3.1949 5.5738 11.707 4.9746 15.703-1.8263 12.179-8.6306 22-12.536 18.094zm40.678-6.1235c-11.397-1.6919-12.098-16.632-1.0331-22.008 5.9087-2.8707 9.335 0.365 5.6065 5.2946-3.4587 4.5728 0.20744 9.107 3.7815 4.6769 2.7702-3.4337 5.1933-2.3925 6.4105 2.7544 1.7531 7.4128-3.8079 10.908-14.765 9.2816zm315.26-2.9685c1.3723-0.86934 1.0544-38.078-0.3553-41.58-0.8359-2.0766-1.9842-2.0561-13.116 0.23438-5.012 1.0312-10.285 1.875-11.718 1.875-5.9943 0-6.5537 1.6938-5.725 17.333 0.40941 7.7284 0.57441 14.702 0.36657 15.497-0.81966 3.1346 1.396 6.4053 4.6075 6.8014 6.0962 0.75192 24.682 0.63708 25.94-0.1603zm-740.45-15.59c6.0497-3.1284 6.7083-12.94 1.1614-17.303-3.2026-2.5191-13.389-2.7036-15.806-0.28622-10.607 10.607 1.0574 24.616 14.645 17.589zm-35.657-1.8586c4.7427-2.4525 5.8561-6.7633 3.3166-12.841-2.8348-6.7846-9.2832-8.0047-13.788-2.6088-6.8645 8.2225 1.2617 20.212 10.471 15.45zm-48.622-2.6075c4.8078-8.9835 2.5655-27.856-3.308-27.842-2.1283 5e-3 -8.407-0.70981-13.953-1.5888-6.3144-1.0008-10.403-1.2671-10.94-0.71247-0.97048 1.0029-3.2918 28.937-2.5626 30.837 0.90538 2.3594 29.474 1.7152 30.763-0.69362zm440.01-16.602c0.93327-1.0312 2.8626-1.875 4.2874-1.875 3.8557 0 5.4776-0.87831 6.9773-3.7784 2.644-5.1129 15.069-6.8206 60.454-8.309l17.344-0.56879 1.057-14.531c2.3261-31.979 8.4682-53.757 21.051-74.64 2.5216-4.1849 5.2233-8.1389 6.0038-8.7867 3.6926-3.0646-6.2628-15.075-21.586-26.042-3.0738-2.1999-7.909-5.8702-10.745-8.1563-14.096-11.363-54.553-30.224-63.028-29.384-3.4579 0.34301-3.7169 1.0048-8.1855 20.915-1.6202 7.2188-4.167 17.133-5.6595 22.031s-3.8298 12.703-5.1938 17.344c-1.364 4.6406-3.0583 10.125-3.7652 12.188-2.4972 7.2868-9.4893 32.844-9.6182 35.156-0.0719 1.2891-1.9746 8.0391-4.2283 15s-4.8455 16.031-5.7596 20.156-2.717 9.9108-4.0065 12.857c-2.9513 6.7438-2.6416 7.4526 4.3744 10.011 3.6439 1.3286 7.8653 3.9334 11.575 7.142 6.7461 5.8354 6.4366 5.7184 8.6513 3.2712zm19.242-22.59c-44.16-9.3175-22.936-69.79 24.062-68.56 20.818 0.54479 42.294 27.914 34.026 43.364-4.2613 7.9623-16.074 19.595-24.128 23.76-1.4912 0.77114-6.478 1.6564-11.082 1.9672s-9.8471 0.69593-11.652 0.85582c-1.8047 0.1599-6.8566-0.46366-11.226-1.3857zm14.678-7.7824c20.033-4.2992 24.814-23.369 9.2016-36.702l-5.4388-4.645-10.404 0.0911c-14.734 0.12905-20.956 3.683-24.342 13.904-5.8455 17.646 10.201 31.812 30.983 27.352zm30.455-13.921c4.6822-6.8948 5.1346-12.884 1.5198-20.122-2.2658-4.5368-12.908-15.272-15.14-15.272-0.79078 0-3.4141-1.0508-5.8295-2.3351-3.4497-1.8342-5.2199-2.2163-8.2527-1.7814-6.3283 0.90753-10.892 2.2547-10.892 3.2151 0 0.96217 0.39621 1.0267 8.5906 1.3988 17.964 0.81567 28.774 16.075 25.718 36.299-0.86927 5.7512-0.4871 5.6261 4.286-1.4027zm309.69 32.408c10.445-1.803 9.9736-1.2911 8.9321-9.7017-4.2469-34.294-4.2399-34.283-19.902-29.057-15.73 5.2486-15.843 5.3666-14.224 14.839 0.678 3.9665 1.7178 11.009 2.3108 15.649 1.5645 12.244 1.0148 12.046 22.884 8.2706zm-413.79-8.7501c0.74209-5.3214 2.9187-13.119 6.4735-23.19 1.5309-4.3372 2.7834-9.3014 2.7834-11.031 0-1.73 0.455-4.3331 1.0111-5.7847 0.55612-1.4515 1.9944-6.2251 3.1962-10.608 1.2018-4.3828 5.9959-20.21 10.654-35.171 4.6576-14.961 8.8689-28.883 9.3583-30.938 0.48945-2.0545 3.0856-11.54 5.7693-21.079 7.9163-28.139 9.3865-33.772 9.3865-35.963 0-1.1428 0.87976-3.7491 1.955-5.7917 3.3977-6.4544 11.311-35.673 15.985-59.026 0.61929-3.0938 1.8381-7.5234 2.7084-9.8438 0.87032-2.3203 1.8771-5.4397 2.2373-6.932l0.65492-2.7133-5.0845 0.59759c-13.494 1.5859-21.978-10.266-10.269-14.345 10.465-3.6457 20.072-13.861 24.71-26.275 1.0636-2.8469 3.4318-8.336 5.2627-12.198 5.3259-11.234 5.279-13.508-0.31689-15.353-18.547-6.1148-82.459-11.675-110.03-9.5725-20.279 1.5464-31.04 2.6522-37.838 3.8885-4.0531 0.73705-7.4884 1.3401-7.6341 1.3401-0.14569 0-0.51857 0.66109-0.82863 1.4691-1.3332 3.4743 9.9522 41.956 13.454 45.875 0.92141 1.0312 2.1768 2.8468 2.7898 4.0345 1.5438 2.9914 6.4795 5.8015 10.197 5.8057 10.304 0.0116 7.5043 13.403-3.466 16.579-6.0023 1.7378-6.6906 2.5978-6.1265 7.6548 0.71753 6.4324 4.1959 25.49 5.2453 28.738 0.4997 1.5469 1.5124 6.6094 2.2504 11.25 4.1894 26.343 3.5004 25.262 14.926 23.408 25.193-4.0879 70.86-0.52379 71.561 5.585 1.3525 11.787-7.193 22.444-14.752 18.399-7.0496-3.7728-42.514-6.1418-50.246-3.3564-2.0625 0.74305-5.2804 1.3695-7.1508 1.3921-4.7935 0.058-5.6444 1.4748-4.5707 7.6104 2.7961 15.979 6.8695 34.71 7.9164 36.404 0.63392 1.0257 2.4169 11.739 6.178 37.12 1.0697 7.2188 2.9988 17.133 4.287 22.031s2.7198 11.648 3.1815 15 1.935 10.945 3.274 16.875c1.339 5.9297 3.0227 14.587 3.7417 19.238 2.1991 14.228 5.7993 18.686 7.1674 8.8763zm-398.9 1.1682c1.7036-1.1002 4.0897-7.6546 4.0897-11.234 0-1.8068 0.68124-7.2816 1.5139-12.166 1.8745-10.997 2.4366-10.374-12.805-14.189-17.244-4.3159-15.568-5.6841-19.189 15.667-2.9864 17.611-2.9811 18.689 0.0984 19.86 4.627 1.7592 24.363 3.3069 26.291 2.0618zm568.43-3.9331c3.4782-3.4781 5.2492-12.008 3.0968-14.915-8.4712-11.439-25.56-8.3144-25.56 4.674 0 8.0314 16.947 15.757 22.463 10.241zm221.3-30.511c3.2155-1.6628 12.288-3.7823 20.019-4.6769l5.4976-0.63611-0.5654-3.5358c-1.0861-6.7922-7.4202-27.723-8.9078-29.436-1.8731-2.1565-5.9218-1.6458-12.694 1.6011-2.6212 1.2568-7.1915 3.4119-10.156 4.7892-5.6838 2.6403-6.2539 3.7254-4.4502 8.4694 0.51721 1.3604 1.988 7.114 3.2683 12.786 3.0394 13.465 2.8954 13.273 7.9882 10.639zm-779.28-12.183c0.68867-2.5781 2.7313-9.4806 4.5392-15.339 3.2351-10.483 3.4616-13.246 1.0867-13.264-0.66071-5e-3 -6.6549-2.5456-13.32-5.6464-6.6655-3.1008-12.47-5.2873-12.898-4.859-0.67508 0.67508-9.5827 29.137-10.79 34.477-0.66082 2.9223 1.2232 3.8912 13.388 6.8855 15.367 3.7823 16.417 3.6507 17.995-2.255zm777.19-29.396c6.558-2.504 12.662-4.8111 13.564-5.1268 2.9468-1.0311 0.68494-10.221-6.7953-27.609-2.7052-6.2882-3.1264-6.2681-17.222 0.82287-15.361 7.7277-14.55 6.3494-10.068 17.119 2.0736 4.9826 4.0528 10.636 4.398 12.562 1.3882 7.7482 1.5983 7.7772 16.123 2.2315zm-765.76-7.8692c0.47609-1.1602 3.0274-7.0889 5.6696-13.175 7.3277-16.879 7.4267-16.689-12.862-24.626-10.723-4.1948-10.29-4.4772-15.91 10.379-7.2278 19.109-7.2495 19.574-1.0067 21.614 2.707 0.88472 6.1875 2.2569 7.7344 3.0492 9.6555 4.9458 15.101 5.8631 16.375 2.7585zm752.21-30.14c4.7342-2.2309 9.7795-4.5323 11.212-5.1141 4.2344-1.72 3.9807-3.1611-3.029-17.206-9.1439-18.321-9.0919-18.265-13.91-14.915-1.3971 0.97138-6.6542 4.1769-11.682 7.1235-5.0282 2.9465-9.3651 5.7178-9.6374 6.1584-0.2723 0.44059 2.7043 7.1891 6.6146 14.997 8.2265 16.425 6.3382 15.598 20.433 8.956zm-730.25-19.169c9.5642-17.379 9.9818-15.598-6.395-27.259-11.712-8.339-10.48-8.499-16.133 2.0939-15.523 29.086-15.359 28.045-4.8912 31.012 2.9044 0.82334 7.9669 2.7339 11.25 4.2458 8.7907 4.0481 8.1755 4.4321 16.169-10.093zm705.83-18.526c7.2867-4.8005 13.416-7.8161 15.95-7.8474 4.6396-0.0572 2.5381-5.1542-9.9619-24.161-9.2774-14.107-7.9821-14.157-25.224 0.96959-8.1185 7.1223-8.2496 6.4666 5.5234 27.624 5.9058 9.0722 5.3392 8.9311 13.712 3.4148zm-689.6-10.212c4.0508-6.2971 8.5453-12.76 12.228-17.584 4.3194-5.6576 1.7736-9.7368-11.137-17.846-2.908-1.8265-5.5696-3.7778-5.9147-4.3362-2.2376-3.6205-9.9685 4.3817-19.705 20.397-6.0346 9.9258-6.0282 10.467 0.15978 13.606 2.4735 1.255 7.4503 4.2335 11.06 6.6189 7.9708 5.2678 9.4315 5.1739 13.31-0.85571zm670.14-30.065c14.439-11.066 14.368-8.9883 0.84101-24.779-11.995-14.002-12.171-14.037-23.822-4.8433-12.82 10.116-12.821 10.32-0.18384 24.794 3.2504 3.7226 6.7395 8.3505 7.7534 10.284 2.4443 4.6614 2.0104 4.815 15.412-5.4556zm-647.25-2.5132c2.5992-2.173 14.606-16.153 15.766-18.357 1.0425-1.9806 0.81375-2.5077-2.441-5.625-1.9752-1.8918-6.4084-6.4982-9.8514-10.236-7.6414-8.2966-6.6502-8.3278-14.876 0.46875-14.052 15.028-16.882 19.636-13.782 22.441 9.9376 8.9906 21.66 14.255 25.184 11.309zm617.71-29.61c16.051-11.922 15.932-10.595 2.1955-24.603-13.66-13.93-20.458-12.985-29.524 4.1031-0.60193 1.1346-1.8712 2.6142-2.8206 3.288-2.802 1.9885-2.223 2.9076 8.7681 13.916 11.996 12.016 10.045 11.715 21.381 3.2956zm-583.16-8.1951c6.5578-6.6069 8.6349-9.2607 7.9688-10.181-1.995-2.7576-12.625-16.203-15.194-19.218l-2.7436-3.2202-2.7318 1.9466c-17.121 12.199-21.832 21.892-14.216 29.244 13.941 13.458 14.926 13.51 26.917 1.4293zm546.88-14.05c2.9788-1.1431 18.606-19.122 18.075-20.795-2.7138-8.5453-28.858-24.735-32.945-20.401-16.005 16.97-16.972 19.911-8.6154 26.201 3.7383 2.8139 9.5391 7.4253 12.891 10.247 5.9425 5.0039 7.7807 5.8276 10.595 4.7477zm-526.44-4.3949c22.341-16.415 21.465-15.206 15.922-21.974-16.401-20.025-14.771-19.092-22.652-12.972-17.115 13.29-20.002 16.954-16.254 20.627 1.1602 1.137 5.0625 5.2778 8.6719 9.2019 7.3127 7.9503 9.4279 8.7066 14.312 5.1177zm30.66-22.969c1.6677-1.418 4.2546-3.2736 5.7488-4.1235 19.421-11.048 19.235-10.84 15.299-17.039-1.6951-2.6694-5.0086-8.4356-7.3632-12.814-5.7578-10.706-4.2425-10.892-25.508 3.1355-13.624 8.9869-13.789 9.3672-7.1326 16.469 2.707 2.8883 6.9254 7.8835 9.374 11.1 5.0723 6.6636 5.4432 6.7902 9.5825 3.2708zm463.18-2.5574c1.4291-2.8245 5.5619-8.3517 9.184-12.283l6.5856-7.1471-3.6816-3.1762c-5.6744-4.8955-25.554-16.583-27.159-15.967-0.77493 0.29737-1.6756 1.2885-2.0014 2.2026-0.93474 2.6219-10.839 19.971-11.708 20.508-2.359 1.458-0.40191 4.3848 5.5461 8.2942 3.4805 2.2876 9.0703 6.059 12.422 8.3811 7.7009 5.3354 7.7014 5.3353 10.812-0.81313zm-426.23-20.007c2.3773-1.4537 8.8576-4.8028 14.401-7.4424 8.8107-4.1959 10.078-5.0916 10.078-7.123 0-4.0713-10.626-26.854-12.525-26.854-1.3285 0-30.409 14.434-31.718 15.743-0.81487 0.81488 3.036 9.3903 9.5596 21.288 1.979 3.6094 3.6314 6.668 3.672 6.7969 0.25623 0.81391 2.7906-0.12055 6.5326-2.4086zm390.33-1.3414c5.4108-6.8081 12.896-19.652 12.896-22.128 0-1.0215-3.5909-3.4896-10.44-7.1756-16.726-9.0018-18.901-9.3986-21.756-3.9684-0.87834 1.6706-2.8349 5.3577-4.3478 8.1936-1.513 2.8359-2.7689 6.5551-2.7909 8.2648s-0.50307 3.9737-1.069 5.0312c-1.4415 2.6935-0.15385 3.7488 12.427 10.184 12.842 6.5691 11.263 6.4018 15.081 1.5978zm-33.237-19.688c1.6602-3.2226 4.488-8.3906 6.2838-11.484 5.5255-9.519 5.5056-9.5437-14.749-18.329-14.139-6.1324-15.628-5.3493-18.542 9.7522-1.0706 5.548-2.4236 11.134-3.0065 12.413-1.6678 3.6603-1.4258 3.815 17.554 11.216 8.4901 3.3105 8.9898 3.1674 12.46-3.5683zm-316.45 2.0098c2.7126-1.086 9.1507-3.5425 14.307-5.4589 11.41-4.2407 11.174-3.3751 5.3941-19.754-5.6508-16.014-2.8333-15.394-27.894-6.1376-15.621 5.7697-15.902 7.015-5.6826 25.122 5.2455 9.2938 5.7046 9.4999 13.876 6.2286zm279.65-12.776c1.596-3.8198 6.1968-21.156 6.403-24.127 0.14883-2.1447-3.9456-4.4388-11.039-6.1855-5.0945-1.2544-6.6352-0.30122-7.6796 4.751-0.26648 1.2891-1.7247 6.4088-3.2405 11.377-4.0023 13.118-3.8435 13.772 3.9386 16.216 7.5532 2.3725 9.9531 1.9528 11.618-2.0318zm-232.38-2.594c5.5887-1.2897 11.992-2.8315 14.228-3.4263l4.0672-1.0814-0.42513-3.8393c-0.72126-6.5138-5.4326-25.334-6.6572-26.594-2.6584-2.7336-36.478 7.2847-36.998 10.96-0.43576 3.0849 4.2397 14.798 7.5061 18.805 1.4619 1.7933 2.658 3.7128 2.658 4.2656 0 3.7503 2.645 3.9045 15.62 0.91031zm191.57-8.5983c0-1.2518 1.2914-7.1149 2.8697-13.029 3.9692-14.873 3.883-14.983-13.493-17.303-3.6964-0.49342-9.6438-1.3314-13.216-1.8623-8.5195-1.2658-9.2028 0.57396-10.269 27.649l-0.11002 2.7932 11.719 2.0603c6.4453 1.1332 13.617 2.4411 15.938 2.9065 4.8594 0.97464 6.5625 0.14023 6.5625-3.2151zm11.388-5.5562c1.0417-4.0738 2.7508-9.4025 3.7979-11.841 2.0151-4.6936 1.7757-7.2842-0.6732-7.2842-1.7472 0-4.2295 5.4479-4.9123 10.781-0.26407 2.0625-0.85633 4.4822-1.3161 5.3772-1.2418 2.4171-2.5525 10.217-1.9714 11.731 0.98492 2.5667 3.1211-1.1221 5.0752-8.7638zm-159.12 5.2928c3.136-0.49172 7.6845-1.1472 10.108-1.4566 5.6439-0.72065 5.846-1.4054 4.4957-15.237-1.8557-19.009-1.2324-18.423-17.133-16.091-15.58 2.2855-15.094 1.2375-9.9465 21.444 3.3514 13.156 2.9907 12.828 12.476 11.341zm106.24-6.8873c7.8932-24.169 3.7475-28.953-25.667-29.621-13.683-0.31072-12.528-1.8037-12.765 16.49l-0.19272 14.818 13.106 1.0432c7.2085 0.57374 15.637 0.99561 18.731 0.9375l5.6246-0.10567 1.1635-3.5626zm-47.398 1.3639c1.1926-1.1441 2.0558-29.817 0.91882-30.52-2.7271-1.6854-37.397-0.23598-40.007 1.6726-1.3574 0.99259-1.3683 1.7554-0.11558 8.102 0.76061 3.8534 1.6615 9.5375 2.002 12.631 0.34048 3.0938 1.26 6.6238 2.0434 7.8444l1.4244 2.2194 16.547-0.6681c9.1008-0.36746 16.835-0.94433 17.187-1.2819zm522.49 402.33c-1.5469-0.83423-4.711-3.1104-7.0313-5.0582-4.1296-3.4666-9.3571-6.1142-17.812-9.0216-3.2906-1.1315-6.4769-1.3228-14.483-0.86954-11.822 0.66928-14.58-0.55553-14.58-6.4762 0-4.5121 1.6197-5.2314 12.397-5.5054 5.5033-0.13993 10.629-0.75508 11.883-1.4261 1.2126-0.64902 5.0776-2.1571 8.5889-3.3514 3.6378-1.2373 9.9389-4.6225 14.648-7.8698 9.919-6.8393 13.504-7.8804 15.683-4.5545 2.8429 4.339 0.5877 7.6233-9.8875 14.399-10.327 6.6799-10.718 7.4051-5.7279 10.611 16.471 10.581 18.442 12.676 16.104 17.114-2.1139 4.0118-4.9775 4.5998-9.7818 2.0088zm-1004.4-24.284c-3.9739-2.7834-4.2801-5.6912-1.1044-10.486 3.2888-4.9652 3.9549-12.163 1.3274-14.343-2.2833-1.895-12.442 3.5986-14.82 8.0143-4.1595 7.7238-15.627 15.288-21.505 14.185-15.702-2.9457-23.446-24.421-12.327-34.184 9.9774-8.7603 16.492-1.6689 8.4633 9.213-4.3992 5.9628-2.4537 11.289 4.1236 11.289 3.5477 0 12.883-8.7658 18.071-16.969 8.3278-13.167 29.294-5.1487 31.853 12.181 1.8597 12.594-7.0879 25.999-14.084 21.099zm950.81-14.041c-2.4615-3.7566-0.8359-6.7958 5.9787-11.177 3.2076-2.0625 8.4783-5.4375 11.712-7.5 5.6102-3.5778 5.8802-3.9222 5.8802-7.5v-3.75l-12.831 0.29437c-13.962 0.32033-17.247-0.80238-16.524-5.6486 0.673-4.5112 7.2411-6.2343 32.636-8.562 2.3203-0.21267 9.1996-1.0957 15.287-1.9624 16.871-2.4018 19.96-0.70316 20.987 11.54 0.6379 7.6089-1.0378 17.192-3.3477 19.145-5.7744 4.882-14.566 6.2682-22.614 3.5657-5.8895-1.9776-6.6049-1.7746-13.293 3.7715-2.4128 2.0008-4.9985 3.6377-5.7458 3.6377s-3.8109 1.4766-6.8079 3.2812c-6.5326 3.9337-9.1751 4.1356-11.318 0.86484zm51.898-25.357c3.7287-5.0993 0.8383-9.7268-6.0755-9.7268-6.7844 0-8.6572 1.1256-8.6572 5.203 0 6.0758 11.105 9.4855 14.733 4.5237zm-1049.4-8.1734-2.5538-2.1967 1.1683-7.4127c0.64259-4.077 1.7442-9.1002 2.4481-11.163s1.7248-6.2485 2.2687-9.3022c2.4074-13.515 13.318-13.939 12.024-0.46724-0.71287 7.419 0.34977 8.1378 13.813 9.3435 6.1875 0.55412 13.148 1.5853 15.469 2.2916 2.3203 0.70622 7.1719 1.9817 10.781 2.8344 8.3575 1.9744 10.785 3.5091 10.767 6.806-0.0334 5.9496-5.888 7.6874-16.392 4.8656-12.688-3.4085-31.137-7.1838-36.319-7.4321-0.38158-0.0183-1.9198 2.6706-3.4182 5.9754-2.2983 5.0688-4.9017 8.0539-7.0241 8.0539-0.26296 0-1.6273-0.98851-3.0319-2.1967zm1011.2-16.008c-13.72-3.1661-19.404-7.5898-25.655-19.967-6.1651-12.208-5.2472-12.834 33.624-22.906 27.24-7.0584 26.136-6.8472 27.457-5.2563 19.344 23.308-4.2252 55.329-35.426 48.13zm12.928-10.821c10.963-2.0791 17.062-7.1505 17.069-14.194 0-4.1774-1.6888-9.2454-3.1351-9.3843-3.6583-0.35146-19.69 2.9162-25.924 5.284-1.8047 0.68544-4.5469 1.5023-6.0937 1.8153-8.2726 1.6737-9.6365 3.8513-6.073 9.6962 3.7476 6.1467 13.328 8.8368 24.157 6.7832zm-984.65-6.641c-13.661-2.8711-29.531-16.651-29.531-25.642 0-1.276-0.41446-3.4102-0.92103-4.7426-1.1874-3.1231 3.1505-11.771 8.5526-17.049l3.7034-3.6189 11.169-0.31202c15.938-0.44524 25.032 2.4188 33.096 10.424 22.17 22.008 5.8435 47.648-26.069 40.941zm20.134-13.823c1.3012-0.94908 3.1412-3.2854 4.0889-5.1919l1.7232-3.4663-2.5002-4.2663c-2.4781-4.2285-7.0783-7.8886-9.9233-7.8953-0.81246-2e-3 -2.4095-0.99593-3.549-2.2089-9.4804-10.091-30.177-3.5043-30.124 9.5876 0.04145 10.225 30.679 20.447 40.284 13.441zm9.397-37.068c-3.3516-1.2022-7.5474-2.9441-9.3241-3.8708-1.7767-0.92671-7.2611-2.9445-12.188-4.4841-22.321-6.9755-25.151-10.578-19.887-25.314 6.6862-18.719 18.159-21.624 31.351-7.9374l4.5211 4.6908 9.0918-0.58866c5.0005-0.32378 11.227-0.85739 13.837-1.1858 5.5325-0.69619 7.911 0.86916 7.911 5.2063 0 3.1673-3.2852 5.6659-7.4496 5.6659-1.5554 0-5.8945 0.46045-9.6424 1.0232-3.7478 0.56279-8.1843 1.2145-9.8588 1.4483-3.5196 0.49137-6.3606 4.7879-5.4817 8.2899 0.64404 2.5661 7.1515 5.5858 15.703 7.2866 6.9532 1.383 9.4079 4.1746 7.7745 8.8413-1.2777 3.6505-7.7452 4.0176-16.357 0.92844zm-19.313-22.427c5.7724-8.9873-2.7553-21.222-9.4042-13.492-4.9007 5.6974-4.0214 11.872 1.9989 14.035 5.2496 1.8864 5.8742 1.8406 7.4053-0.54331zm920.21 9.2945c-5.4102-2.6973-3.3988-10.391 3.2557-12.454 1.0693-0.3314 3.0246-1.3629 4.3452-2.2922 1.3205-0.92931 3.6408-2 5.1562-2.3793 8.2853-2.0737 12.526-5.6561 26.154-22.094 6.6603-8.0333 13.651-9.9225 15.116-4.0849 0.7115 2.8345-0.478 4.956-5.9359 10.587-2.4498 2.5275-5.4305 6.3531-6.6237 8.5014l-2.1696 3.9059 2.5278 0.96105c1.3902 0.52857 3.3365 0.70438 4.3248 0.39067 0.9884-0.31371 2.7349 0.0441 3.8811 0.79509 1.1461 0.75099 3.9731 1.6796 6.2821 2.0636 6.9525 1.1562 9.3546 2.8322 9.3546 6.5273 0 6.9549-4.7253 7.5013-28.125 3.2519-11.145-2.0239-14.764-1.3418-31.934 6.019-2.6982 1.1567-3.7768 1.2145-5.6095 0.30081zm-9.5657-21.323c-4.9343-2.874-2.0459-8.9687 10.239-21.604 15.198-15.632 6.4899-19.656-13.754-6.3566-5.7877 3.8022-13.306 0.73731-11.9-4.8515 0.6825-2.7143 15.458-11.651 25.535-15.444 3.5498-1.3361 8.3677-3.8242 10.706-5.529 14.29-10.417 22.567-11.428 27.239-3.3278 4.2364 7.3448 4.9819 9.8704 5.0603 17.143l0.079 7.299-3.75 3.2311c-3.9977 3.4446-9.3369 5.4442-19.054 7.1365-3.7952 0.66091-6.5859 1.7142-7.5464 2.8484-0.8382 0.98981-3.6334 4.078-6.2116 6.8627-2.5781 2.7846-6.3243 6.9849-8.325 9.3338-3.6865 4.3285-5.3553 4.9824-8.3156 3.2582zm39.538-38.914c6.51-5.4778 1.3417-12.404-6.305-8.4502-6.7482 3.4896-7.4647 7.8334-1.5844 9.6054 5.043 1.5196 4.6404 1.5786 7.8894-1.1552zm-908.37 28.747c-3.6648-1.1635-20.752-10.26-24.176-12.87-1.6955-1.2925-5.9142-3.6222-9.375-5.1773-9.9806-4.4847-13.522-9.1569-10.533-13.898 1.0764-1.7075 14.464-2.7491 20.179-1.57 5.8724 1.2117 13.052-3.8363 9.0101-6.3346-0.45851-0.28338-1.1036-1.5907-1.4335-2.9051s-2.486-5.4208-4.7914-9.1252c-8.8357-14.198-4.1416-18.632 10.688-10.096 4.4493 2.5612 9.8343 5.2676 11.967 6.0144 2.1325 0.74676 5.5075 2.3865 7.5 3.6439s4.6774 2.6134 5.9665 3.0133c9.6365 2.9896 13.653 7.3038 11.401 12.246-1.7474 3.8351-5.1829 3.8912-12.68 0.20697-19.293-9.4815-20.477-9.0121-10.008 3.9685 6.1996 7.6874 3.4804 10.806-9.3077 10.675-5.6886-0.0582-10.343 0.24295-10.343 0.66933 0 1.4246 6.4531 5.1828 15.928 9.2764 8.5048 3.6743 9.3841 4.2869 9.3841 6.5374 0 4.7691-4.2362 7.3557-9.375 5.7242zm848.22-34.054c-4.8516-3.7614-13.948-19.355-14.178-24.304-0.12404-2.6714 0.5384-3.4503 6.5753-7.7316 3.6923-2.6185 8.5439-6.1633 10.781-7.8773 2.2374-1.714 7.654-4.8622 12.037-6.9961 4.3828-2.1339 9.816-5.1134 12.074-6.6211 5.7233-3.822 11.422-5.446 14.185-4.0422 3.6907 1.8756 16.369 24.773 15.339 27.702-2.2322 6.3473-9.931 4.8285-13.724-2.7074-5.2078-10.348-7.2641-11.807-12.688-9.0022-5.8654 3.0331-6.259 4.4174-3.0588 10.757 4.5659 9.0448 3.178 14.183-3.831 14.183-2.7492 0-3.6286-0.70238-8.8337-7.0545-3.992-4.8717-5.6578-5.138-11.333-1.8122-5.137 3.0105-5.1156 3.2551 1.0714 12.211 5.8303 8.4394 5.8815 8.6293 3.2312 11.998-2.0887 2.6555-5.2129 3.1858-7.6476 1.2983zm-815.51-26.324c-1.7477-1.201-5.9787-4.1541-9.4021-6.5625-6.62-4.6572-9.8235-5.5525-29.201-8.161-10.381-1.3975-12.989-3.8391-10.022-9.3831 1.8858-3.5236 4.192-3.9457 14.605-2.6731 12.919 1.5789 12.798 1.7674 7.4817-11.675-2.3624-5.973-4.2952-11.653-4.2952-12.622 0-3.8041 6.9373-6.6354 9.049-3.6932 2.0157 2.8084 8.8218 18.521 10.177 23.496 1.6207 5.9475 11.793 17.466 18.427 20.866 5.5206 2.8293 6.103 6.4174 1.6499 10.164-3.5409 2.9795-4.4495 3.0056-8.4691 0.24346zm784.98-18.629c-1.6804-1.6804-1.3525-3.5611 1.4751-8.4609 3.5272-6.1122 13.605-21.185 16.589-24.812 1.3538-1.6452 5.6069-7.4318 9.4515-12.859 7.4646-10.538 9.6448-12.455 12.452-10.952 5.7337 3.0686 4.9577 6.3893-4.9318 21.105-13.09 19.478-12.699 20.14 7.7855 13.167 16.629-5.66 20.048-6.1174 22.118-2.9593 2.8368 4.3295-2.1019 9.318-10.872 10.981-2.7275 0.51727-9.1952 2.452-14.373 4.2995-5.1775 1.8474-13.093 4.1489-17.591 5.1144-4.4974 0.96546-10.284 2.8231-12.859 4.1281-5.1722 2.6209-7.5506 2.942-9.2448 1.2478zm-734.14-62.792c-4.4451-4.7327-12.986-13.603-18.979-19.711-14.622-14.903-14.72-15.414-4.7782-24.924 14.417-13.79 27.568-11.103 37.304 7.6245 1.9185 3.6901 3.5783 6.8258 3.6885 6.9683 0.11022 0.14251 2.6854 1.1284 5.7225 2.1909s6.155 2.4922 6.9284 3.1772c0.77344 0.68498 2.9986 1.5409 4.9448 1.9021 5.589 1.0372 7.5995 5.8576 3.7689 9.0367-1.118 0.92785-2.5454 0.8327-7.1643-0.47758-3.1725-0.89997-7.2447-1.9887-9.0494-2.4194-1.8047-0.43068-5.2782-1.3423-7.7188-2.0258-4.358-1.2204-4.4883-1.1941-7.2656 1.4667-3.8359 3.675-3.7943 3.7948 4.2032 12.11 9.2328 9.5993 9.4206 13.686 0.62881 13.686-4.023 0-4.4044-0.26828-12.234-8.605zm-1.0738-25.797c2.7481-3.4937 2.3381-9.6344-0.74532-11.164-1.1961-0.59314-2.802-1.9741-3.5688-3.0688-2.3928-3.4162-11.6 0.69427-11.6 5.1787 0 5.4943 12.929 12.849 15.914 9.0536zm668.96 14.431c-2.6088-3.9816-2.6098-7.4032-5e-3 -17.076 4.9569-18.406 0.57636-21.717-10.146-7.6695-6.4125 8.4009-10.143 9.5114-14.094 4.1961-2.3687-3.1861-1.5921-5.222 4.8791-12.79 2.4848-2.906 5.9271-7.3931 7.6496-9.9712 14.558-21.79 24.212-30.169 30.475-26.451 20.712 12.293 22.835 36.595 3.5406 40.537-1.1978 0.24473-3.1978 0.65525-4.4446 0.91227-2.4232 0.49953-4.0943 4.5984-7.6452 18.751-2.9369 11.706-6.5724 15.111-10.209 9.5604zm20.273-41.201c6.213-5.0272 3.8215-15.703-3.5176-15.703-2.1014 0-10.697 9.1766-10.697 11.42 0 3.6525 10.926 6.9446 14.215 4.2832zm-646.3 30c-0.83035-0.64453-2.9941-4.005-4.8083-7.4678s-4.3296-8.1034-5.5898-10.312c-1.2602-2.2091-2.5865-5.282-2.9475-6.8288-0.36093-1.5467-2.9386-8.121-5.7281-14.61-6.6081-15.371-6.9076-16.937-3.8285-20.016 3.49-3.49 5.2515-3.0894 16.866 3.8355 5.7577 3.4328 12.479 7.4406 14.936 8.9062s4.8118 2.6648 5.2329 2.6648c1.5367 0 20.846 13.174 21.391 14.594 0.72285 1.8837-1.1112 5.9176-3.0243 6.6517-0.82124 0.31514-4.4774-0.95075-8.2112-2.843-12.331-6.2494-24.016 3.1205-18.103 14.517 4.0268 7.7615-0.33323 15.451-6.1853 10.908zm1.794-30.867c3.7682-3.54 2.9058-6.5825-2.972-10.485-9.2368-6.1329-10.192-5.206-5.0581 4.9111 4.1825 8.2431 4.7614 8.6449 8.0302 5.574zm580.37 7.5883c-3.0027-1.7489-0.72497-12.343 3.3875-15.756 0.84389-0.70036 1.5343-1.8448 1.5343-2.5432 0-0.69842 1.1602-1.9956 2.5781-2.8827 1.418-0.88707 2.7211-1.7077 2.8958-1.8236 0.17469-0.11591 0.70678-1.9427 1.1824-4.0596 0.57729-2.5694 2.1858-5.1648 4.8386-7.8074 2.1856-2.1772 6.2942-7.2659 9.1301-11.308 6.1132-8.7138 9.2994-10.873 12.728-8.6272 4.8924 3.2056 1.2073 11.324-12.948 28.526-4.5038 5.4731-10.166 13.248-12.583 17.276-5.7147 9.5261-8.4869 11.485-12.744 9.0057zm-542.89-9.0905c-1.4632-0.88862-3.5168-3.3032-4.5636-5.3657-3.4003-6.6998-10.354-17.652-15.826-24.926-9.0635-12.049-10.894-16.929-7.5019-19.998 4.3138-3.9039 10.714 1.5934 17.376 14.925 1.2884 2.5781 3.8328 6.5859 5.6542 8.9062 1.8215 2.3203 5.2102 6.6411 7.5305 9.6017 9.5803 12.224 7.8362 23.238-2.6694 16.858zm528.78-2.1886c-3.1292-1.8204-3.5205-4.9508-1.5561-12.451 2.1452-8.1903 2.0424-8.5956-3.1199-12.289-8.7903-6.289-12.476-7.4126-14.845-4.5258-7.7239 9.4126-24.304 11.353-20.6 2.4107 1.0326-2.493 11.514-12.312 20.72-19.412 28.617-22.068 28.501-21.99 32.601-22.034 4.7273-0.0512 6.2455 6.8762 4.0404 18.436-0.47204 2.4746-1.574 8.929-2.4488 14.343-0.87482 5.4141-2.3531 12.164-3.2851 15-0.932 2.8359-2.1192 8.2396-2.6382 12.008-1.2664 9.1948-3.6927 11.524-8.8684 8.5128zm1.9948-35.398c1.3114-0.83148 2.8584-5.7616 3.6422-11.607 0.58968-4.398-1.1124-4.6728-5.5523-0.8963-1.6937 1.4406-4.2397 3.3488-5.6576 4.2404-3.6332 2.2845-3.4306 5.5008 0.46875 7.4415 3.4788 1.7313 5.3269 1.9452 7.099 0.82158zm-508.21 23.549c-0.8165-0.90234-2.3642-3.693-3.4394-6.2014s-2.7402-5.6725-3.7001-7.0312c-0.95989-1.3587-3.9592-6.4782-6.6652-11.377-2.706-4.8984-6.5554-10.69-8.5544-12.87-13.128-14.316-1.4056-20.226 16.258-8.197 11.008 7.4967 15.929 6.993 10.434-1.0681-7.6209-11.18-7.8515-20.99-0.49342-20.99 2.219 0 6.5566 5.2807 8.632 10.509 0.97299 2.451 7.4568 14.432 13.085 24.179 13.856 23.997 7.836 28.209-15.448 10.807-15.12-11.3-16.63-11.435-10.199-0.9085 1.8716 3.0634 4.2724 7.0464 5.3351 8.8511s2.6955 4.2874 3.6284 5.5171c4.3314 5.7095-4.1009 14.053-8.8728 8.7798zm432.87-24.098c-3.251-3.251-2.895-6.4172 1.5798-14.049 2.1345-3.6404 5.248-8.9392 6.9187-11.775s3.8522-6.8438 4.8476-8.9062c0.99544-2.0625 2.2769-4.5938 2.8476-5.625s2.5147-5.1159 4.32-9.077c5.5561-12.192 8.6944-12.69 25.556-4.0566 14.403 7.3744 14.611 7.5371 14.255 11.172-0.56105 5.7364-3.9078 5.9484-14.716 0.93187-11.101-5.1525-11.06-5.1606-14.503 2.8086l-2.6866 6.2179 2.6406 2.0953c1.4523 1.1524 4.1284 2.528 5.9468 3.0569 3.218 0.93595 7.5671 5.8127 7.5671 8.485 0 4.7914-7.9153 5.4452-15.691 1.2961-8.0911-4.3176-10.296-2.8576-17.756 11.757-4.3728 8.5671-6.9272 9.8681-11.128 5.6676zm-325.97-20.555c-13.599-7.4165-19.542-16.123-22.6-33.112-1.3724-7.6225 6.5956-28.407 10.89-28.407 0.47125 0 3.6091-1.2739 6.9729-2.8309 11.571-5.3557 25.292 0.25977 20.862 8.5379-1.1089 2.072-0.81924 2.0623-10.81 0.36423-10.86-1.8459-18.635 9.8899-14.956 22.576 5.361 18.486 15.128 25.155 26.011 17.759 5.8004-3.9414 9.1736-2.7304 9.1736 3.2934 0 8.4208-17.19 16.375-25.544 11.819zm242.62-6.8407c-3.1753-1.7186-11.974-3.9705-15.706-4.0197-8.0381-0.10592-8.9879-2.7096-5.8898-16.145 1.3452-5.8337 2.9994-13.771 3.6759-17.638 5.0261-28.729 6.5752-30.973 19.384-28.076 4.3254 0.97808 9.3409 1.8218 11.146 1.875 6.137 0.18092 12.474 3.0551 13.266 6.017 1.7881 6.6859-2.3389 7.9934-16.252 5.1489-11.874-2.4276-12.234-2.2979-13.44 4.8419-0.84938 5.0274 0.10055 5.8427 9.1453 7.8485 8.8145 1.9548 11.031 3.3928 11.031 7.1562 0 5.414-7.5856 6.9917-15.052 3.1308-6.2817-3.2484-9.1384-1.1655-10.323 7.5268-0.91606 6.72-0.14189 7.6085 7.7835 8.9327 13.071 2.1841 15.76 4.2923 13.21 10.357-2.0976 4.9887-6.376 6.0762-11.977 3.0444zm-208.15-3.35c-2.3977-2.0819-3.5679-6.4096-9.0033-33.297-0.44476-2.2001-1.914-7.5452-3.2649-11.878-2.9852-9.5747-2.1861-12.967 3.1764-13.483 4.7794-0.45972 6.6887 2.9677 9.9433 17.849 0.8465 3.8706 3.2507 4.6865 8.882 3.0142 2.6383-0.78349 5.3202-1.357 5.9597-1.2744 0.63953 0.0826 1.6349 0.1001 2.212 0.039 1.7541-0.1857 2.1308-6.0048 0.73668-11.379-2.7978-10.786-1.5243-16.857 3.5362-16.857 4.1936 0 8.2451 10.871 8.2837 22.226 7e-3 1.9553 0.82054 6.1335 1.8086 9.2848 0.9881 3.1513 2.2168 9.4794 2.7305 14.062 0.51365 4.5831 1.3985 9.55 1.9663 11.038 2.1107 5.5298-3.6361 9.3324-8.3097 5.4984-1.3571-1.1133-2.844-4.8046-4.6261-11.484l-2.6261-9.8438-5.0872 0.16612c-10.469 0.34185-13.044 5.8198-7.8122 16.619 4.2466 8.7654-1.7312 15.582-8.506 9.6997zm152.79-4.5922c-16.021-8.7118-20.061-29.002-10.21-51.276 6.4585-14.604 35.008-19.062 40.791-6.3695 2.769 6.0773-3.3229 9.3519-10.568 5.6806-12.69-6.4305-22.481 2.533-23.648 21.648-0.93201 15.271 6.2935 23.155 15.492 16.905 5.9516-4.0442 5.3733-12.449-0.94526-13.737-4.704-0.95912-5.9393-2.6393-5.225-7.1064 0.99182-6.2025 1.2708-6.3769 8.0529-5.0334 13.057 2.5864 14.434 3.8351 13.625 12.354-1.7239 18.145-6.7031 25.393-18.628 27.117-7.1814 1.0384-6.4639 1.0534-8.7364-0.18236zm-110.59-3.8972c-1.2641-1.9293-1.261-3.0111 0.0293-10.078 0.79499-4.3543 1.8523-10.659 2.3495-14.011 0.49726-3.3516 1.2954-7.3594 1.7737-8.9062 0.47826-1.5469 1.1416-4.9219 1.474-7.5 2.3634-18.327 5.6005-24.844 12.341-24.844 6.0592 0 5.5285-0.76282 14.698 21.124 2.3831 5.6883 4.3329 10.969 4.3329 11.735 0 0.7662 1.0225 2.8978 2.2722 4.7369s2.5762 4.9956 2.9477 7.0145 1.6694 5.8585 2.8841 8.5325c2.693 5.9282 2.7391 7.2639 0.33355 9.6694-4.3299 4.3299-8.9902 1.8843-11.612-6.0938-2.5578-7.7828-2.3433-7.6532-9.6579-5.838-3.5124 0.87164-7.5992 1.698-9.0818 1.8364-2.4997 0.23331-2.8126 0.71792-4.3046 6.667-0.88491 3.5284-2.2031 6.7915-2.9294 7.2513-2.5139 1.5914-6.3751 0.9536-7.8496-1.2967zm23.935-25.997c2.6783-1.4334 2.3102-6.277-1.159-15.249-4.776-12.351-6.2382-11.087-7.101 6.1412l-0.50473 10.078h3.4756c1.9116 0 4.2917-0.43672 5.289-0.97048zm26.089 22.348c-1.4233-2.6595-1.4057-19.81 0.0292-28.325 0.60049-3.5636 1.0226-11.136 0.9381-16.827-0.32754-22.055 8.7394-19.261 19.354 5.9629 4.3763 10.4 6.667 8.8766 8.3213-5.5338 2.2534-19.629 12.684-20.66 11.466-1.1338-1.1379 18.245-2.5559 31.563-3.8997 36.627-0.75845 2.8581-1.4941 6.2082-1.6347 7.4446-0.39854 3.5038-2.854 4.5187-6.6049 2.73-3.2719-1.5602-3.4361-1.8747-7.9866-15.291-7.6899-22.672-9.3947-22.902-9.8307-1.3278-0.32717 16.191-5.5549 24.263-10.152 15.674zm602.44 348.89c3.6093-0.47982 12.68-1.3185 20.156-1.8637 7.4766-0.54521 16.125-1.3715 19.219-1.8362 3.0937-0.46469 9.2109-1.3446 13.594-1.9553 17.877-2.4911 22.281-4.0087 21.084-7.2656-0.2524-0.6867-0.4589-1.832-0.4589-2.5451 0-2.3105-3.0089-3.0866-8.4375-2.1765-2.8359 0.47547-8.3116 0.86767-12.168 0.87154-3.8566 4e-3 -9.9738 0.65061-13.594 1.4372-10.002 2.1734-12.462 2.5743-42.207 6.8804-3.6094 0.52252-8.461 1.0667-10.781 1.2093-4.1221 0.25332-4.2156 0.32966-4.0777 3.332 0.2196 4.7838 1.7662 5.9994 6.8003 5.3448 2.3698-0.30816 7.2618-0.95287 10.871-1.4327zm-14.062-45.847c6.7031-1.0043 14.719-2.2521 17.812-2.7729 10.57-1.7792 34.675-4.0399 44.477-4.1713l9.7896-0.13123 1.7458-2.9864c1.7082-2.9221 1.7062-3.0735-0.088-7.0312-1.0089-2.2247-2.3089-5.82-2.889-7.9896-1.3342-4.9898-11.761-5.7536-31.473-2.3056-2.5781 0.45098-10.172 1.5354-16.875 2.4098-30.292 3.9514-39.56 5.7776-40.767 8.0324-1.2593 2.353 3.9661 18.814 5.9597 18.775 0.066-9.4e-4 5.604-0.82409 12.307-1.8284zm-17.063-30.695c2.1082-1.1164 6.4842-1.7716 14.719-2.204 6.4453-0.3384 14.883-1.3046 18.75-2.1471 8.3688-1.8232 34.529-5.3231 39.844-5.3305 10.031-0.0141 10.364-6.9736 0.8691-18.17l-2.8808-3.397-6.9629 0.8772c-3.8296 0.48246-14.979 2.1439-24.775 3.6922-19.502 3.0819-36.129 4.1397-36.754 2.3383-0.7077-2.0409 47.707-10.283 55.972-9.5287 6.9703 0.63613 12.188-0.25136 12.188-2.0732 0-2.2174-3.9595-10.429-6.9921-14.5-1.1521-1.5469-2.8494-5.1328-3.7717-7.9688s-2.8219-6.876-4.2213-8.978c-1.3995-2.102-4.3301-7.3754-6.5125-11.719-4.7228-9.3989-10.936-19.509-13.972-22.736-1.2039-1.2793-3.5501-5.0029-5.2137-8.2747s-5.7092-9.7456-8.9902-14.386c-3.281-4.6406-6.9389-9.9141-8.1288-11.719-7.7389-11.737-11.936-16.103-14.84-15.44-1.554 0.3552-4.724 0.54388-7.0443 0.4193-8.5218-0.45756-15.718-0.21662-26.25 0.87888-5.9297 0.61679-19.294 1.6306-29.7 2.2529-23.272 1.3918-23.214 1.3344-13.371 13.245 1.9956 2.4148 4.9207 6.5779 6.5005 9.2513s3.6492 5.9154 4.5986 7.2045c6.2279 8.4552 16.914 26.275 22.77 37.969 2.3237 4.6406 6.5683 12.7 9.4323 17.909 7.0994 12.913 15.206 30.019 19.279 40.685 1.0831 2.8359 3.0427 7.9704 4.3549 11.41 1.3122 3.4395 2.3857 6.4706 2.3857 6.7358 0 4.8312 3.6557 6.3838 8.7185 3.703zm-80.67-150.34c12.529-3.4795 53.607-8.4167 69.842-8.3944 7.3154 0.01 6.2761-2.8907-5.1335-14.328-7.3865-7.4047-8.4527-7.8033-16.898-6.317-3.4803 0.61249-9.7028 1.7045-13.828 2.4267-8.6602 1.5162-24.009 2.9108-40.781 3.7055-20.549 0.97362-20.622 1.1038-8.5053 15.11 1.842 2.1292 4.2663 4.9768 5.3875 6.3281 2.2092 2.6626 4.4335 2.9922 9.9166 1.4695zm-17.111-32.768c5.4141-0.46091 18.07-1.9303 28.125-3.2654s22.199-2.6864 26.986-3.003c11.431-0.7558 11.452-1.0587 0.7504-11.251-10.441-9.9445-9.066-9.551-25.393-7.2661-5.6719 0.79374-15.164 1.7906-21.094 2.2152-10.065 0.72072-35.334 3.4932-40.078 4.3973-3.4887 0.6648-2.4497 2.9672 4.6875 10.388 3.7383 3.8866 7.3976 7.6947 8.1319 8.4625 0.9515 0.99502 2.298 1.2187 4.6875 0.77851 1.8438-0.33967 7.7821-0.99468 13.196-1.4556zm-38.906-42.645c17.448-2.7925 36.274-5.1618 41.118-5.1747 6.3954-0.017 8.8608-0.76228 9.5336-2.882 1.4068-4.4326-1.2693-5.4247-15.495-5.7448-7.655-0.17222-30.834 1.9558-32.808 3.0119-1.1807 0.63191-3.6687 1.2962-5.5289 1.4763-23.384 2.2632-24.574 2.7764-19.593 8.4499 3.4246 3.9004 3.7258 3.9118 22.773 0.86328zm-360.91-199.55c2.4352-16.239-4.1831-24.704-20.387-26.074-5.2235-0.44169-11.006-1.191-12.85-1.6651-19.484-5.0091-38.468 5.1399-38.468 20.565 0 11.954 13.39 27.121 15.856 17.961 1.8286-6.791 8.4259-8.0617 14.723-2.8357 3.4028 2.824 7.8422-3.2189 8.4648-11.522 0.6609-8.8148-0.79382-11.04-7.7157-11.801-6.5397-0.71903-7.8086-3.6591-2.4738-5.7316 1.9783-0.76857 16.427-0.93607 22.361-0.25924 12.12 1.3826 14.451 23.091 3.3861 31.54-6.985 5.3334-11.444 14.221-8.5747 17.091 2.1412 2.1412 24.891-22.017 25.679-27.269zm35.671-19.764c15.378-12.063 32.029-35.71 36.025-51.16 3.1349-12.121 3.8159-15.553 4.7864-24.119 1.3715-12.107 1.0669-13.896-7.1737-42.13-3.8323-13.13-12.369-26.419-24.805-38.614-3.8672-3.7922-9.3516-8.3946-12.188-10.228-2.8359-1.8329-6.4219-4.3835-7.9688-5.6681-1.5469-1.2845-5.5547-3.5652-8.9062-5.0682-3.3516-1.503-8.625-3.9141-11.719-5.358-32.352-15.1-89.073-0.32604-113.63 29.596-1.9555 2.3826-5.3998 6.4923-7.6538 9.1325-2.2541 2.6403-5.4686 7.7618-7.1434 11.381s-3.6621 7.0927-4.4162 7.7186c-1.9602 1.6268-6.1574 20.382-7.395 33.045-3.9227 40.135 9.2359 68.644 40.601 87.962 15.431 9.5046 18.213 4.903 3.6923-6.1081-11.053-8.3818-11.86-9.0752-14.99-12.89-3.5897-4.3746-12.738-19.771-13.736-23.118-0.3695-1.2391-1.6942-4.3873-2.9438-6.996-18.227-38.053 8.7285-97.509 53.086-117.09 53.033-23.411 119.63 7.3039 133.05 61.364 0.44794 1.8047 1.5054 5.8125 2.35 8.9062 7.3938 27.085-4.4273 63.55-28.568 88.125-5.6889 5.7911-9.3275 11.871-9.3275 15.587 0 1.8862 2.8742 0.51942 8.9801-4.2704zm-17.418-7.1058c10.169-6.4081 28.485-25.227 29.631-30.445 0.33825-1.5401 1.1525-3.65 1.8094-4.6888 1.2474-1.9726 5.8482-15.383 8.0455-23.451 1.982-7.2774 1.5259-23.795-0.90448-32.755-1.1103-4.0932-2.0188-8.1202-2.0188-8.9488 0-7.4714-17.243-32.925-27.656-40.825-2.5781-1.9558-6.375-4.9258-8.4375-6.5999-8.0943-6.5702-20.525-11.932-29.392-12.677-4.4596-0.37494-10.85-1.1813-14.202-1.792-73.292-13.354-126.38 90.135-73.349 142.97 15.762 15.704 20.786 17.878 30.269 13.102 9.8379-4.9543 18.551-6.5441 35.71-6.5154l14.661 0.0245 8.1796 4.1943c6.0229 3.0884 9.2941 5.4921 12.406 9.1162 5.1945 6.049 4.4667 6.083 15.249-0.71147z"/>
</svg>
