<?xml version="1.0" encoding="UTF-8"?>
<svg width="1052.4" height="744.09" viewBox="-0.258 -0.548 123.547 123.539" xmlns="http://www.w3.org/2000/svg" xmlns:xlink="http://www.w3.org/1999/xlink">
 <defs>
  <linearGradient id="b">
   <stop offset="0"/>
   <stop stop-color="#989ea0" offset=".45889"/>
   <stop offset="1"/>
  </linearGradient>
  <linearGradient id="i">
   <stop offset="0"/>
   <stop stop-color="#989ea0" offset=".76173"/>
   <stop offset="1"/>
  </linearGradient>
  <linearGradient id="a">
   <stop offset="0"/>
   <stop stop-color="#72797c" offset=".51641"/>
   <stop stop-color="#0b0000" offset="1"/>
  </linearGradient>
  <linearGradient id="j">
   <stop stop-color="#aef0fa" offset="0"/>
   <stop stop-color="#002aff" stop-opacity="0" offset="1"/>
  </linearGradient>
  <linearGradient id="f" x1="198.74" x2="217.2" y1="549.75" y2="582.04" gradientTransform="matrix(.1373 .013826 -.0069821 .069335 -12.344 77.165)" gradientUnits="userSpaceOnUse">
   <stop stop-color="#0030ff" offset="0"/>
   <stop stop-color="#e1ebff" stop-opacity="0" offset="1"/>
  </linearGradient>
  <linearGradient id="e" x1="2.2026" x2="24.966" y1="124.07" y2="131.53" gradientUnits="userSpaceOnUse">
   <stop stop-color="#f1caa1" offset="0"/>
   <stop stop-color="#ff3000" stop-opacity="0" offset="1"/>
  </linearGradient>
  <linearGradient id="d" x1="326.99" x2="326.68" y1="597.69" y2="618.61" gradientTransform="scale(1.3416 .74536)" gradientUnits="userSpaceOnUse">
   <stop stop-color="#fab6ae" offset="0"/>
   <stop stop-color="#ff6500" stop-opacity="0" offset="1"/>
  </linearGradient>
  <linearGradient id="c" x1="315.35" x2="336.23" y1="248.49" y2="270.91" gradientTransform="matrix(.1373 .013826 -.0069821 .069335 -30.945 96.522)" gradientUnits="userSpaceOnUse">
   <stop stop-color="#fff" offset="0"/>
   <stop stop-color="#e1ebff" stop-opacity="0" offset="1"/>
  </linearGradient>
  <linearGradient id="s" x1="2.9043" x2="14.744" y1="79.695" y2="95.303" gradientTransform="matrix(.77244 -.14338 .13405 .82622 -17.229 17.195)" gradientUnits="userSpaceOnUse" xlink:href="#a"/>
  <linearGradient id="r" x1="2.9043" x2="14.744" y1="79.695" y2="95.303" gradientTransform="matrix(-.54585 -.56505 -.58865 .59505 82.237 43.589)" gradientUnits="userSpaceOnUse" xlink:href="#a"/>
  <linearGradient id="h" x1="2.2026" x2="24.966" y1="124.07" y2="131.53" gradientUnits="userSpaceOnUse" xlink:href="#j"/>
  <linearGradient id="g" x1="326.99" x2="326.68" y1="597.69" y2="618.61" gradientTransform="scale(1.3416 .74536)" gradientUnits="userSpaceOnUse" xlink:href="#j"/>
  <linearGradient id="q" x1="-4.9533" x2="3.7214" y1="87.511" y2="95.476" gradientUnits="userSpaceOnUse" xlink:href="#b"/>
  <linearGradient id="p" x1="-4.9533" x2="3.7214" y1="87.511" y2="95.476" gradientTransform="matrix(-.83307 -.55317 -.55317 .83307 75.092 14.964)" gradientUnits="userSpaceOnUse" xlink:href="#b"/>
  <linearGradient id="u" x1="2.879" x2="13.53" y1="77.706" y2="83.267" gradientUnits="userSpaceOnUse" xlink:href="#a"/>
  <linearGradient id="t" x1="17.188" x2="26.829" y1="79.097" y2="82.989" gradientTransform="matrix(1.0924 0 0 .9999 -1.9198 .0080023)" gradientUnits="userSpaceOnUse" xlink:href="#a"/>
  <radialGradient id="n" cx="15.981" cy="84.925" r="2.3173" gradientTransform="matrix(1.4656 -2.4683 .92618 .54992 -86.096 77.664)" gradientUnits="userSpaceOnUse">
   <stop stop-color="#d6d6d6" offset="0"/>
   <stop offset="1"/>
  </radialGradient>
  <radialGradient id="k" cx="-.1402" cy="93.593" r="11.065" gradientTransform="matrix(1 0 0 1.1023 0 -9.5748)" gradientUnits="userSpaceOnUse">
   <stop offset="0"/>
   <stop stop-opacity="0" offset="1"/>
  </radialGradient>
  <radialGradient id="m" cx="22.354" cy="102.86" r="7.8631" gradientTransform="matrix(1.077 -.17867 .18939 1.1417 -20.44 -12.388)" gradientUnits="userSpaceOnUse" xlink:href="#i"/>
  <radialGradient id="l" cx="22.354" cy="102.86" r="7.8631" gradientTransform="matrix(1.0923 7.1117e-8 -7.5385e-8 1.1578 -28.912 -18.271)" gradientUnits="userSpaceOnUse" xlink:href="#i"/>
 </defs>
 <g transform="matrix(2.2693 0 0 2.2693 31.868 -146.24)">
  <path d="m5.8425 82.787c0.8502-2.9243 2.1795-3.6552 3.0548-3.7164l2.1467 0.06023c0.67951 0.30122 2.5395 2.2533 3.7148 3.6064 0.41628 0.47925-0.49309-0.39613-0.48947-0.24643 0.04966 2.0541-0.7405 4.0012-1.6755 5.0228-2.4896 0.32176-7.1823 0.03358-9.3003-0.31448-0.69851-0.11479-1.6666-0.55232-1.3798-1.4178 1.1379-3.4345 1.2821-2.3587 3.9287-2.9942z" fill="url(#u)" stroke="#000" stroke-width=".0166"/>
  <path d="m23.652 81.054c-0.41954-1.2922-0.9462-1.7803-1.499-1.9533l-2.4175 0.0631c-0.4709 0.01391-0.29013-0.10816-3.0949 2.3567-0.44371 0.38993-1.7403 1.0763-1.7439 1.2088-0.04906 1.8173 1.9106 3.1121 2.8343 4.0159 2.4597 0.28467 7.0959 0.02971 9.1885-0.27823 0.69011-0.10156 0.3354-1.6068 0.0521-2.3726-1.1242-3.0385-0.70476-2.4782-3.3196-3.0404z" fill="url(#t)" stroke="#000" stroke-width=".01735"/>
  <use transform="matrix(-.99982 .018853 .018853 .99982 27.126 -.39725)" width="123.547" height="123.539" xlink:href="#o"/>
  <path id="o" d="m5.7024 82.702c1.0771-2.9243 1.0842-2.0623 2.429-2.1365s0.93927-0.44369 5.1841 3.4138c0.52737 0.47925 1.0566 0.10943 1.0612 0.25913 0.06291 2.0541 0.10266 3.8748-1.0818 4.8964-3.154 0.32176-9.099 0.03358-11.782-0.31448-0.88493-0.11479-0.43008-1.8162-0.0668-2.6817 1.4416-3.4345 0.90371-2.8011 4.2567-3.4366z" stroke="#000" stroke-width=".0166"/>
  <path d="m2.7982 83.743c2.0876-1.855 8.7452 0.73908 6.6509 5.4532l-7.3441 16.531c1.9658-8.4555-8.1575-12.59-13.247-9.5968l13.941-12.388z" fill="url(#s)" stroke="url(#k)" stroke-width=".0166"/>
  <path d="m27.357 85.446c-0.63831-2.7187-7.2985-4.4152-8.5811 0.58119l-3.8784 15.109c3.3061-8.0268 13.397-6.8314 15.805-1.4398l-3.3457-14.25z" fill="url(#r)" stroke="#000" stroke-width=".0166"/>
  <path transform="matrix(.92026 -.15266 .15427 .92994 11.018 15.326)" d="m6.1507 91.8a8.5796 8.4903 0 1 1 -17.159 0 8.5796 8.4903 0 1 1 17.159 0z" fill="#fff" fill-rule="evenodd" stroke="#000" stroke-width=".17705"/>
  <path transform="matrix(1 .077134 0 1 -1.2991 -2.8111)" d="m17.948 85.008a2.2343 2.413 0 1 1 -4.4686 0 2.2343 2.413 0 1 1 4.4686 0z" fill="url(#n)" fill-rule="evenodd" stroke="#000" stroke-width=".0166"/>
  <g transform="matrix(.90225 .30434 -.24178 .71679 42.154 6.7848)" fill-rule="evenodd">
   <path transform="matrix(.088579 .024368 -.016814 .061121 -16.951 90.513)" d="m437.93 492.05a11.656 7.4931 0 1 1 -23.312 0 11.656 7.4931 0 1 1 23.312 0z" fill="#dbefff" opacity=".5005"/>
   <path transform="matrix(.11707 .014257 -.013064 .10727 -31.695 75.249)" d="m491.21 417.95a61.61 81.591 0 1 1 -123.22 0 61.61 81.591 0 1 1 123.22 0z" fill="#1367d7" stroke="#000" stroke-width=".17328"/>
   <path d="m12.773 117.67c2.4554 2.339-1.6018 2.4272-0.94221 7.5688s3.4857 7.5238 4.0039 8.714c-0.66575 0.78777-8.4501 3.021-9.7741-6.7846 0.20331-7.6261 4.8143-9.1418 6.7124-9.4981z" fill="url(#h)"/>
   <path transform="matrix(.10856 -.00087413 .00088087 .10773 -35.982 80.34)" d="m472.9 463.74a27.475 35.8 0 1 1 -54.949 0 27.475 35.8 0 1 1 54.949 0z" fill="#00004a"/>
   <path transform="matrix(.10386 .031388 -.03163 .10306 -18.233 67.092)" d="m454.58 454.58a14.986 8.3256 0 1 1 -29.972 0 14.986 8.3256 0 1 1 29.972 0z" fill="url(#g)"/>
   <path d="m9.2655 120.25c-0.10906-0.8705 1.7039-1.7572 2.6309-2.056 1.1821-0.329 2.8981-0.43511 3.4507 0.15658 0.74888 0.95671-6.0644 2.8747-6.0815 1.8994z" fill="url(#f)"/>
   <path transform="matrix(.11707 .014257 -.013064 .10727 -31.695 75.249)" d="m491.21 417.95a61.61 81.591 0 1 1 -123.22 0 61.61 81.591 0 1 1 123.22 0z" fill="#f5996e" stroke="#000" stroke-width=".17328"/>
   <path d="m12.773 117.67c2.4554 2.339-1.6018 2.4272-0.94221 7.5688s3.4857 7.5238 4.0039 8.714c-0.66575 0.78777-8.4501 3.021-9.7741-6.7846 0.20331-7.6261 4.8143-9.1418 6.7124-9.4981z" fill="url(#e)"/>
   <path transform="matrix(.10856 -.00087413 .00088087 .10773 -35.982 80.34)" d="m472.9 463.74a27.475 35.8 0 1 1 -54.949 0 27.475 35.8 0 1 1 54.949 0z" fill="#0b0b23"/>
   <path transform="matrix(.10386 .031388 -.03163 .10306 -18.233 67.092)" d="m454.58 454.58a14.986 8.3256 0 1 1 -29.972 0 14.986 8.3256 0 1 1 29.972 0z" fill="url(#d)"/>
   <path d="m9.2655 120.25c-0.10906-0.8705 1.7039-1.7572 2.6309-2.056 1.1821-0.329 2.8981-0.43511 3.4507 0.15658 0.74888 0.95671-6.0644 2.8747-6.0815 1.8994z" fill="url(#c)"/>
  </g>
  <path d="m21.888 93.655c-4.0815 0.67708-6.8419 4.5355-6.1648 8.617s4.5363 6.8468 8.6178 6.1697 6.846-4.5412 6.1689-8.6227-4.5404-6.8411-8.6218-6.164zm0.14488 1.2998c3.3823-0.56109 6.5824 1.7285 7.1435 5.1107s-1.7284 6.5824-5.1107 7.1435-6.5824-1.7285-7.1435-5.1107 1.7284-6.5824 5.1107-7.1435z" fill="url(#m)" fill-rule="evenodd"/>
  <path d="m29.777 92.832c-0.85219-4.5178-13.354-5.9386-14.191 1.5223l-0.83708 7.454c1.9801-12.476 14.148-9.4725 16.28-2.3396l-1.2519-6.6367z" fill="url(#p)"/>
  <path d="m29.936 96.904c-2.3406-3.8039-7.3228-4.9904-11.127-2.6498s-4.995 7.3256-2.6544 11.13 7.3302 4.9922 11.134 2.6516 4.9876-7.3274 2.647-11.131zm-1.2402 0.67468c1.9396 3.1523 0.95545 7.2846-2.1967 9.2242s-7.2845 0.95555-9.2241-2.1967-0.95546-7.2846 2.1967-9.2241 7.2845-0.95556 9.2242 2.1967z" fill-rule="evenodd"/>
  <path transform="matrix(.93327 0 0 .9431 -2.402 14.232)" d="m6.1507 91.8a8.5796 8.4903 0 1 1 -17.159 0 8.5796 8.4903 0 1 1 17.159 0z" fill="#fff" fill-rule="evenodd" stroke="#000" stroke-width=".17697"/>
  <g transform="matrix(.90279 -.30274 .24051 .71722 -46.973 14.35)" fill-rule="evenodd">
   <path transform="matrix(.088579 .024368 -.016814 .061121 -16.951 90.513)" d="m437.93 492.05a11.656 7.4931 0 1 1 -23.312 0 11.656 7.4931 0 1 1 23.312 0z" fill="#dbefff" opacity=".5005"/>
   <path transform="matrix(.11707 .014257 -.013064 .10727 -31.695 75.249)" d="m491.21 417.95a61.61 81.591 0 1 1 -123.22 0 61.61 81.591 0 1 1 123.22 0z" fill="#1367d7" stroke="#000" stroke-width=".17328"/>
   <path d="m12.773 117.67c2.4554 2.339-1.6018 2.4272-0.94221 7.5688s3.4857 7.5238 4.0039 8.714c-0.66575 0.78777-8.4501 3.021-9.7741-6.7846 0.20331-7.6261 4.8143-9.1418 6.7124-9.4981z" fill="url(#h)"/>
   <path transform="matrix(.10856 -.00087413 .00088087 .10773 -35.982 80.34)" d="m472.9 463.74a27.475 35.8 0 1 1 -54.949 0 27.475 35.8 0 1 1 54.949 0z" fill="#00004a"/>
   <path transform="matrix(.10386 .031388 -.03163 .10306 -18.233 67.092)" d="m454.58 454.58a14.986 8.3256 0 1 1 -29.972 0 14.986 8.3256 0 1 1 29.972 0z" fill="url(#g)"/>
   <path d="m9.2655 120.25c-0.10906-0.8705 1.7039-1.7572 2.6309-2.056 1.1821-0.329 2.8981-0.43511 3.4507 0.15658 0.74888 0.95671-6.0644 2.8747-6.0815 1.8994z" fill="url(#f)"/>
   <path transform="matrix(.11707 .014257 -.013064 .10727 -31.695 75.249)" d="m491.21 417.95a61.61 81.591 0 1 1 -123.22 0 61.61 81.591 0 1 1 123.22 0z" fill="#f5996e" stroke="#000" stroke-width=".17328"/>
   <path d="m12.773 117.67c2.4554 2.339-1.6018 2.4272-0.94221 7.5688s3.4857 7.5238 4.0039 8.714c-0.66575 0.78777-8.4501 3.021-9.7741-6.7846 0.20331-7.6261 4.8143-9.1418 6.7124-9.4981z" fill="url(#e)"/>
   <path transform="matrix(.10856 -.00087413 .00088087 .10773 -35.982 80.34)" d="m472.9 463.74a27.475 35.8 0 1 1 -54.949 0 27.475 35.8 0 1 1 54.949 0z" fill="#0b0b23"/>
   <path transform="matrix(.10386 .031388 -.03163 .10306 -18.233 67.092)" d="m454.58 454.58a14.986 8.3256 0 1 1 -29.972 0 14.986 8.3256 0 1 1 29.972 0z" fill="url(#d)"/>
   <path d="m9.2655 120.25c-0.10906-0.8705 1.7039-1.7572 2.6309-2.056 1.1821-0.329 2.8981-0.43511 3.4507 0.15658 0.74888 0.95671-6.0644 2.8747-6.0815 1.8994z" fill="url(#c)"/>
  </g>
  <path d="m-4.4979 93.322c-4.1392 0-7.4954 3.3562-7.4954 7.4954s3.3562 7.5004 7.4954 7.5004 7.5004-3.3612 7.5004-7.5004-3.3612-7.4954-7.5004-7.4954zm-0.06982 1.3066c3.4301 0 6.2137 2.7838 6.2137 6.2138s-2.7836 6.2137-6.2137 6.2137-6.2137-2.7837-6.2137-6.2137 2.7836-6.2138 6.2137-6.2138z" fill="url(#l)" fill-rule="evenodd"/>
  <path d="m-4.5833 92.811c-4.4684 0-8.0916 3.6232-8.0916 8.0916s3.6232 8.097 8.0916 8.097 8.097-3.6286 8.097-8.097-3.6286-8.0916-8.097-8.0916zm-0.07537 1.4105c3.703 0 6.708 3.0052 6.708 6.708s-3.0051 6.708-6.708 6.708-6.708-3.0052-6.708-6.708 3.0051-6.708 6.708-6.708z" fill-rule="evenodd"/>
  <path d="m-5.3229 89.936c3.209-3.2922 14.41 2.4396 10.98 9.1186l-3.426 6.6727c5.252-11.489-6.5466-15.718-12.268-10.955l4.7141-4.8363z" fill="url(#q)"/>
 </g>
</svg>
