<?xml version="1.0" encoding="UTF-8"?>
<svg width="744.09" height="744.09" viewBox="0 0 744.09447 1052.362179" xmlns="http://www.w3.org/2000/svg">
 <defs>
  <filter id="e">
   <feGaussianBlur stdDeviation="3.127"/>
  </filter>
  <filter id="d">
   <feGaussianBlur stdDeviation="3.628"/>
  </filter>
  <filter id="c" x="-.2489" y="-.28" width="1.4978" height="1.56">
   <feGaussianBlur stdDeviation="1.886"/>
  </filter>
  <radialGradient id="b" cx="230.3" cy="384.08" r="36.366" gradientTransform="matrix(1.7944 -.4913 .58781 1.9594 -406.69 -254.68)" gradientUnits="userSpaceOnUse">
   <stop stop-color="#ccc" stop-opacity="0" offset="0"/>
   <stop offset="1"/>
  </radialGradient>
  <radialGradient id="a" cx="182.84" cy="478.6" r="21.213" gradientTransform="matrix(.79453 -.04803 .03944 .68046 18.691 161.71)" gradientUnits="userSpaceOnUse">
   <stop stop-color="#fff" offset="0"/>
   <stop stop-color="#fff" stop-opacity="0" offset="1"/>
  </radialGradient>
 </defs>
 <path transform="matrix(.43269 0 0 .39844 101.83 51.444)" d="m366.21 345.31c7.9227 11.082 12.594 24.651 12.594 39.312 0 37.379-30.309 67.688-67.688 67.688-16.771 0-32.082-6.1162-43.906-16.219 12.278 17.147 32.333 28.344 55.031 28.344 37.379 0 67.688-30.309 67.688-67.688 0-20.593-9.2075-39.024-23.719-51.438z" fill-opacity=".622" filter="url(#d)"/>
 <path transform="matrix(.80529 0 0 .74155 56.227 -74.847)" d="m261.63 376.57c0 20.084-16.281 36.366-36.366 36.366s-36.366-16.281-36.366-36.366 16.281-36.366 36.366-36.366 36.366 16.281 36.366 36.366z" fill="url(#b)"/>
 <path transform="matrix(.43269 0 0 .39844 102.06 51.361)" d="m361.94 352.33c4.2784 8.1764 6.7364 17.46 6.7364 27.328 0 32.622-26.452 59.073-59.073 59.073-18.246 0-34.547-8.3009-45.382-21.3 9.8409 18.931 29.635 31.882 52.446 31.882 32.622 0 59.046-26.452 59.046-59.073 0-14.432-5.1757-27.65-13.773-37.91z" fill="#666" fill-opacity=".573" filter="url(#e)"/>
 <path transform="matrix(.98341 -.33309 .35419 .8867 -108.87 -152.76)" d="m204.05 478.6c0 10.042-9.4975 18.183-21.213 18.183s-21.213-8.1407-21.213-18.183 9.4975-18.183 21.213-18.183 21.213 8.1407 21.213 18.183z" fill="url(#a)" opacity=".851"/>
 <path transform="matrix(.4327 0 0 .44826 158.15 -33.909)" d="m184.86 491.73c0 4.4631-4.0703 8.0812-9.0914 8.0812s-9.0914-3.6181-9.0914-8.0812 4.0703-8.0812 9.0914-8.0812 9.0914 3.6181 9.0914 8.0812z" fill="#fff" filter="url(#c)"/>
 <path transform="matrix(.36711 0 0 .33805 120.84 166.26)" d="m366.21 345.31c7.9227 11.082 12.594 24.651 12.594 39.312 0 37.379-30.309 67.688-67.688 67.688-16.771 0-32.082-6.1162-43.906-16.219 12.278 17.147 32.333 28.344 55.031 28.344 37.379 0 67.688-30.309 67.688-67.688 0-20.593-9.2075-39.024-23.719-51.438z" fill-opacity=".622" filter="url(#d)"/>
 <path transform="matrix(.68323 0 0 .62915 82.143 59.108)" d="m261.63 376.57c0 20.084-16.281 36.366-36.366 36.366s-36.366-16.281-36.366-36.366 16.281-36.366 36.366-36.366 36.366 16.281 36.366 36.366z" fill="url(#b)"/>
 <path transform="matrix(.36711 0 0 .33805 121.03 166.18)" d="m361.94 352.33c4.2784 8.1764 6.7364 17.46 6.7364 27.328 0 32.622-26.452 59.073-59.073 59.073-18.246 0-34.547-8.3009-45.382-21.3 9.8409 18.931 29.635 31.882 52.446 31.882 32.622 0 59.046-26.452 59.046-59.073 0-14.432-5.1757-27.65-13.773-37.91z" fill="#666" fill-opacity=".573" filter="url(#e)"/>
 <path transform="matrix(.83435 -.2826 .3005 .7523 -57.932 -6.9977)" d="m204.05 478.6c0 10.042-9.4975 18.183-21.213 18.183s-21.213-8.1407-21.213-18.183 9.4975-18.183 21.213-18.183 21.213 8.1407 21.213 18.183z" fill="url(#a)" opacity=".851"/>
 <path transform="matrix(.36711 0 0 .38031 168.62 93.841)" d="m184.86 491.73c0 4.4631-4.0703 8.0812-9.0914 8.0812s-9.0914-3.6181-9.0914-8.0812 4.0703-8.0812 9.0914-8.0812 9.0914 3.6181 9.0914 8.0812z" fill="#fff" filter="url(#c)"/>
 <path transform="matrix(.36711 0 0 .33805 343.69 37.684)" d="m366.21 345.31c7.9227 11.082 12.594 24.651 12.594 39.312 0 37.379-30.309 67.688-67.688 67.688-16.771 0-32.082-6.1162-43.906-16.219 12.278 17.147 32.333 28.344 55.031 28.344 37.379 0 67.688-30.309 67.688-67.688 0-20.593-9.2075-39.024-23.719-51.438z" fill-opacity=".622" filter="url(#d)"/>
 <path transform="matrix(.68323 0 0 .62915 305 -69.464)" d="m261.63 376.57c0 20.084-16.281 36.366-36.366 36.366s-36.366-16.281-36.366-36.366 16.281-36.366 36.366-36.366 36.366 16.281 36.366 36.366z" fill="url(#b)"/>
 <path transform="matrix(.36711 0 0 .33805 343.88 37.614)" d="m361.94 352.33c4.2784 8.1764 6.7364 17.46 6.7364 27.328 0 32.622-26.452 59.073-59.073 59.073-18.246 0-34.547-8.3009-45.382-21.3 9.8409 18.931 29.635 31.882 52.446 31.882 32.622 0 59.046-26.452 59.046-59.073 0-14.432-5.1757-27.65-13.773-37.91z" fill="#666" fill-opacity=".573" filter="url(#e)"/>
 <path transform="matrix(.83435 -.2826 .3005 .7523 164.92 -135.57)" d="m204.05 478.6c0 10.042-9.4975 18.183-21.213 18.183s-21.213-8.1407-21.213-18.183 9.4975-18.183 21.213-18.183 21.213 8.1407 21.213 18.183z" fill="url(#a)" opacity=".851"/>
 <path transform="matrix(.36711 0 0 .38031 391.48 -34.731)" d="m184.86 491.73c0 4.4631-4.0703 8.0812-9.0914 8.0812s-9.0914-3.6181-9.0914-8.0812 4.0703-8.0812 9.0914-8.0812 9.0914 3.6181 9.0914 8.0812z" fill="#fff" filter="url(#c)"/>
 <path transform="matrix(.20782 0 0 .19137 332.9 226.92)" d="m366.21 345.31c7.9227 11.082 12.594 24.651 12.594 39.312 0 37.379-30.309 67.688-67.688 67.688-16.771 0-32.082-6.1162-43.906-16.219 12.278 17.147 32.333 28.344 55.031 28.344 37.379 0 67.688-30.309 67.688-67.688 0-20.593-9.2075-39.024-23.719-51.438z" fill-opacity=".622" filter="url(#d)"/>
 <path transform="matrix(.38678 0 0 .35617 311 166.26)" d="m261.63 376.57c0 20.084-16.281 36.366-36.366 36.366s-36.366-16.281-36.366-36.366 16.281-36.366 36.366-36.366 36.366 16.281 36.366 36.366z" fill="url(#b)"/>
 <path transform="matrix(.20782 0 0 .19137 333.01 226.88)" d="m361.94 352.33c4.2784 8.1764 6.7364 17.46 6.7364 27.328 0 32.622-26.452 59.073-59.073 59.073-18.246 0-34.547-8.3009-45.382-21.3 9.8409 18.931 29.635 31.882 52.446 31.882 32.622 0 59.046-26.452 59.046-59.073 0-14.432-5.1757-27.65-13.773-37.91z" fill="#666" fill-opacity=".573" filter="url(#e)"/>
 <path transform="matrix(.47233 -.15998 .17012 .42588 231.7 128.84)" d="m204.05 478.6c0 10.042-9.4975 18.183-21.213 18.183s-21.213-8.1407-21.213-18.183 9.4975-18.183 21.213-18.183 21.213 8.1407 21.213 18.183z" fill="url(#a)" opacity=".851"/>
 <path transform="matrix(.20783 0 0 .2153 359.95 185.92)" d="m184.86 491.73c0 4.4631-4.0703 8.0812-9.0914 8.0812s-9.0914-3.6181-9.0914-8.0812 4.0703-8.0812 9.0914-8.0812 9.0914 3.6181 9.0914 8.0812z" fill="#fff" filter="url(#c)"/>
 <path transform="matrix(.20782 0 0 .19137 444.33 148.35)" d="m366.21 345.31c7.9227 11.082 12.594 24.651 12.594 39.312 0 37.379-30.309 67.688-67.688 67.688-16.771 0-32.082-6.1162-43.906-16.219 12.278 17.147 32.333 28.344 55.031 28.344 37.379 0 67.688-30.309 67.688-67.688 0-20.593-9.2075-39.024-23.719-51.438z" fill-opacity=".622" filter="url(#d)"/>
 <path transform="matrix(.38678 0 0 .35617 422.43 87.691)" d="m261.63 376.57c0 20.084-16.281 36.366-36.366 36.366s-36.366-16.281-36.366-36.366 16.281-36.366 36.366-36.366 36.366 16.281 36.366 36.366z" fill="url(#b)"/>
 <path transform="matrix(.20782 0 0 .19137 444.44 148.31)" d="m361.94 352.33c4.2784 8.1764 6.7364 17.46 6.7364 27.328 0 32.622-26.452 59.073-59.073 59.073-18.246 0-34.547-8.3009-45.382-21.3 9.8409 18.931 29.635 31.882 52.446 31.882 32.622 0 59.046-26.452 59.046-59.073 0-14.432-5.1757-27.65-13.773-37.91z" fill="#666" fill-opacity=".573" filter="url(#e)"/>
 <path transform="matrix(.47233 -.15998 .17012 .42588 343.13 50.268)" d="m204.05 478.6c0 10.042-9.4975 18.183-21.213 18.183s-21.213-8.1407-21.213-18.183 9.4975-18.183 21.213-18.183 21.213 8.1407 21.213 18.183z" fill="url(#a)" opacity=".851"/>
 <path transform="matrix(.20783 0 0 .2153 471.38 107.35)" d="m184.86 491.73c0 4.4631-4.0703 8.0812-9.0914 8.0812s-9.0914-3.6181-9.0914-8.0812 4.0703-8.0812 9.0914-8.0812 9.0914 3.6181 9.0914 8.0812z" fill="#fff" filter="url(#c)"/>
 <path transform="matrix(.20782 0 0 .19137 374.33 321.21)" d="m366.21 345.31c7.9227 11.082 12.594 24.651 12.594 39.312 0 37.379-30.309 67.688-67.688 67.688-16.771 0-32.082-6.1162-43.906-16.219 12.278 17.147 32.333 28.344 55.031 28.344 37.379 0 67.688-30.309 67.688-67.688 0-20.593-9.2075-39.024-23.719-51.438z" fill-opacity=".622" filter="url(#d)"/>
 <path transform="matrix(.38678 0 0 .35617 352.43 260.55)" d="m261.63 376.57c0 20.084-16.281 36.366-36.366 36.366s-36.366-16.281-36.366-36.366 16.281-36.366 36.366-36.366 36.366 16.281 36.366 36.366z" fill="url(#b)"/>
 <path transform="matrix(.20782 0 0 .19137 374.44 321.17)" d="m361.94 352.33c4.2784 8.1764 6.7364 17.46 6.7364 27.328 0 32.622-26.452 59.073-59.073 59.073-18.246 0-34.547-8.3009-45.382-21.3 9.8409 18.931 29.635 31.882 52.446 31.882 32.622 0 59.046-26.452 59.046-59.073 0-14.432-5.1757-27.65-13.773-37.91z" fill="#666" fill-opacity=".573" filter="url(#e)"/>
 <path transform="matrix(.47233 -.15998 .17012 .42588 273.13 223.13)" d="m204.05 478.6c0 10.042-9.4975 18.183-21.213 18.183s-21.213-8.1407-21.213-18.183 9.4975-18.183 21.213-18.183 21.213 8.1407 21.213 18.183z" fill="url(#a)" opacity=".851"/>
 <path transform="matrix(.20783 0 0 .2153 401.38 280.21)" d="m184.86 491.73c0 4.4631-4.0703 8.0812-9.0914 8.0812s-9.0914-3.6181-9.0914-8.0812 4.0703-8.0812 9.0914-8.0812 9.0914 3.6181 9.0914 8.0812z" fill="#fff" filter="url(#c)"/>
 <path transform="matrix(.43269 0 0 .39844 350.4 124.3)" d="m366.21 345.31c7.9227 11.082 12.594 24.651 12.594 39.312 0 37.379-30.309 67.688-67.688 67.688-16.771 0-32.082-6.1162-43.906-16.219 12.278 17.147 32.333 28.344 55.031 28.344 37.379 0 67.688-30.309 67.688-67.688 0-20.593-9.2075-39.024-23.719-51.438z" fill-opacity=".622" filter="url(#d)"/>
 <path transform="matrix(.80529 0 0 .74155 304.8 -1.9897)" d="m261.63 376.57c0 20.084-16.281 36.366-36.366 36.366s-36.366-16.281-36.366-36.366 16.281-36.366 36.366-36.366 36.366 16.281 36.366 36.366z" fill="url(#b)"/>
 <path transform="matrix(.43269 0 0 .39844 350.63 124.22)" d="m361.94 352.33c4.2784 8.1764 6.7364 17.46 6.7364 27.328 0 32.622-26.452 59.073-59.073 59.073-18.246 0-34.547-8.3009-45.382-21.3 9.8409 18.931 29.635 31.882 52.446 31.882 32.622 0 59.046-26.452 59.046-59.073 0-14.432-5.1757-27.65-13.773-37.91z" fill="#666" fill-opacity=".573" filter="url(#e)"/>
 <path transform="matrix(.98341 -.33309 .35419 .8867 139.7 -79.905)" d="m204.05 478.6c0 10.042-9.4975 18.183-21.213 18.183s-21.213-8.1407-21.213-18.183 9.4975-18.183 21.213-18.183 21.213 8.1407 21.213 18.183z" fill="url(#a)" opacity=".851"/>
 <path transform="matrix(.4327 0 0 .44826 406.72 38.949)" d="m184.86 491.73c0 4.4631-4.0703 8.0812-9.0914 8.0812s-9.0914-3.6181-9.0914-8.0812 4.0703-8.0812 9.0914-8.0812 9.0914 3.6181 9.0914 8.0812z" fill="#fff" filter="url(#c)"/>
 <path transform="matrix(.43269 0 0 .39844 210.4 237.16)" d="m366.21 345.31c7.9227 11.082 12.594 24.651 12.594 39.312 0 37.379-30.309 67.688-67.688 67.688-16.771 0-32.082-6.1162-43.906-16.219 12.278 17.147 32.333 28.344 55.031 28.344 37.379 0 67.688-30.309 67.688-67.688 0-20.593-9.2075-39.024-23.719-51.438z" fill-opacity=".622" filter="url(#d)"/>
 <path transform="matrix(.80529 0 0 .74155 164.8 110.87)" d="m261.63 376.57c0 20.084-16.281 36.366-36.366 36.366s-36.366-16.281-36.366-36.366 16.281-36.366 36.366-36.366 36.366 16.281 36.366 36.366z" fill="url(#b)"/>
 <path transform="matrix(.43269 0 0 .39844 210.63 237.08)" d="m361.94 352.33c4.2784 8.1764 6.7364 17.46 6.7364 27.328 0 32.622-26.452 59.073-59.073 59.073-18.246 0-34.547-8.3009-45.382-21.3 9.8409 18.931 29.635 31.882 52.446 31.882 32.622 0 59.046-26.452 59.046-59.073 0-14.432-5.1757-27.65-13.773-37.91z" fill="#666" fill-opacity=".573" filter="url(#e)"/>
 <path transform="matrix(.98341 -.33309 .35419 .8867 -.30168 32.952)" d="m204.05 478.6c0 10.042-9.4975 18.183-21.213 18.183s-21.213-8.1407-21.213-18.183 9.4975-18.183 21.213-18.183 21.213 8.1407 21.213 18.183z" fill="url(#a)" opacity=".851"/>
 <path transform="matrix(.4327 0 0 .44826 266.72 151.81)" d="m184.86 491.73c0 4.4631-4.0703 8.0812-9.0914 8.0812s-9.0914-3.6181-9.0914-8.0812 4.0703-8.0812 9.0914-8.0812 9.0914 3.6181 9.0914 8.0812z" fill="#fff" filter="url(#c)"/>
 <path transform="matrix(.24488 0 0 .2255 236.64 113.27)" d="m366.21 345.31c7.9227 11.082 12.594 24.651 12.594 39.312 0 37.379-30.309 67.688-67.688 67.688-16.771 0-32.082-6.1162-43.906-16.219 12.278 17.147 32.333 28.344 55.031 28.344 37.379 0 67.688-30.309 67.688-67.688 0-20.593-9.2075-39.024-23.719-51.438z" fill-opacity=".622" filter="url(#d)"/>
 <path transform="matrix(.45575 0 0 .41967 210.83 41.8)" d="m261.63 376.57c0 20.084-16.281 36.366-36.366 36.366s-36.366-16.281-36.366-36.366 16.281-36.366 36.366-36.366 36.366 16.281 36.366 36.366z" fill="url(#b)"/>
 <path transform="matrix(.24488 0 0 .2255 236.77 113.23)" d="m361.94 352.33c4.2784 8.1764 6.7364 17.46 6.7364 27.328 0 32.622-26.452 59.073-59.073 59.073-18.246 0-34.547-8.3009-45.382-21.3 9.8409 18.931 29.635 31.882 52.446 31.882 32.622 0 59.046-26.452 59.046-59.073 0-14.432-5.1757-27.65-13.773-37.91z" fill="#666" fill-opacity=".573" filter="url(#e)"/>
 <path transform="matrix(.55655 -.18851 .20045 .50182 117.39 -2.296)" d="m204.05 478.6c0 10.042-9.4975 18.183-21.213 18.183s-21.213-8.1407-21.213-18.183 9.4975-18.183 21.213-18.183 21.213 8.1407 21.213 18.183z" fill="url(#a)" opacity=".851"/>
 <path transform="matrix(.24488 0 0 .25369 268.51 64.968)" d="m184.86 491.73c0 4.4631-4.0703 8.0812-9.0914 8.0812s-9.0914-3.6181-9.0914-8.0812 4.0703-8.0812 9.0914-8.0812 9.0914 3.6181 9.0914 8.0812z" fill="#fff" filter="url(#c)"/>
 <path transform="matrix(.24488 0 0 .2255 248.07 214.7)" d="m366.21 345.31c7.9227 11.082 12.594 24.651 12.594 39.312 0 37.379-30.309 67.688-67.688 67.688-16.771 0-32.082-6.1162-43.906-16.219 12.278 17.147 32.333 28.344 55.031 28.344 37.379 0 67.688-30.309 67.688-67.688 0-20.593-9.2075-39.024-23.719-51.438z" fill-opacity=".622" filter="url(#d)"/>
 <path transform="matrix(.45575 0 0 .41967 222.26 143.23)" d="m261.63 376.57c0 20.084-16.281 36.366-36.366 36.366s-36.366-16.281-36.366-36.366 16.281-36.366 36.366-36.366 36.366 16.281 36.366 36.366z" fill="url(#b)"/>
 <path transform="matrix(.24488 0 0 .2255 248.19 214.65)" d="m361.94 352.33c4.2784 8.1764 6.7364 17.46 6.7364 27.328 0 32.622-26.452 59.073-59.073 59.073-18.246 0-34.547-8.3009-45.382-21.3 9.8409 18.931 29.635 31.882 52.446 31.882 32.622 0 59.046-26.452 59.046-59.073 0-14.432-5.1757-27.65-13.773-37.91z" fill="#666" fill-opacity=".573" filter="url(#e)"/>
 <path transform="matrix(.55655 -.18851 .20045 .50182 128.82 99.133)" d="m204.05 478.6c0 10.042-9.4975 18.183-21.213 18.183s-21.213-8.1407-21.213-18.183 9.4975-18.183 21.213-18.183 21.213 8.1407 21.213 18.183z" fill="url(#a)" opacity=".851"/>
 <path transform="matrix(.24488 0 0 .25369 279.94 166.4)" d="m184.86 491.73c0 4.4631-4.0703 8.0812-9.0914 8.0812s-9.0914-3.6181-9.0914-8.0812 4.0703-8.0812 9.0914-8.0812 9.0914 3.6181 9.0914 8.0812z" fill="#fff" filter="url(#c)"/>
 <path transform="matrix(.24488 0 0 .2255 130.92 284.7)" d="m366.21 345.31c7.9227 11.082 12.594 24.651 12.594 39.312 0 37.379-30.309 67.688-67.688 67.688-16.771 0-32.082-6.1162-43.906-16.219 12.278 17.147 32.333 28.344 55.031 28.344 37.379 0 67.688-30.309 67.688-67.688 0-20.593-9.2075-39.024-23.719-51.438z" fill-opacity=".622" filter="url(#d)"/>
 <path transform="matrix(.45575 0 0 .41967 105.11 213.23)" d="m261.63 376.57c0 20.084-16.281 36.366-36.366 36.366s-36.366-16.281-36.366-36.366 16.281-36.366 36.366-36.366 36.366 16.281 36.366 36.366z" fill="url(#b)"/>
 <path transform="matrix(.24488 0 0 .2255 131.05 284.65)" d="m361.94 352.33c4.2784 8.1764 6.7364 17.46 6.7364 27.328 0 32.622-26.452 59.073-59.073 59.073-18.246 0-34.547-8.3009-45.382-21.3 9.8409 18.931 29.635 31.882 52.446 31.882 32.622 0 59.046-26.452 59.046-59.073 0-14.432-5.1757-27.65-13.773-37.91z" fill="#666" fill-opacity=".573" filter="url(#e)"/>
 <path transform="matrix(.55655 -.18851 .20045 .50182 11.676 169.13)" d="m204.05 478.6c0 10.042-9.4975 18.183-21.213 18.183s-21.213-8.1407-21.213-18.183 9.4975-18.183 21.213-18.183 21.213 8.1407 21.213 18.183z" fill="url(#a)" opacity=".851"/>
 <path transform="matrix(.24488 0 0 .25369 162.8 236.4)" d="m184.86 491.73c0 4.4631-4.0703 8.0812-9.0914 8.0812s-9.0914-3.6181-9.0914-8.0812 4.0703-8.0812 9.0914-8.0812 9.0914 3.6181 9.0914 8.0812z" fill="#fff" filter="url(#c)"/>
 <path transform="matrix(.24488 0 0 .2255 465.21 334.7)" d="m366.21 345.31c7.9227 11.082 12.594 24.651 12.594 39.312 0 37.379-30.309 67.688-67.688 67.688-16.771 0-32.082-6.1162-43.906-16.219 12.278 17.147 32.333 28.344 55.031 28.344 37.379 0 67.688-30.309 67.688-67.688 0-20.593-9.2075-39.024-23.719-51.438z" fill-opacity=".622" filter="url(#d)"/>
 <path transform="matrix(.45575 0 0 .41967 439.4 263.23)" d="m261.63 376.57c0 20.084-16.281 36.366-36.366 36.366s-36.366-16.281-36.366-36.366 16.281-36.366 36.366-36.366 36.366 16.281 36.366 36.366z" fill="url(#b)"/>
 <path transform="matrix(.24488 0 0 .2255 465.34 334.65)" d="m361.94 352.33c4.2784 8.1764 6.7364 17.46 6.7364 27.328 0 32.622-26.452 59.073-59.073 59.073-18.246 0-34.547-8.3009-45.382-21.3 9.8409 18.931 29.635 31.882 52.446 31.882 32.622 0 59.046-26.452 59.046-59.073 0-14.432-5.1757-27.65-13.773-37.91z" fill="#666" fill-opacity=".573" filter="url(#e)"/>
 <path transform="matrix(.55655 -.18851 .20045 .50182 345.96 219.13)" d="m204.05 478.6c0 10.042-9.4975 18.183-21.213 18.183s-21.213-8.1407-21.213-18.183 9.4975-18.183 21.213-18.183 21.213 8.1407 21.213 18.183z" fill="url(#a)" opacity=".851"/>
 <path transform="matrix(.24488 0 0 .25369 497.08 286.4)" d="m184.86 491.73c0 4.4631-4.0703 8.0812-9.0914 8.0812s-9.0914-3.6181-9.0914-8.0812 4.0703-8.0812 9.0914-8.0812 9.0914 3.6181 9.0914 8.0812z" fill="#fff" filter="url(#c)"/>
 <path transform="matrix(.24488 0 0 .2255 516.64 138.99)" d="m366.21 345.31c7.9227 11.082 12.594 24.651 12.594 39.312 0 37.379-30.309 67.688-67.688 67.688-16.771 0-32.082-6.1162-43.906-16.219 12.278 17.147 32.333 28.344 55.031 28.344 37.379 0 67.688-30.309 67.688-67.688 0-20.593-9.2075-39.024-23.719-51.438z" fill-opacity=".622" filter="url(#d)"/>
 <path transform="matrix(.45575 0 0 .41967 490.83 67.514)" d="m261.63 376.57c0 20.084-16.281 36.366-36.366 36.366s-36.366-16.281-36.366-36.366 16.281-36.366 36.366-36.366 36.366 16.281 36.366 36.366z" fill="url(#b)"/>
 <path transform="matrix(.24488 0 0 .2255 516.77 138.94)" d="m361.94 352.33c4.2784 8.1764 6.7364 17.46 6.7364 27.328 0 32.622-26.452 59.073-59.073 59.073-18.246 0-34.547-8.3009-45.382-21.3 9.8409 18.931 29.635 31.882 52.446 31.882 32.622 0 59.046-26.452 59.046-59.073 0-14.432-5.1757-27.65-13.773-37.91z" fill="#666" fill-opacity=".573" filter="url(#e)"/>
 <path transform="matrix(.55655 -.18851 .20045 .50182 397.39 23.418)" d="m204.05 478.6c0 10.042-9.4975 18.183-21.213 18.183s-21.213-8.1407-21.213-18.183 9.4975-18.183 21.213-18.183 21.213 8.1407 21.213 18.183z" fill="url(#a)" opacity=".851"/>
 <path transform="matrix(.24488 0 0 .25369 548.51 90.683)" d="m184.86 491.73c0 4.4631-4.0703 8.0812-9.0914 8.0812s-9.0914-3.6181-9.0914-8.0812 4.0703-8.0812 9.0914-8.0812 9.0914 3.6181 9.0914 8.0812z" fill="#fff" filter="url(#c)"/>
 <path transform="matrix(.1137 0 0 .1047 358.93 177.18)" d="m366.21 345.31c7.9227 11.082 12.594 24.651 12.594 39.312 0 37.379-30.309 67.688-67.688 67.688-16.771 0-32.082-6.1162-43.906-16.219 12.278 17.147 32.333 28.344 55.031 28.344 37.379 0 67.688-30.309 67.688-67.688 0-20.593-9.2075-39.024-23.719-51.438z" fill-opacity=".622" filter="url(#d)"/>
 <path transform="matrix(.21162 0 0 .19487 346.94 143.99)" d="m261.63 376.57c0 20.084-16.281 36.366-36.366 36.366s-36.366-16.281-36.366-36.366 16.281-36.366 36.366-36.366 36.366 16.281 36.366 36.366z" fill="url(#b)"/>
 <path transform="matrix(.1137 0 0 .1047 358.99 177.16)" d="m361.94 352.33c4.2784 8.1764 6.7364 17.46 6.7364 27.328 0 32.622-26.452 59.073-59.073 59.073-18.246 0-34.547-8.3009-45.382-21.3 9.8409 18.931 29.635 31.882 52.446 31.882 32.622 0 59.046-26.452 59.046-59.073 0-14.432-5.1757-27.65-13.773-37.91z" fill="#666" fill-opacity=".573" filter="url(#e)"/>
 <path transform="matrix(.25842 -.08753 .09307 .23301 303.56 123.52)" d="m204.05 478.6c0 10.042-9.4975 18.183-21.213 18.183s-21.213-8.1407-21.213-18.183 9.4975-18.183 21.213-18.183 21.213 8.1407 21.213 18.183z" fill="url(#a)" opacity=".851"/>
 <path transform="matrix(.11371 0 0 .11779 373.73 154.75)" d="m184.86 491.73c0 4.4631-4.0703 8.0812-9.0914 8.0812s-9.0914-3.6181-9.0914-8.0812 4.0703-8.0812 9.0914-8.0812 9.0914 3.6181 9.0914 8.0812z" fill="#fff" filter="url(#c)"/>
 <path transform="matrix(.1137 0 0 .1047 241.78 390.04)" d="m366.21 345.31c7.9227 11.082 12.594 24.651 12.594 39.312 0 37.379-30.309 67.688-67.688 67.688-16.771 0-32.082-6.1162-43.906-16.219 12.278 17.147 32.333 28.344 55.031 28.344 37.379 0 67.688-30.309 67.688-67.688 0-20.593-9.2075-39.024-23.719-51.438z" fill-opacity=".622" filter="url(#d)"/>
 <path transform="matrix(.21162 0 0 .19487 229.8 356.85)" d="m261.63 376.57c0 20.084-16.281 36.366-36.366 36.366s-36.366-16.281-36.366-36.366 16.281-36.366 36.366-36.366 36.366 16.281 36.366 36.366z" fill="url(#b)"/>
 <path transform="matrix(.1137 0 0 .1047 241.84 390.02)" d="m361.94 352.33c4.2784 8.1764 6.7364 17.46 6.7364 27.328 0 32.622-26.452 59.073-59.073 59.073-18.246 0-34.547-8.3009-45.382-21.3 9.8409 18.931 29.635 31.882 52.446 31.882 32.622 0 59.046-26.452 59.046-59.073 0-14.432-5.1757-27.65-13.773-37.91z" fill="#666" fill-opacity=".573" filter="url(#e)"/>
 <path transform="matrix(.25842 -.08753 .09307 .23301 186.41 336.38)" d="m204.05 478.6c0 10.042-9.4975 18.183-21.213 18.183s-21.213-8.1407-21.213-18.183 9.4975-18.183 21.213-18.183 21.213 8.1407 21.213 18.183z" fill="url(#a)" opacity=".851"/>
 <path transform="matrix(.11371 0 0 .11779 256.58 367.61)" d="m184.86 491.73c0 4.4631-4.0703 8.0812-9.0914 8.0812s-9.0914-3.6181-9.0914-8.0812 4.0703-8.0812 9.0914-8.0812 9.0914 3.6181 9.0914 8.0812z" fill="#fff" filter="url(#c)"/>
 <path transform="matrix(.1137 0 0 .1047 413.21 421.47)" d="m366.21 345.31c7.9227 11.082 12.594 24.651 12.594 39.312 0 37.379-30.309 67.688-67.688 67.688-16.771 0-32.082-6.1162-43.906-16.219 12.278 17.147 32.333 28.344 55.031 28.344 37.379 0 67.688-30.309 67.688-67.688 0-20.593-9.2075-39.024-23.719-51.438z" fill-opacity=".622" filter="url(#d)"/>
 <path transform="matrix(.21162 0 0 .19487 401.23 388.28)" d="m261.63 376.57c0 20.084-16.281 36.366-36.366 36.366s-36.366-16.281-36.366-36.366 16.281-36.366 36.366-36.366 36.366 16.281 36.366 36.366z" fill="url(#b)"/>
 <path transform="matrix(.1137 0 0 .1047 413.27 421.45)" d="m361.94 352.33c4.2784 8.1764 6.7364 17.46 6.7364 27.328 0 32.622-26.452 59.073-59.073 59.073-18.246 0-34.547-8.3009-45.382-21.3 9.8409 18.931 29.635 31.882 52.446 31.882 32.622 0 59.046-26.452 59.046-59.073 0-14.432-5.1757-27.65-13.773-37.91z" fill="#666" fill-opacity=".573" filter="url(#e)"/>
 <path transform="matrix(.25842 -.08753 .09307 .23301 357.84 367.81)" d="m204.05 478.6c0 10.042-9.4975 18.183-21.213 18.183s-21.213-8.1407-21.213-18.183 9.4975-18.183 21.213-18.183 21.213 8.1407 21.213 18.183z" fill="url(#a)" opacity=".851"/>
 <path transform="matrix(.11371 0 0 .11779 428.01 399.04)" d="m184.86 491.73c0 4.4631-4.0703 8.0812-9.0914 8.0812s-9.0914-3.6181-9.0914-8.0812 4.0703-8.0812 9.0914-8.0812 9.0914 3.6181 9.0914 8.0812z" fill="#fff" filter="url(#c)"/>
 <path transform="matrix(.1137 0 0 .1047 541.78 218.61)" d="m366.21 345.31c7.9227 11.082 12.594 24.651 12.594 39.312 0 37.379-30.309 67.688-67.688 67.688-16.771 0-32.082-6.1162-43.906-16.219 12.278 17.147 32.333 28.344 55.031 28.344 37.379 0 67.688-30.309 67.688-67.688 0-20.593-9.2075-39.024-23.719-51.438z" fill-opacity=".622" filter="url(#d)"/>
 <path transform="matrix(.21162 0 0 .19487 529.8 185.42)" d="m261.63 376.57c0 20.084-16.281 36.366-36.366 36.366s-36.366-16.281-36.366-36.366 16.281-36.366 36.366-36.366 36.366 16.281 36.366 36.366z" fill="url(#b)"/>
 <path transform="matrix(.1137 0 0 .1047 541.84 218.59)" d="m361.94 352.33c4.2784 8.1764 6.7364 17.46 6.7364 27.328 0 32.622-26.452 59.073-59.073 59.073-18.246 0-34.547-8.3009-45.382-21.3 9.8409 18.931 29.635 31.882 52.446 31.882 32.622 0 59.046-26.452 59.046-59.073 0-14.432-5.1757-27.65-13.773-37.91z" fill="#666" fill-opacity=".573" filter="url(#e)"/>
 <path transform="matrix(.25842 -.08753 .09307 .23301 486.41 164.95)" d="m204.05 478.6c0 10.042-9.4975 18.183-21.213 18.183s-21.213-8.1407-21.213-18.183 9.4975-18.183 21.213-18.183 21.213 8.1407 21.213 18.183z" fill="url(#a)" opacity=".851"/>
 <path transform="matrix(.11371 0 0 .11779 556.58 196.18)" d="m184.86 491.73c0 4.4631-4.0703 8.0812-9.0914 8.0812s-9.0914-3.6181-9.0914-8.0812 4.0703-8.0812 9.0914-8.0812 9.0914 3.6181 9.0914 8.0812z" fill="#fff" filter="url(#c)"/>
 <path transform="matrix(.1137 0 0 .1047 136.07 118.61)" d="m366.21 345.31c7.9227 11.082 12.594 24.651 12.594 39.312 0 37.379-30.309 67.688-67.688 67.688-16.771 0-32.082-6.1162-43.906-16.219 12.278 17.147 32.333 28.344 55.031 28.344 37.379 0 67.688-30.309 67.688-67.688 0-20.593-9.2075-39.024-23.719-51.438z" fill-opacity=".622" filter="url(#d)"/>
 <path transform="matrix(.21162 0 0 .19487 124.09 85.423)" d="m261.63 376.57c0 20.084-16.281 36.366-36.366 36.366s-36.366-16.281-36.366-36.366 16.281-36.366 36.366-36.366 36.366 16.281 36.366 36.366z" fill="url(#b)"/>
 <path transform="matrix(.1137 0 0 .1047 136.13 118.59)" d="m361.94 352.33c4.2784 8.1764 6.7364 17.46 6.7364 27.328 0 32.622-26.452 59.073-59.073 59.073-18.246 0-34.547-8.3009-45.382-21.3 9.8409 18.931 29.635 31.882 52.446 31.882 32.622 0 59.046-26.452 59.046-59.073 0-14.432-5.1757-27.65-13.773-37.91z" fill="#666" fill-opacity=".573" filter="url(#e)"/>
 <path transform="matrix(.25842 -.08753 .09307 .23301 80.701 64.948)" d="m204.05 478.6c0 10.042-9.4975 18.183-21.213 18.183s-21.213-8.1407-21.213-18.183 9.4975-18.183 21.213-18.183 21.213 8.1407 21.213 18.183z" fill="url(#a)" opacity=".851"/>
 <path transform="matrix(.11371 0 0 .11779 150.87 96.181)" d="m184.86 491.73c0 4.4631-4.0703 8.0812-9.0914 8.0812s-9.0914-3.6181-9.0914-8.0812 4.0703-8.0812 9.0914-8.0812 9.0914 3.6181 9.0914 8.0812z" fill="#fff" filter="url(#c)"/>
</svg>
