<?xml version="1.0" encoding="UTF-8"?>
<svg viewBox="0 0 679.85107 273.03406" xmlns="http://www.w3.org/2000/svg">
 <defs>
  <filter id="a">
   <feGaussianBlur stdDeviation="1.55362"/>
  </filter>
  <filter id="b" x="-.13316" y="-.1746" width="1.2663" height="1.3492">
   <feGaussianBlur stdDeviation="4.22174"/>
  </filter>
 </defs>
 <g transform="translate(-20.718 -59.433)">
  <path d="m21.218 263.5c2.7374-12.35 37.021-28.273 60.167-39.513 26.643-46.936 68.322-80.419 111.88-112.22-51.922 7.8154-100.86 24.267-148.04 56.914 59.482-41.546 121.43-75.806 216.81-79.95l91.468-0.67754c21.374-5.1847 32.66-16.789 44.379-28.118-4.203 9.3487-6.6282 18.212-20.326 30.151 12.926-3.2052 20.417-10.292 27.102-17.955-4.568 6.5762-5.112 11.945-17.955 21.004l28.457-0.33877c25.499-6.1143 44.632-17.003 63.012-28.457-10.597 16.009-22.735 24.348-34.555 33.538 40.621 13.129 67.56 10.02 94.517-8.4693-7.2961 7.5659-14.955 15.132-28.457 22.698 25.459 2.3468 53.925-12.346 81.983-24.73-14.829 14.595-27.851 29.848-52.171 40.991 48.148 12.712 71.436 2.4778 96.889-5.7591-11.163 10.567-22.426 21.083-40.653 28.118 37.404 12.785 56.788 4.3692 79.611 0-12.063 9.281-22.768 19.303-44.379 23.375 25.485 7.8397 49.035 10.199 69.11 2.7102-19.245 17.667-41.624 27.496-68.093 27.102 8.466 10.53 23.727 14.642 48.444 9.8244-17.988 6.2333-36.059 12.359-66.399 2.7102l-5.0816 8.4693c19.468 7.3821 26.01 16.611 33.2 25.747-12.787-10.866-28.343-15.501-44.718-18.294-6.1869 6.1817-8.9805 7.8094-12.873 10.502 21.195 8.1305 28.571 16.261 37.604 24.392-15.358-8.9422-30.715-15.212-46.073-16.939l-12.196 6.4367c16.133 9.544 24.884 14.463 36.249 30.151-16.321-9.9251-32.529-19.956-60.301-19.31l-26.424 14.906c10.564 5.1835 20.704 11.214 29.473 19.988-24.73-13.601-49.242-19.232-78.934-7.1142 16.254 8.8421 28.232 21.427 37.265 36.587-18.76-16.506-38.618-27.27-60.979-31.167 8.5115 6.4367 12.789 12.873 15.922 19.31-17.993-14.813-39.937-19.967-66.061-14.906 9.7087 5.6349 16.904 11.484 20.665 20.665-23.562-20.687-63.412-23.533-105.7-23.714-54.642 0.99445-103.31-8.9083-150.08-21.681-14.535-1.4336-21.606 1.7973-29.134 4.7428-19.802 3.034-39.557 5.6896-57.591-5.4204-20.755-1.8508-43.668-4.5298-47.041-16.299z" fill-rule="evenodd" stroke="#000"/>
  <path d="m81.471 268.62c9.9932 12.564 26.987 14.626 44.04 16.6 7.6132-2.1193 9.5969-5.4449 28.796-5.0816 51.134 13.786 124.4 17.356 210.72 14.906 86.268 4.9822 159.45-21.935 216.81-87.403-69.154-31.572-133.62-68.191-224.27-75.885-197.75-25.48-194.11 121.73-276.1 136.86z" fill="#666" fill-rule="evenodd"/>
  <path d="m97.732 264.21c14.906 2.2585 28.909-1.3551 42.008 1.3551l64.367 23.037c-8.702 4.7752-51.748-11.456-57.591-8.1305l-19.649 4.0653c-16.715-1.8017-34.521-0.69171-46.073-16.261l16.939-4.0653z" fill="#999" fill-rule="evenodd" opacity=".89674"/>
  <path d="m133.64 242.53c55.786-99.907 127.73-115.69 193.78-113.15 90.121 2.0175 164.86 34.797 237.14 72.497-82.148 127.31-408.08 87.763-430.92 40.653z" fill="#808080" fill-rule="evenodd"/>
  <path d="m135 241.85z" fill="none" stroke="#000"/>
  <path d="m153.97 241.18c62.074-119.19 321.06-87.921 372.65-12.873-56.914 94.193-400.65 56.447-372.65 12.873z" fill="#e6e6e6" fill-rule="evenodd" opacity=".79891"/>
  <path transform="matrix(1.6099 0 0 1.5133 -128.61 -434.87)" d="m374 417.86a74.53 68.093 0 1 1 -149.06 0 74.53 68.093 0 1 1 149.06 0z" fill-rule="evenodd" stroke="#000"/>
  <path transform="matrix(2.9649 0 0 3.4253 -751.06 -1270.5)" d="m403.14 428.36a31.167 23.714 0 1 1 -62.334 0 31.167 23.714 0 1 1 62.334 0z" fill="#008000" filter="url(#b)" stroke="#000"/>
  <path transform="matrix(1.1963 0 0 1.2014 -123.33 -300.65)" d="m421.43 408.71a27.102 26.424 0 1 1 -54.204 0 27.102 26.424 0 1 1 54.204 0z"/>
  <path d="m391.79 157.16c14.53 6.148 17.632 16.105 21.681 25.747 14.161 76.728-40.668 88.508-69.787 90.113-46.172-6.752-91.609-40.149-59.624-109.76 2.4135-6.5046 19.385-13.017 27.779-12.873-33.366 56.36 1.1351 81.012 30.49 85.371 42.371-0.31437 66.014-24.099 49.461-78.595z" fill="#d5fff6" fill-rule="evenodd" opacity=".44022"/>
  <path d="m298.96 157.84c-14.833 41.799-4.2184 61.967 16.939 73.175 40.627 18.427 81.22 1.9563 84.016-37.265-15.996 66.343-125.57 49.465-100.95-35.91z" fill="#d5fff6" fill-rule="evenodd" filter="url(#a)"/>
  <g transform="matrix(1.0471 0 0 .81314 -227.07 -21.505)" fill="#fff" fill-rule="evenodd">
   <path d="m508.02 261.68-9.2841-0.33382-13.056 2.9976 13.214-0.34439 9.1258-2.3194z"/>
   <path d="m566.73 306.45-1.1742 9.279 2.9354 13.256 0.20843-4.7062 0.37866-8.5495-2.3484-9.279z"/>
   <path d="m532.12 306.87-4.3546 8.2272-1.9034 13.38 5.2003-12.138 1.0577-9.4693z"/>
   <path d="m544.3 310.85-1.1744 9.2342 2.9359 13.192 0.58718-13.192-2.3487-9.2342z"/>
   <path d="m516.95 297.19-7.0687 6.0566-6.6782 11.749 9.2898-9.3843 4.4572-8.4214z"/>
   <path d="m574.27 299.67 0.96871 8.7831 6.3522 10.47-2.5582-12.056-4.7627-7.1965z"/>
   <path d="m580.73 291.94 4.6589 8.0588 10.327 8.718-7.5232-10.852-7.4622-5.9248z"/>
   <path d="m509.59 286.63-6.9782 6.1327-7.4323 11.144 9.3693-9.3243 5.0412-7.9528z"/>
   <path d="m505.79 277.57-8.5061 3.8519-8.987 10.305 11.404-6.6379 6.0895-7.5193z"/>
   <path d="m506.39 251.66-8.1014-4.5467-12.98-3.3113 11.906 5.7427 9.1753 2.1153z"/>
   <path d="m511.42 238.41-6.0919-7.0383-11.782-6.6194 9.4306 9.2428 8.4436 4.415z"/>
   <path d="m503.02 273.51-9.3307-0.12437-12.85 2.5215 13.216-0.4603 8.9648-1.9368z"/>
  </g>
 </g>
</svg>
