<svg width="381.66315" xmlns="http://www.w3.org/2000/svg" height="339.89957" xmlns:xlink="http://www.w3.org/1999/xlink">
<defs>
<filter width="1.436951" x="-0.218475" y="-0.266267" height="1.532534" style="color-interpolation-filters:sRGB" id="filter4052">
<feGaussianBlur stdDeviation="1.403421" id="feGaussianBlur4054"/>
</filter>
<filter style="color-interpolation-filters:sRGB" id="filter4096">
<feGaussianBlur stdDeviation="0.024736" id="feGaussianBlur4098"/>
</filter>
<filter width="1.326609" x="-0.163304" y="-0.012952" height="1.025903" style="color-interpolation-filters:sRGB" id="filter3828">
<feGaussianBlur stdDeviation="0.874906" id="feGaussianBlur3830"/>
</filter>
<filter width="1.45" x="-0.225" y="-0.45" height="1.899999" style="color-interpolation-filters:sRGB" id="filter3906">
<feGaussianBlur stdDeviation="0.741196" id="feGaussianBlur3908"/>
</filter>
<filter width="1.354523" x="-0.177261" y="-0.016312" height="1.032625" style="color-interpolation-filters:sRGB" id="filter4042">
<feGaussianBlur stdDeviation="1.238715" id="feGaussianBlur4044"/>
</filter>
<filter style="color-interpolation-filters:sRGB" id="filter3846">
<feGaussianBlur stdDeviation="0.212471" id="feGaussianBlur3848"/>
</filter>
<filter style="color-interpolation-filters:sRGB" id="filter3966">
<feGaussianBlur stdDeviation="1.123681" id="feGaussianBlur3968"/>
</filter>
<filter style="color-interpolation-filters:sRGB" id="filter3948">
<feGaussianBlur stdDeviation="0.976932" id="feGaussianBlur3950"/>
</filter>
<filter id="filter4991">
<feGaussianBlur stdDeviation="0.012299" id="feGaussianBlur4993"/>
</filter>
<linearGradient id="linearGradient3007" xlink:href="#linearGradient3729" y1="0.565039" y2="0.565039" x1="-0.076237" x2="0.838561"/>
<linearGradient id="linearGradient2995" xlink:href="#linearGradient3765" y1="0.319165" y2="0.547791" x1="0.562906" x2="0.578435"/>
<linearGradient id="linearGradient3004" xlink:href="#linearGradient4074" y1="0.759076" y2="0.289343" x1="-0.000194" x2="0.37395"/>
<linearGradient id="linearGradient5698" xlink:href="#linearGradient4056" y1="0.5" y2="0.5" x1="0.384105" x2="1.002259"/>
<linearGradient id="linearGradient3001" xlink:href="#linearGradient3745" y1="0" y2="0.844195" x1="0" x2="0.062852"/>
<linearGradient id="linearGradient5696" xlink:href="#linearGradient3928" y1="0.5" y2="0.5" x1="-0.00267" x2="1.00267"/>
<linearGradient id="linearGradient2998" xlink:href="#linearGradient3653" y1="0.500375" y2="0.500375" x1="-0.006481" x2="1.001295"/>
<linearGradient id="linearGradient5694" xlink:href="#linearGradient3653" y1="0.034835" y2="0.034835" x1="-8.816" x2="3.858102"/>
<linearGradient id="linearGradient4985">
<stop offset="0" style="stop-color:#cacbff" id="stop4987"/>
<stop offset="1" style="stop-color:#fff;stop-opacity:0" id="stop4989"/>
</linearGradient>
<linearGradient id="linearGradient3928">
<stop offset="0" style="stop-color:#b9b9b7;stop-opacity:.105" id="stop3930"/>
<stop offset="0.796742" style="stop-color:#c9c9c6" id="stop3932"/>
<stop offset="1" style="stop-color:#dadad6;stop-opacity:0" id="stop3934"/>
</linearGradient>
<linearGradient id="linearGradient4056">
<stop offset="0" style="stop-color:#b9b9b7;stop-opacity:.063" id="stop4058"/>
<stop offset="0.566075" style="stop-color:#c9c9c6" id="stop4060"/>
<stop offset="1" style="stop-color:#dadad6;stop-opacity:0" id="stop4062"/>
</linearGradient>
<linearGradient id="linearGradient4100">
<stop offset="0" style="stop-color:#5b5b5d" id="stop4102"/>
<stop offset="1" style="stop-color:#7f7980;stop-opacity:0" id="stop4104"/>
</linearGradient>
<linearGradient id="svg_1" xlink:href="#linearGradient4100" y1="Infinity" y2="Infinity" x1="0.999997" x2="0.000001"/>
<linearGradient id="linearGradient4074">
<stop offset="0" style="stop-color:#494444;stop-opacity:0" id="stop4076"/>
<stop offset="0.518086" style="stop-color:#444949" id="stop4078"/>
<stop offset="1" style="stop-color:#999;stop-opacity:0" id="stop4080"/>
</linearGradient>
<linearGradient id="linearGradient3653">
<stop offset="0" style="stop-color:#d4d2d2" id="stop3655"/>
<stop offset="1" style="stop-color:#888" id="stop3657"/>
</linearGradient>
<linearGradient id="linearGradient3765">
<stop offset="0" style="stop-color:#494444;stop-opacity:0" id="stop3767"/>
<stop offset="0.478546" style="stop-color:#444949" id="stop3771"/>
<stop offset="1" style="stop-color:#999;stop-opacity:0" id="stop3769"/>
</linearGradient>
<linearGradient id="linearGradient3729">
<stop offset="0" style="stop-color:#464642" id="stop3731"/>
<stop offset="1" style="stop-color:#999;stop-opacity:0" id="stop3733"/>
</linearGradient>
<linearGradient id="linearGradient3745">
<stop offset="0" style="stop-color:#b9b9b7" id="stop3751"/>
<stop offset="0.796742" style="stop-color:#c9c9c6" id="stop3753"/>
<stop offset="1" style="stop-color:#dadad6;stop-opacity:0" id="stop3749"/>
</linearGradient>
<marker orient="auto" refX="0" refY="0" id="SquareS">
<path style="stroke:#000;fill-rule:evenodd;stroke-width:1.25" id="path4196" d="m-5,-5l0,10l10,0l0,-10l-10,0z" transform="scale(0.2,0.2)"/>
</marker>
<marker orient="auto" refX="0" refY="0" id="DotS">
<path style="stroke:#000;fill-rule:evenodd;stroke-width:1.25" id="path4187" d="m0.98,0c0,0.552 -0.448,1 -1,1c-0.552,0 -1,-0.448 -1,-1c0,-0.552 0.448,-1 1,-1c0.552,0 1,0.448 1,1z"/>
</marker>
<marker orient="auto" refX="0" refY="0" id="Arrow2Send">
<path style="fill-rule:evenodd;stroke-linejoin:round;stroke-width:.625" id="path4152" d="m -1.9256,-1.2101 l 3.2778,1.2053 -3.2778,1.2053 c 0.52365,-0.711618 0.520632,-1.68524 0,-2.41064 z "/>
</marker>
<radialGradient fx="697.69489" fy="130.2924" cx="697.69489" cy="130.2924" r="1.229883" id="radialGradient5122" xlink:href="#linearGradient4985" gradientUnits="userSpaceOnUse"/>
</defs>
<g>
<g id="layer1" externalResourcesRequired="false">
<g id="g5198" externalResourcesRequired="false">
<path style="fill:#343334;stroke-width:1.5" id="path2850" d="m 44.4759,331.655 c 3.3038,-2.76901 6.7686,-11.811 7.0738,-18.462 0.142399,-3.10199 -4.0302,-58.988 -9.2725,-124.193 -5.2422,-65.204 -9.3845,-119.537 -9.2051,-120.741 0.179298,-1.2036 1.2837,-4.3238 2.454,-6.9339 2.055,-4.5831 2.3396,-4.8304 8.3105,-7.2196 3.4004,-1.3606 26.4181,-8.0073 51.1504,-14.7703 61.306,-16.7639 86.088,-21.7295 139.078,-27.8671 45.432,-5.26221 84.346,-8.22662 100.962,-7.69126 11.467,0.36947 11.579,0.39014 16.196,2.9939 4.01502,2.26504 5.06399,3.43416 7.703,8.59006 l 3.056,5.9683 8.334,109.0067 c 8.04098,105.185 8.28198,109.226 6.87,115.274 -0.804016,3.44701 -2.53799,8.24699 -3.85199,10.667 l -2.39,4.399 -162.846,36.258 c -89.566,19.941 -172.775,41.44 -173.557,41.493 -1.1379,0.07901 8.2802,-5.38501 9.9346,-6.772 z "/>
<path style="stroke-width:4" id="path3663" d="m 5.7097,149.024 c 0,0 -6.1064,-69.1347 -5.68923,-73.4292 1.56299,-7.2607 -0.42868,-9.5008 7.40152,-13.9885 4.75105,-2.5741 21.8581,-10.9426 24.9828,-11.0701 1.2188,-0.049702 -5.9966,7.925 -8.9133,11.2652 l -5.3031,6.0732 -.6096,8.7672 c -0.357399,5.137 1.2145,32.1152 3.7962,65.1552 4.6516,59.534 4.8868,76.785 1.1425,83.792 -0.9844,1.84199 -3.9016,5.008 -6.4828,7.036 -2.5811,2.02699 -4.4136,3.54201 -4.4837,3.537 -1.327,-29.065 -3.60833,-58.117 -5.84124,-87.138 z "/>
<path style="fill:#999;stroke-width:3" id="path3713" d="m 19.6627,321.978 c -0.204601,-1.289 -1.4625,-2.181 -2.3843,-3.104 -1.9036,-1.90799 -6.1211,-2.41598 -6.4021,-4.93601 -1.8814,-16.88 -5.04108,-53.73 -5.04108,-53.73 0,0 -0.30794,-2.45502 0.5168,-4.31001 0.85405,-1.92099 5.71058,-3.616 5.71058,-3.616 0.0595,0.298996 0.4112,0.658005 -0.3596,-9.25099 -0.1142,-4.69301 -0.1326,-7.699 -0.1356,-7.88101 -0.0031,-0.181992 0.2635,-1.273 1.7979,-3.02699 2.8685,-3.44701 4.7067,-7.535 7.152,-11.306 5.7154,-8.653 2.3343,-10.115 2.3328,-23.458 -0.000799,-7.25299 -1.8393,-23.703 -5.4003,-62.707 -3.2673,-35.7849 -6.8146,-59.8228 -2.6113,-70.0595 4.2033,-10.2367 1.5195,-3.5408 4.3777,-6.7421 2.8581,-3.2013 5.9936,-4.4588 11.7668,-7.6391 l 29.0062,-8.3467 c 65.3078,-18.5202 114.783,-26.1795 130.804,-28.227 21.809,-3.94923 -23.689,7.2217 -36.517,10.672 -18.184,3.8056 -103.073,23.2412 -112.513,26.9634 l -5.2186,2.9732 -2.1461,4.2574 c -2.0873,5.0566 -5.934,-1.3054 4.6839,130.878 5.1893,64.602 10.2723,119.491 10.2727,122.317 0.000599,4.883 2.5953,4.56198 -0.652401,11.136 l -2.1993,5.639 -6.0051,3.113 c -5.9122,3.06601 -6.729,4.259 -11.2616,4.54199 l -8.1488,.223 c 0,0 -0.6796,-7.37698 -0.6796,-7.37698 0,0 -0.368799,-4.62201 -0.745899,-6.99701 z  m -1.8112,-9.848 c 2.547,-1.30002 2.5283,-1.18301 1.6257,-10.113 -0.570599,-5.647 -0.632999,-5.828 -2.7333,-7.94598 -1.7707,-1.785 -2.4065,-2.10303 -3.6085,-1.80102 -1.145,0.287018 -1.404,0.634003 -1.2033,1.60901 0.140599,0.68399 0.539499,5.01001 0.8863,9.61301 0.3469,4.604 0.7295,8.68399 0.8503,9.06799 0.3148,1 1.6488,0.862 4.1828,-0.429993 z "/>
<g id="g3715" transform="matrix(1.15746 0 0 1.10122 -3.14324 -51.1941)">
<path style="fill:none;stroke:#c4c3c3;stroke-linecap:round;stroke-width:2.214" id="path3665" d="m 13.7946,312.264 l 1.8143,18.61"/>
<path style="stroke-width:4" id="path3669" d="m 16.6178,331.543 c -0.626699,-6.845 -1.278,-13.338 -2.0864,-20.17 0.0579,-0.069977 4.1281,2.81702 4.612,3.75302 0.583,1.12799 1.2897,12.049 1.2897,14.09 0,0.466003 -0.438299,1.18298 -1.8662,1.75101 l -1.9491,.576 z "/>
</g>
<path style="fill:url(#linearGradient3007)" id="path3719" d="m 16.8976,226.675 l 3.0987,-5.548 .0578,19.627 2.3674,6.313 -10.0613,5.129 -.9371,-17.459 5.4745,-8.062 z "/>
<path style="fill:url(#linearGradient3004)" id="path4064" d="m 35.8697,59.9514 c 9.7466,-10.0562 44.2345,-13.0462 44.2345,-13.0462 l 20.5448,19.2815 c 0,0 -27.4282,7.9797 -34.1016,19.7326 -3.9303,6.92171 -0.698898,24.7167 -0.698898,24.7167 l -27.6727,-.279 -4.0531,-41.8539 c 0,0 -0.277901,-6.4625 1.747,-8.5517 z "/>
<path style="fill:url(#linearGradient3001)" id="path3735" d="m 14.0681,88.0099 l 16.2075,-1.5813 1.4455,-16.9981 .6269,-8.9282 3.0665,-6.0934 9.8148,-4.3003 35.5775,-9.8827 66.4472,-15.9759 14.85,-4.7437 -80.4388,16.3233 -39.5305,11.0686 -13.4403,4.1846 c 0,0 -8.3008,4.0092 -11.1364,7.4628 -2.5095,3.0565 -4.56,10.9528 -4.56,10.9528 l 1.0701,18.5115 z "/>
<path style="fill:none;stroke:url(#linearGradient2998);stroke-linecap:round;stroke-width:4" id="path2844" d="m 22.6985,337.706 c 0,0 5.8169,0.537018 8.5897,-0.178986 5.1344,-1.32602 10.4716,-3.52402 14.0757,-7.414 3.008,-3.246 4.364,-7.853 5.275,-12.184 0.829899,-3.94498 0.392498,-8.07599 0.073399,-12.095 -6.2439,-78.648 -13.5377,-165.837 -18.7819,-233.678 -0.197701,-2.55821 -0.161701,-5.4515 0.575798,-8.0326 0.8806,-3.0822 2.1166,-6.3459 4.4837,-8.5075 3.5841,-3.2729 8.787,-4.2246 13.4434,-5.594 29.8468,-8.7779 59.4577,-16.9708 89.5477,-24.0199 18,-4.2167 36.114,-8.0392 54.375,-10.919 27.119,-4.2766 81.823,-9.42186 81.823,-9.42186 0,0 31.991,-2.97919 48.038,-3.21627 7.74399,-0.11441 15.797,-1.34828 23.218,0.86657 3.551,1.05989 7.01401,3.0128 9.521,5.74263 3.048,3.32023 5.55499,7.64363 5.974,12.1317 7.00302,74.9768 11.636,145.312 16.696,218.667 0.35498,5.151 -1.866,9.121 -4.241,13.017 -1.73602,2.847 -7.035,7.10901 -7.035,7.10901"/>
<path style="fill:url(#linearGradient2995)" id="path3755" d="m 52.3826,294.242 l 325.1824,-64.559 -.156,15.676 -8.853,12.513 -319.4034,71.901 4.0206,-14.975 -.7906,-20.556 z "/>
<g style="fill:none">
<g style="stroke-linecap:round">
<path style="filter:url(#filter3828);stroke:#797779;stroke-width:1.948" id="path3810" d="m 341.039,42.5457 l 12.858,170.8423"/>
<path style="filter:url(#filter3846);stroke:url(#linearGradient5694);stroke-width:2.026" id="path3832" d="m 353.733,220.349 c 0,0 0.471985,-0.557999 -0.437988,1.63699 -0.840027,2.02701 -3.591,2.98801 -3.591,2.98801"/>
</g>
<path style="filter:url(#filter3906);stroke:#918e8e;stroke-width:2.8" id="path3896" d="m 338.988,40.007 c 0,0 -1.55902,-2.0506 -2.862,-2.8653 -1.496,-0.9352 -3.60001,-1.1887 -3.60001,-1.1887"/>
<path style="filter:url(#filter3966);stroke:url(#linearGradient5696)" id="path3952" d="m 106.799,276.673 l 187.28,-37.456"/>
<g style="stroke:#000">
<path style="filter:url(#filter4052);stroke-width:1.778" id="path4046" d="m 65.6703,92.5457 l 3.1166,-6.6612 8.0139,-5.7731 6.233,-1.7764"/>
<path style="filter:url(#filter4042);stroke-width:2" id="path4032" d="m 83.3187,276.114 l -16.7714,-182.249"/>
</g>
<path style="filter:url(#filter3948);stroke:url(#linearGradient5698)" id="path3918" d="m 87.232,75.9755 l 221.382,-39.1332"/>
</g>
<path style="filter:url(#filter4096);stroke:url(#svg_1);stroke-width:.5" id="path4082" d="m 54.1086,190.44 a 2.58559,3.35427 0 1,1 5.1712,0 2.58559,3.35427 0 1,1 -5.1712,0 z "/>
<path style="stroke-width:.476" id="path4110" d="m 33.0588,301.718 c 0,0.695007 -0.573502,1.259 -1.281,1.259 -0.7075,0 -1.281,-0.563995 -1.281,-1.259 0,-0.694977 0.5735,-1.25897 1.281,-1.25897 0.707499,0 1.281,0.563995 1.281,1.25897 z "/>
<g style="fill:none">
<g style="stroke-width:.8;stroke:#000">
<path style="marker-end:url(#Arrow2Send)" id="path4114" d="m 31.1549,301.888 l -7.858,1.085"/>
<path style="marker-end:url(#SquareS)" id="path4564" d="m 27.8855,302.059 c 0,0 0.0271,-1.47 -1.0702,-1.569 -0.8006,-0.070984 -1.9264,-0.023987 -1.9264,-0.023987"/>
<path style="marker-end:url(#DotS)" id="path5318" d="m 29.1267,302.373 c 0,0 0.230301,1.24701 -0.121099,1.74301 -0.503401,0.710999 -2.2401,0.657013 -2.2401,0.657013"/>
</g>
<path style="stroke:#737375;stroke-width:.3" id="path5526" d="m 13.1786,292.778 l 1.9766,20.556"/>
</g>
<g style="font-family:Symbol;fill:#cfcfcf;font-size:18px" id="text5528" transform="matrix(0.907955 -0.114253 0.171376 1.07981 0 0)">
<path id="path5533" d="m 196.114,61.2714 v -3.5244 h -2.89999 v -1.459 h 4.65799 v 5.6338 c -0.684998,0.486301 -1.44099,0.855503 -2.267,1.1074 -0.826996,0.246098 -1.70799,0.369099 -2.646,0.369099 -2.051,0 -3.65601,-0.597599 -4.81599,-1.7929 -1.155,-1.2012 -1.73201,-2.8711 -1.73201,-5.0098 0,-2.1445 0.577011,-3.8144 1.73201,-5.0098 1.15999,-1.2011 2.765,-1.8017 4.81599,-1.8017 0.854996,0 1.66701,0.105499 2.435,0.316399 0.77301,0.210903 1.485,0.521503 2.13501,0.931602 v 1.8897 c -0.656006,-0.556599 -1.35301,-0.975597 -2.091,-1.2569 -0.738998,-0.2812 -1.515,-0.421803 -2.33,-0.421803 -1.605,0 -2.812,0.4482 -3.621,1.3447 -0.802002,0.8965 -1.20399,2.2324 -1.20399,4.0078 0,1.7696 0.401993,3.1026 1.20399,3.999 0.809006,0.8965 2.01601,1.3448 3.621,1.3448 0.626999,0 1.187,-0.0527 1.679,-0.158199 0.492004,-0.111401 0.934998,-0.2813 1.327,-0.5098"/>
<path id="path5535" d="m 208.63,51.4804 v 4.9306 h 2.232 c 0.826996,0 1.465,-0.213799 1.916,-0.641598 0.451996,-0.4277 0.677002,-1.0371 0.677002,-1.8281 0,-0.785099 -0.225006,-1.3916 -0.677002,-1.8193 -0.451004,-0.4277 -1.089,-0.641602 -1.916,-0.641602 h -2.232 m -1.775,-1.459 h 4.007 c 1.47099,0 2.58099,0.334 3.33099,1.0019 0.756012,0.662201 1.134,1.6348 1.134,2.918 0,1.2949 -0.377991,2.2735 -1.134,2.9356 -0.75,0.662102 -1.86,0.993099 -3.33099,0.993099 h -2.232 v 5.2735 h -1.77501 v -13.1221"/>
<path id="path5537" d="m 231.314,50.4521 v 1.7314 c -0.672989,-0.322197 -1.30899,-0.5625 -1.907,-0.720699 -0.597,-0.158199 -1.175,-0.237301 -1.731,-0.237301 -0.966995,0 -1.71399,0.1875 -2.241,0.5625 -0.522003,0.375 -0.783005,0.908203 -0.783005,1.5996 0,0.580101 0.173004,1.0195 0.519012,1.3184 0.35199,0.2929 1.01399,0.530197 1.98599,0.711899 l 1.073,.2197 c 1.324,0.251999 2.29901,0.6973 2.92601,1.3359 0.632996,0.6329 0.949997,1.4825 0.949997,2.5489 0,1.2715 -0.428009,2.2353 -1.284,2.8916 -0.848999,0.6562 -2.097,0.984299 -3.744,0.984299 -0.621002,0 -1.28301,-0.070301 -1.98601,-0.210899 -0.696991,-0.140602 -1.42099,-0.348602 -2.17099,-0.624001 v -1.8281 c 0.720993,0.404301 1.427,0.7089 2.118,0.914001 0.692001,0.205101 1.371,0.307602 2.039,0.307602 1.01399,0 1.79599,-0.1992 2.347,-0.597603 0.550995,-0.398499 0.826004,-0.966797 0.826004,-1.7051 0,-0.644501 -0.199005,-1.1484 -0.598007,-1.5117 -0.391998,-0.3633 -1.03999,-0.635803 -1.942,-0.817402 l -1.081,-.2109 c -1.324,-0.263702 -2.282,-0.6768 -2.87401,-1.2393 -0.591995,-0.5625 -0.888,-1.3447 -0.888,-2.3467 0,-1.1601 0.406998,-2.0742 1.222,-2.7422 0.820007,-0.6679 1.948,-1.0019 3.384,-1.0019 0.615005,0 1.242,0.055702 1.881,0.167 0.638,0.111301 1.29201,0.278301 1.959,0.500999"/>
</g>
<path style="fill:#b3b3b3;stroke-width:2.5" id="path3820" d="m 26.7418,305.628 c -0.347,-0.082001 -0.607601,-0.35199 -0.669401,-0.692993 -0.152498,-0.84201 0.939402,-1.35901 1.4856,-0.70401 l .1204,.144 .3181,-.076 c 0.391399,-0.093018 0.659,-0.22702 0.776199,-0.389008 0.076801,-0.106018 0.091002,-0.200012 0.1033,-0.687012 0.013201,-0.522003 0.008001,-0.563995 -0.064899,-0.565979 -0.209,-0.005005 -4.0379,0.549988 -4.0379,0.584991 0,0.022003 0.059801,0.138 0.133001,0.257996 0.073099,0.119995 0.107199,0.208008 0.075699,0.196014 -0.0315,-0.011017 -0.587799,-0.137024 -1.2362,-0.278015 -0.6485,-0.141998 -1.1789,-0.266998 -1.1787,-0.278992 0.000401,-0.024017 0.037601,-0.044006 1.3116,-0.72702 0.471701,-0.252991 0.864201,-0.452972 0.872301,-0.444977 0.007999,0.007996 -0.0103,0.113983 -0.0408,0.233978 -0.053301,0.209015 -0.051901,0.218018 0.036301,0.230011 0.098099,0.013 2.8338,-0.363007 2.8641,-0.394012 0.040699,-0.040985 -0.0835,-0.54599 -0.182899,-0.743988 -0.1471,-0.291992 -0.318401,-0.362 -0.977901,-0.394989 l -.5083,-.025 v 0.235016 0.234009 l -.3137,.024 c -0.172501,0.013 -0.561901,0.035004 -0.865301,0.048004 l -.5516,.024 v -0.276978 c 0,-0.153015 -0.0126,-0.544006 -0.028101,-0.869019 l -.0281,-.591 .6446,-.027 c 0.3545,-0.015015 0.746901,-0.033997 0.871799,-0.041016 l .2271,-.014 v 0.247009 0.247009 l .6396,.044 c 0.534698,0.03598 0.6789,0.060974 0.879,0.153992 0.4524,0.208008 0.7509,0.641998 0.881599,1.28 0.038799,0.190002 0.074501,0.347992 0.0791,0.350983 0.005001,0.003021 0.497301,-0.061981 1.0948,-0.145996 l 1.0863,-.152 .0721,-.231 c 0.0954,-0.304993 0.3878,-0.632996 0.677799,-0.757996 0.4536,-0.196991 1.0243,-0.091003 1.3508,0.25 0.256302,0.268005 0.356003,0.509003 0.356003,0.859009 0,0.342987 -0.0975,0.585999 -0.3391,0.845978 -0.460102,0.494019 -1.3166,0.476013 -1.7769,-0.038971 l -.1691,-.19 -.4366,.055 c -0.2402,0.029999 -0.492802,0.06601 -0.561401,0.079987 l -.1246,.025 .0282,.378 c 0.0334,0.446991 -0.026899,0.938995 -0.149601,1.21899 -0.2036,0.464996 -0.716299,0.783997 -1.4815,0.923004 -0.2411,0.044006 -0.2861,0.069 -0.4522,0.26001 -0.223801,0.256989 -0.5315,0.372986 -0.810701,0.306976 h 0.000101 z "/>
<g id="g5061" externalResourcesRequired="false">
<path style="fill:#fff6d5;stroke-width:.5" id="path3691-0" d="m 88.1205,272.662 c -1.579,-2.03497 -1.6099,-6.97998 -1.6099,-6.97998 l -7.9531,-85.934 -7.5579,-87.9107 1.9906,-3.2769 c 1.27351,-2.09641 2.76141,-3.7101 4.1304,-4.4795 6.4569,-3.62901 8.0688,-3.9473 130.658,-25.8022 65.483,-11.6742 119.506,-21.2257 120.05,-21.2257 0.543976,0 2.58398,0.500198 4.535,1.1117 3.34,1.0471 3.65299,1.296 5.38998,4.2815 l 1.845,3.1699 6.476,85.3089 6.476,85.309 -1.067,2.533 c -0.942017,2.237 -1.55402,2.789 -5.25101,4.731 -4.12201,2.166 -6.005,2.571 -125.454,27.009 -66.697,13.645 -121.688,24.78 -122.2,24.744 -4.7037,0.52298 -8.879,-0.554016 -10.4581,-2.58902 z "/>
<g style="fill:#98c464">
<path id="path3935" d="m 316.491,96.785 c -4.88,-0.618004 -8.98599,-1.2402 -9.12201,-1.38251 -0.200989,-0.209 1.78403,-24.9849 2.06802,-25.8273 0.044983,-0.132103 1.91299,-0.045601 4.151,0.1922 2.237,0.237801 7.39899,0.661499 11.47,0.941399 l 7.401,.5091 .501,6.0529 c 0.276001,3.3291 0.75,9.3773 1.052,13.4403 l .551,7.3874 -4.598,-.095 c -2.53,-0.0522 -8.59299,-0.600601 -13.474,-1.2186 v 0.000107 z "/>
<path id="path3937" d="m 229.429,157.233 c -6.20599,-1.564 -8.903,-9.282 -5.10899,-14.616 3.69899,-5.2 9.57399,-6.709 15.012,-3.85501 5.907,3.099 6.241,12.051 0.598999,16.045 -3.937,2.78799 -6.615,3.40599 -10.502,2.426 z "/>
<path id="path3939" d="m 121.514,115.135 c -22.8285,-5.752 -11.459,-2.687 -15.193,-4.403 -3.735,-1.715 0.546997,-6.673 9.264,-6.757 9.785,-0.094002 6.112,-0.172997 19.381,0.108002 l 24.824,.509 3.526,10.705 c 3.52901,10.171 3.043,10.422 1.40601,10.36 -0.934998,-0.035995 -20.379,-4.771 -43.208,-10.522 z "/>
</g>
<path style="fill:#8cb2d8;stroke:#8cb2d8;stroke-linecap:round" id="path3943" d="m 92.5811,274.502 c -3.2329,-0.71402 -5.0667,-2.582 -5.4722,-5.57303 -0.684204,-5.047 -4.8367,-51.538 -4.6765,-52.359 0.361893,-1.85501 8.21989,15.845 10.4949,23.64 3.576,12.252 6.0646,14.932 8.3247,19.751 2.583,5.509 2.97,5.763 3.92,9.01099 l 1.039,4.453 -3.979,.541 c -4.94151,0.934998 -7.26,1.06399 -9.6509,0.536011 z "/>
<path style="fill:#e6e646" id="path4078" d="m 95.6073,219.669 l -17.6455,-52.099 -1.8059,-20.757 c -0.993202,-11.417 -1.7956,-21.015 -1.7832,-21.33 0.012398,-0.314003 1.0086,2.274 2.2136,5.75299 12.6367,36.478 13.8922,39.86 14.8655,40.049 0.348999,0.067001 13.2322,-4.002 28.6282,-9.04201 60.56,-19.826 53.571,-17.395 53.285,-18.532 -0.475998,-1.899 -3.53201,-9.493 -4.13301,-10.27 -0.644989,-0.835999 -18.401,-5.29999 -70.9904,-17.85 l -25.3238,-6.043 -.5686,-6.773 -.5686,-6.7735 6.3249,.1332 c 15.7639,0.3321 79.4135,0.858406 79.7355,0.659302 0.197998,-0.1222 0.238998,-0.772102 0.091995,-1.4441 -0.272003,-1.238 -5.173,-12.9827 -8.827,-21.1534 -1.34401,-3.00581 -1.838,-4.5122 -1.51401,-4.611 0.89801,-0.2733 7.70601,-1.4005 8.44501,-1.3981 0.572998,0.001999 1.075,0.935196 2.284,4.2495 1.899,5.2037 7.29601,18.8305 8.694,21.9497 0.563004,1.2572 1.274,2.38171 1.58,2.4991 0.563004,0.216301 32.915,-6.0918 37.095,-7.23299 1.65801,-0.452805 2.273,-0.806602 2.273,-1.3084 0,-0.6996 -9.19499,-23.1606 -9.681,-23.6481 -0.145996,-0.146599 -4.651,-0.355499 -10.01,-0.464195 l -9.745,-.1977 22.11,-3.9343 22.11,-3.9343 28.877,1.7057 c 15.883,0.938103 42.308,2.5333 58.723,3.5449 l 29.846,1.8393 .295,1.3776 c 0.273987,1.2778 10.584,136.915 10.578,139.168 -0.002014,0.988007 -1.05502,1.392 -39.83,15.3 -21.904,7.856 -49.343,17.667 -60.975,21.802 l -21.149,7.518 -57.448,11.673 c -31.596,6.42001 -57.665,11.673 -57.93,11.673 -0.286003,0 -7.617,-21.069 -18.1267,-52.098 z  m 51.0277,42.035 c 21.485,-5.01502 48.058,-11.393 52.434,-12.584 2.362,-0.64299 2.352,-0.052002 0.147003,-8.582 -2.99701,-11.593 -7.229,-25.695 -7.711,-25.695 -1.55,0 -76.67,20.387 -78.063,21.186 -0.377998,0.216995 8.154,28.343 9.192,30.303 0.201996,0.380005 0.556999,0.69101 0.791,0.69101 0.232994,0 10.678,-2.39301 23.21,-5.319 z  m 71.408,-18.558 c 15.143,-5.3 28.66,-10.354 28.66,-10.715 0,-0.699997 -9.36,-25.692 -11.065,-29.546 -0.457001,-1.03299 -1.067,-1.87799 -1.355,-1.87799 -0.700012,0 -8.06201,2.33299 -23.207,7.353 l -12.502,4.144 .508,2.652 c 0.75,3.911 6.02699,23.561 7.746,28.841 0.442001,1.35901 1.01199,2.47 1.26599,2.47 0.254013,0 4.731,-1.49499 9.949,-3.321 z  m 59.545,-20.713 c 7.31198,-2.61 13.672,-4.946 14.132,-5.19299 0.460999,-0.246002 0.838013,-0.720001 0.838013,-1.05101 0,-0.572998 -42.167,-57.009 -44.109,-59.035 l -.922,-.963 -3.476,1.629 c -4.183,1.95999 -5.97,2.46599 -8.72499,2.46899 -1.438,0.001999 -2.155,0.177002 -2.304,0.563004 -0.216003,0.565002 3.942,14.949 14.067,48.655 3.004,10.001 5.662,18.928 5.90599,19.839 l .445,1.655 5.427,-1.912 c 2.98498,-1.052 11.409,-4.047 18.721,-6.65601 z  m -147.58,3.264 c 10.371,-2.727 19.16,-5.04901 19.531,-5.16 0.819992,-0.244995 1.23,0.865997 -4.71899,-12.809 -7.60701,-17.487 -17.967,-40.474 -18.506,-41.059 -0.417999,-0.45401 -1.188,-0.344009 -4.829,0.692993 -5.357,1.526 -29.0364,9.468 -29.4513,9.87801 -0.166595,0.164001 3.6143,11.796 8.4023,25.848 10.297,30.222 9.32501,27.567 10.093,27.567 0.341003,0 9.107,-2.231 19.479,-4.95799 z  m 37.397,-10.061 c 12.206,-3.192 21.119,-5.79601 22.145,-6.468 l .956,-.627 -3.755,-14.736 c -4.75201,-18.649 -11.507,-44.228 -11.741,-44.462 -0.429993,-0.430008 -39.328,12.825 -40.335,13.745 -0.483002,0.44101 9.026,23.795 19.021,46.715 l 3.404,7.807 h 1.37799 c 0.757004,0 4.77501,-0.888 8.927,-1.974 z  m 139.165,-5.564 c 19.643,-6.20201 33.801,-10.838 35.105,-11.496 0.815002,-0.411011 1.48203,-1.01201 1.48203,-1.336 0,-0.322998 -1.07901,-8.903 -2.39801,-19.065 -1.319,-10.162 -2.612,-20.167 -2.87201,-22.232 l -.473,-3.756 -2.168,.11 c -6.99399,0.352005 -46.075,2.623 -59.465,3.455 -8.68402,0.540009 -16.293,0.981003 -16.909,0.981003 h -1.121 l .626,1.211 c 1.67899,3.24699 40.799,54.132 41.617,54.132 0.126007,0 3.086,-0.902008 6.57602,-2.004 z  m -98.587,-5.72 c 12.382,-3.81801 23.012,-7.311 23.442,-7.703 0.18399,-0.167999 -0.137009,-1.96901 -0.714996,-4.002 -1.64401,-5.782 -8.19101,-26.577 -11.164,-35.462 l -2.693,-8.047 -2.567,-.966 c -8.368,-3.151 -37.156,-12.918 -37.388,-12.685 -0.065994,0.065994 0.563004,2.51601 1.39801,5.44501 0.834991,2.92899 5.29599,18.667 9.91199,34.974 4.617,16.306 8.64201,30.048 8.94501,30.537 0.302994,0.489014 0.688995,0.889008 0.858002,0.889008 0.168991,0 4.65601,-1.341 9.972,-2.98 z  m 30.332,-48.761 c 3.946,-1.992 5.676,-4.73601 5.77699,-9.166 0.059998,-2.617 -1.66899,-5.244 -4.50499,-6.845 -1.96901,-1.11301 -2.489,-1.227 -5.53401,-1.21201 -2.83899,0.013 -3.666,0.17601 -5.336,1.05101 -3.95299,2.071 -6.12799,5.28699 -6.12799,9.06099 0,6.94 8.474,10.772 15.726,7.11101 z  m 40.889,-4.591 c 42.763,-3.448 58.842,-4.83501 59.108,-5.102 0.135986,-0.136002 0.039001,-2.45999 -0.215027,-5.16299 -0.515991,-5.474 -3.54599,-31.188 -3.82199,-32.427 -0.162994,-0.736 -1.23498,-0.909996 -15.542,-2.534 l -15.368,-1.744 -10.839,7.455 c -24.974,17.179 -40.542,28.001 -41.376,28.762 -0.806992,0.737 -0.890991,1.18001 -0.906998,4.79501 -0.007996,2.19099 -0.17099,4.782 -0.358994,5.758 -0.188995,0.97699 -0.259003,1.911 -0.156998,2.076 0.287994,0.466995 0.862991,0.429993 29.477,-1.87601 z  m -60.053,-10.297 c 0.826996,-1.19101 2.56,-3.007 3.851,-4.037 1.29201,-1.03 2.35001,-2.11 2.351,-2.401 0.003006,-0.470993 -12.997,-37.9822 -13.296,-38.3656 -0.371002,-0.476196 -43.414,7.5266 -44.081,8.1956 -0.306,0.306 0.214005,2.083 4.50101,15.385 l 3.218,9.985 8.129,2.62 c 14.672,4.728 33.425,10.726 33.626,10.755 0.109009,0.014999 0.874008,-0.945999 1.701,-2.13699 z  m 30.433,-5.787 c 10.328,-6.94 45.741,-32.607 45.741,-33.152 0,-0.141998 -1.11102,-0.365997 -2.47,-0.497002 -1.35901,-0.130997 -6.918,-0.684998 -12.353,-1.23199 -29.604,-2.97951 -58.027,-5.4475 -58.895,-5.1143 -0.345001,0.132202 -0.539001,0.526604 -0.435989,0.883698 0.102997,0.354706 2.62599,9.1096 5.608,19.4556 l 5.42,18.812 4.214,.633 c 2.42101,0.362991 5.127,1.05 6.362,1.61299 1.18201,0.539001 2.37801,0.99501 2.65801,1.013 0.281006,0.018005 2.148,-1.069 4.151,-2.41499 z  m -82.031,-8.325 c -0.095001,-0.271004 -1.83099,-5.386 -3.857,-11.365 -2.02699,-5.979 -3.801,-11.004 -3.942,-11.167 -0.296005,-0.344002 -37.646,-1.325 -65.726,-1.727 -18.1583,-0.259003 -19.2749,-0.235001 -19.5264,0.419998 -0.370399,0.965004 0.014595,1.139 6.555,2.958 10.1271,2.817 84.3694,21.364 85.5404,21.37 0.733994,0.003998 1.069,-0.167999 0.955994,-0.488998 z  m 166.507,-30.8334 c -0.01001,-4.2434 -1.517,-24.1154 -1.85098,-24.4123 -0.292023,-0.259697 -7.17102,-0.802498 -18.184,-1.4347 l -4.426,-.2542 -.201,.9444 c -0.257019,1.2039 -1.328,14.1526 -1.66702,20.1524 -0.222992,3.9268 -0.171997,4.6152 0.351013,4.8161 0.335999,0.128899 3.69601,0.603004 7.466,1.05351 10.57,1.26279 12.968,1.49789 15.849,1.5537 l 2.668,.0517 -.006,-2.4706 h 0.001007 z  m -36.997,-2.4469 c 0.417023,-1.6602 1.42401,-16.4231 1.42401,-20.8761 0.001007,-4.1437 -0.020996,-4.2495 -0.889008,-4.2489 -0.488983,0.000397 -20.522,-0.808601 -44.518,-1.7978 -23.996,-0.989098 -43.725,-1.7027 -43.842,-1.5858 -0.252014,0.251701 2.853,8.9298 6.37199,17.8116 2.451,6.1859 2.536,6.3314 3.853,6.624 0.740997,0.164497 14.956,1.1876 31.588,2.2734 16.633,1.0859 32.465,2.1266 35.182,2.3128 2.71799,0.186104 6.21201,0.3638 7.76498,0.394905 2.68402,0.053596 2.83502,0.008995 3.065,-0.908104 z "/>
<rect width="264.61914" x="68.651071" y="244.512386" rx="12.477364" ry="12.477364" height="42.797318" style="opacity:.37;fill:#0ff" id="rect4080" transform="matrix(0.980167 -0.198175 0.0745958 0.997214 0 0)"/>
<g style="font-family:Arial Black;fill:#2d2dff;text-anchor:middle;font-weight:bold;font-size:12px" id="text4082" transform="matrix(0.968449 -0.249211 0.249211 0.968449 0 0)">
<path id="path5031" d="m 79.1367,258.139 v 8.73599 h -2.414 v -5.724 c -0.390602,0.29599 -0.769501,0.536987 -1.1367,0.720001 -0.363297,0.18399 -0.820297,0.359985 -1.3711,0.527985 v -1.957 c 0.8125,-0.261993 1.44331,-0.576996 1.8926,-0.944 0.449203,-0.366974 0.800705,-0.819977 1.0546,-1.35898 h 1.9746"/>
<path id="path5033" d="m 85.9981,260.652 h 2.2265 v 0.908997 c 0.320396,-0.378998 0.642601,-0.649017 0.966797,-0.80899 0.328201,-0.160004 0.722702,-0.240021 1.1836,-0.240021 0.496101,0 0.888702,0.088013 1.1778,0.264008 0.288994,0.174988 0.525398,0.437012 0.7089,0.785004 0.375,-0.407013 0.716797,-0.682007 1.0254,-0.826019 0.308601,-0.148987 0.689499,-0.222992 1.1426,-0.222992 0.667999,0 1.1895,0.199005 1.5645,0.597015 0.375,0.394989 0.5625,1.01398 0.5625,1.858 v 3.90799 h -2.3907 v -3.54501 c 0,-0.280975 -0.054604,-0.48999 -0.164001,-0.626984 -0.160202,-0.214996 -0.359398,-0.321991 -0.597702,-0.321991 -0.281197,0 -0.507797,0.10199 -0.679695,0.304993 -0.171799,0.203003 -0.257805,0.528992 -0.257805,0.977997 v 3.211 h -2.39059 v -3.42801 c 0,-0.27298 -0.015602,-0.458984 -0.046906,-0.556 -0.050797,-0.156006 -0.138695,-0.281006 -0.263596,-0.375 -0.125099,-0.097992 -0.271599,-0.147003 -0.439598,-0.147003 -0.273407,0 -0.498001,0.104004 -0.673706,0.311005 -0.175896,0.207001 -0.263794,0.546997 -0.263794,1.01901 v 3.176 h -2.3905 v -6.22299"/>
<path id="path5035" d="m 98.0684,258.285 h 2.3846 v 1.62299 h -2.3846 v -1.62299 m 0,2.367 h 2.3846 v 6.22299 h -2.3846 v -6.22299"/>
<path id="path5037" d="m 77.0508,273.285 h 2.3906 v 8.59 h -2.3906 v -8.59"/>
<path id="path5039" d="m 87.8848,279.356 h -4.7813 c 0.043098,0.382019 0.1465,0.667999 0.3106,0.855011 0.230499,0.269989 0.531197,0.403992 0.902298,0.403992 0.234398,0 0.4571,-0.057983 0.667999,-0.174988 0.128899,-0.075012 0.267601,-0.205994 0.416,-0.393005 l 2.3496,.217 c -0.359299,0.625 -0.7929,1.074 -1.3008,1.34699 -0.507805,0.27002 -1.23631,0.404999 -2.1855,0.404999 -0.824203,0 -1.4727,-0.11499 -1.94531,-0.345978 -0.472694,-0.234009 -0.865196,-0.603027 -1.1777,-1.10703 -0.308601,-0.507996 -0.462898,-1.10397 -0.462898,-1.78699 0,-0.972992 0.310493,-1.76001 0.931595,-2.362 0.625,-0.601013 1.48631,-0.902008 2.584,-0.902008 0.890602,0 1.5937,0.13501 2.10941,0.403992 0.515594,0.27002 0.908195,0.660004 1.1777,1.17203 0.269501,0.511993 0.404305,1.17798 0.404305,1.99799 v 0.269989 m -2.4258,-1.143 c -0.046898,-0.460999 -0.171898,-0.791016 -0.375,-0.990021 -0.199196,-0.199005 -0.462898,-0.298981 -0.791,-0.298981 -0.378899,0 -0.681602,0.149994 -0.908195,0.450989 -0.144501,0.187988 -0.236305,0.46701 -0.275406,0.838013 h 2.3496"/>
<path id="path5041" d="m 91.6465,275.652 h 1.1367 v 1.74698 h -1.1367 v 4.47601 h -2.3906 v -4.47601 h -0.890594 v -1.74698 h 0.890594 v -0.281006 c 0,-0.253998 0.027306,-0.53299 0.082001,-0.838013 0.054703,-0.303986 0.156204,-0.552002 0.304703,-0.743988 0.152298,-0.195007 0.363197,-0.351013 0.632797,-0.468994 0.273499,-0.121002 0.671799,-0.181 1.19531,-0.181 0.4179,0 1.0254,0.048981 1.8222,0.145996 l -.2636,1.442 c -0.285194,-0.046997 -0.515694,-0.070984 -0.691399,-0.070984 -0.214897,0 -0.369202,0.037994 -0.462898,0.112 -0.093697,0.070007 -0.160202,0.182983 -0.199203,0.339996 -0.019493,0.085999 -0.029297,0.266998 -0.029297,0.544006"/>
<path id="path5043" d="m 96.5332,273.285 v 2.367 h 1.3125 v 1.741 h -1.3125 v 2.20898 c 0,0.265015 0.025398,0.44101 0.076294,0.527008 0.078003,0.132996 0.214706,0.199005 0.410103,0.199005 0.175697,0 0.421799,-0.050995 0.738197,-0.152008 l .1759,1.646 c -0.589897,0.128998 -1.1407,0.194 -1.6524,0.194 -0.593803,0 -1.0313,-0.075989 -1.3125,-0.229004 -0.281303,-0.151978 -0.490204,-0.382996 -0.6269,-0.690979 -0.132805,-0.313019 -0.199303,-0.817017 -0.199303,-1.51199 v -2.19101 h -0.878899 v -1.741 h 0.878899 v -1.142 l 2.3907,-1.225"/>
</g>
<path style="fill:none;marker-end:url(#Arrow2Send);stroke:#000;stroke-linejoin:round;stroke-linecap:round;stroke-width:4" id="path4092" d="m 120.292,254.314 l -2.829,-13.163 -13.158,2.827"/>
<g style="stroke:#5758ff">
<path style="fill:#2d2dff" id="path4742" d="m 184.131,194.126 l .929,-18.015 10.541,14.056 -7.028,-2.811 -4.442,6.77 z "/>
<rect width="31.307703" x="286.784374" y="94.635317" rx="5.466424" ry="5.466424" height="10.932849" style="opacity:.37;fill:#5a5bff;stroke-linejoin:round;stroke-linecap:round;stroke-width:4" id="rect4748" transform="matrix(0.986639 -0.162921 0.162921 0.986639 0 0)"/>
</g>
<g style="font-family:Arial Black">
<g style="fill:#5a5b5b;font-weight:bold;font-size:10px" id="text4744" transform="matrix(0.976684 -0.21468 0.21468 0.976684 0 0)">
<path id="path5051" d="m 286.3,111.585 v 7.28 h -2.01199 v -4.77 c -0.324982,0.247002 -0.640991,0.446999 -0.946991,0.599998 -0.303009,0.153 -0.683014,0.300003 -1.142,0.440002 v -1.631 c 0.677002,-0.217995 1.202,-0.479996 1.577,-0.785995 0.373993,-0.306 0.666992,-0.684006 0.878998,-1.133 h 1.64499"/>
<path id="path5053" d="m 292.98,111.585 v 7.28 h -2.01202 v -4.77 c -0.324982,0.247002 -0.640991,0.446999 -0.946991,0.599998 -0.303009,0.153 -0.68399,0.300003 -1.14301,0.440002 v -1.631 c 0.677002,-0.217995 1.203,-0.479996 1.577,-0.785995 0.375,-0.306 0.667999,-0.684006 0.879028,-1.133 h 1.646"/>
<path id="path5055" d="m 295.348,113.68 h 2.12399 v 1.992 h -2.12399 v -1.992 m 0,3.193 h 2.12399 v 1.992 h -2.12399 v -1.992"/>
<path id="path5057" d="m 299.298,111.707 h 4.72199 v 1.587 h -3.198 l -.171,1.074 c 0.221008,-0.103996 0.438995,-0.181999 0.653992,-0.233994 0.218018,-0.052002 0.433014,-0.078003 0.64502,-0.078003 0.715973,0 1.297,0.216003 1.74298,0.649002 0.446014,0.432999 0.669006,0.977997 0.669006,1.636 0,0.461998 -0.115997,0.905998 -0.346985,1.333 -0.228027,0.425995 -0.553009,0.751999 -0.97702,0.975998 -0.419983,0.224998 -0.958008,0.336998 -1.616,0.336998 -0.471985,0 -0.876984,-0.043999 -1.216,-0.131996 -0.334991,-0.091003 -0.621002,-0.224007 -0.859009,-0.400002 -0.233978,-0.179001 -0.424988,-0.381004 -0.570984,-0.606003 -0.147003,-0.223999 -0.269012,-0.503998 -0.367004,-0.838997 l 2.012,-.22 c 0.049011,0.321999 0.163025,0.568001 0.34201,0.737 0.178986,0.166 0.391998,0.249001 0.640015,0.249001 0.27597,0 0.503998,-0.104004 0.682983,-0.312004 0.183014,-0.211998 0.273987,-0.525993 0.273987,-0.942993 0,-0.426003 -0.090973,-0.739006 -0.273987,-0.937004 -0.182007,-0.198997 -0.424988,-0.297997 -0.72699,-0.297997 -0.192017,0 -0.378021,0.046997 -0.557007,0.141998 -0.132996,0.068001 -0.279999,0.192001 -0.438995,0.371002 l -1.695,-.244 .63,-3.848"/>
<path id="path5059" d="m 306.368,115.017 c -0.312012,-0.166 -0.540009,-0.350998 -0.683014,-0.556 -0.195007,-0.279999 -0.292999,-0.601997 -0.292999,-0.966995 0,-0.599007 0.281006,-1.08901 0.845001,-1.47 0.438995,-0.292999 1.01999,-0.439003 1.74301,-0.439003 0.957001,0 1.66299,0.181999 2.11899,0.547005 0.459015,0.363998 0.687988,0.822998 0.687988,1.377 0,0.321999 -0.090973,0.623001 -0.27298,0.903 -0.136993,0.208 -0.35202,0.409996 -0.64502,0.604996 0.388,0.186005 0.676025,0.431999 0.865021,0.737999 0.191986,0.306 0.287994,0.644005 0.287994,1.015 0,0.358002 -0.083008,0.694 -0.248993,1.006 -0.163025,0.308998 -0.365021,0.548996 -0.606018,0.718002 -0.237,0.168999 -0.535004,0.292999 -0.893005,0.370995 -0.35498,0.081001 -0.733978,0.122002 -1.138,0.122002 -0.757996,0 -1.33798,-0.088997 -1.73798,-0.267998 -0.401001,-0.179001 -0.705017,-0.443001 -0.913025,-0.791 -0.208984,-0.348999 -0.312988,-0.737999 -0.312988,-1.167 0,-0.419998 0.097992,-0.775002 0.292999,-1.065 0.195007,-0.292999 0.497009,-0.518997 0.903015,-0.679001 m .894,-1.406 c 0,0.248001 0.076996,0.447998 0.230011,0.600998 0.156006,0.149002 0.362,0.223999 0.619995,0.223999 0.22699,0 0.415009,-0.074997 0.561005,-0.223999 0.147003,-0.150002 0.220001,-0.344002 0.220001,-0.581001 0,-0.247993 -0.076996,-0.447998 -0.230011,-0.600998 -0.152985,-0.155998 -0.347992,-0.234001 -0.585999,-0.234001 -0.23999,0 -0.436981,0.076004 -0.589996,0.229004 -0.149994,0.150002 -0.225006,0.345001 -0.225006,0.585999 m -.107,3.081 c 0,0.316002 0.096008,0.574997 0.287994,0.777 0.192017,0.197998 0.411011,0.296997 0.658997,0.296997 0.237,0 0.451019,-0.099998 0.640015,-0.302002 0.187988,-0.204994 0.28299,-0.463997 0.28299,-0.777 0,-0.314995 -0.096008,-0.573997 -0.287994,-0.775993 -0.188995,-0.202003 -0.408997,-0.303001 -0.660004,-0.303001 -0.247009,0 -0.462982,0.098 -0.648987,0.292999 -0.182007,0.195999 -0.27301,0.459 -0.27301,0.791"/>
</g>
<g style="opacity:.73;fill:#595900;font-weight:bold;font-size:12px" id="text4750" transform="matrix(0.97064 -0.240538 0.240538 0.97064 0 0)">
<path id="path5046" d="m 252.164,278.26 l 2.526,-.158 c 0.054993,0.410004 0.166,0.722015 0.334,0.937012 0.272995,0.347992 0.664001,0.522003 1.17201,0.522003 0.378998,0 0.669983,-0.088013 0.872986,-0.264008 0.207001,-0.179993 0.309998,-0.386993 0.309998,-0.621002 0,-0.222992 -0.096985,-0.421997 -0.292999,-0.597992 -0.195007,-0.175995 -0.64801,-0.34201 -1.35899,-0.498016 -1.164,-0.261993 -1.994,-0.608978 -2.49,-1.043 -0.5,-0.432983 -0.75,-0.985992 -0.75,-1.65799 0,-0.44101 0.126999,-0.856995 0.380997,-1.24799 0.257004,-0.39502 0.641998,-0.703003 1.15401,-0.926025 0.514999,-0.225983 1.22099,-0.339996 2.11499,-0.339996 1.09799,0 1.93402,0.205017 2.508,0.615997 0.578003,0.406006 0.921997,1.05402 1.03101,1.94501 l -2.502,.146 c -0.06601,-0.385986 -0.207001,-0.667999 -0.421997,-0.842987 -0.211029,-0.175995 -0.504028,-0.264008 -0.879013,-0.264008 -0.307999,0 -0.541,0.06601 -0.697006,0.199005 -0.155991,0.128998 -0.233994,0.286987 -0.233994,0.475006 0,0.135986 0.063995,0.259979 0.192993,0.368988 0.125,0.113007 0.422012,0.218994 0.891006,0.31601 1.16,0.25 1.98999,0.503998 2.48999,0.761993 0.503998,0.253998 0.869019,0.570007 1.09601,0.949005 0.230011,0.378998 0.345001,0.803009 0.345001,1.272 0,0.550995 -0.152008,1.05798 -0.457001,1.52298 -0.303986,0.465027 -0.730011,0.819 -1.27701,1.06101 -0.546997,0.238007 -1.23599,0.356995 -2.06799,0.356995 -1.461,0 -2.47299,-0.280975 -3.035,-0.843994 -0.562988,-0.561981 -0.880997,-1.27698 -0.955994,-2.14398"/>
<path id="path5048" d="m 260.414,272.512 h 2.51999 l .908,4.799 1.324,-4.799 h 2.51401 l 1.33,4.799 .908,-4.799 h 2.508 l -1.892,8.59 h -2.60199 l -1.506,-5.409 -1.5,5.409 h -2.60098 l -1.911,-8.59"/>
</g>
</g>
<g style="stroke:#575800">
<path style="opacity:.37;fill:none;stroke-linejoin:round;stroke-linecap:round;stroke-width:1.449" id="path4754" d="m 335.231,204.964 c 0,6.40399 -6.13599,11.596 -13.704,11.596 -7.569,0 -13.705,-5.192 -13.705,-11.596 0,-6.40401 6.13602,-11.596 13.705,-11.596 7.56799,0 13.704,5.192 13.704,11.596 z "/>
<g style="fill:#585800">
<path style="opacity:.37" id="path4756" d="m 315.553,191.259 l 1.054,-5.27 3.865,4.216 -4.919,1.054 z "/>
<path style="opacity:.37" id="path4756-9" d="m 305.538,210.938 l -5.271,-1.055 4.217,-3.865 1.054,4.92 z "/>
<path style="opacity:.37" id="path4756-5" d="m 336.812,198.287 l 5.271,1.055 -4.217,3.865 -1.054,-4.92 z "/>
<path style="opacity:.37" id="path4756-91" d="m 328.203,217.79 l -1.054,5.271 -3.866,-4.217 4.92,-1.054 z "/>
</g>
<g style="stroke-linecap:round;stroke-linejoin:round;fill:#8e8d00">
<g style="stroke-width:2">
<rect width="2.459765" x="67.731757" y="101.78915" rx="1.2299" ry="1.229883" height="10.190457" id="rect4798" transform="matrix(0.991993 -0.126296 0.126296 0.991993 0 0)"/>
<rect width="2.459765" x="73.805977" y="98.97799" rx="1.2299" ry="1.569161" height="13.001618" id="rect4798-8" transform="matrix(0.991993 -0.126296 0.126296 0.991993 0 0)"/>
<rect width="2.459765" x="79.854987" y="96.51821" rx="1.2299" ry="1.866029" height="15.461384" id="rect4798-8-3" transform="matrix(0.991993 -0.126296 0.126296 0.991993 0 0)"/>
<rect width="2.459765" x="85.828687" y="94.05846" rx="1.2299" ry="2.162897" height="17.921148" id="rect4798-8-5" transform="matrix(0.991993 -0.126296 0.126296 0.991993 0 0)"/>
</g>
<rect width="22.855076" x="70.170395" y="161.697085" rx="2.141873" ry="2.141873" height="20.274382" style="opacity:.8;stroke-width:2.007" id="rect4855" transform="matrix(0.980096 -0.198525 0.0800013 0.996795 0 0)"/>
<rect width="2.496754" x="73.760978" y="157.441225" rx="1.2484" ry="1.248377" height="8.988316" style="opacity:.8;stroke-width:2" id="rect4857" transform="matrix(0.997166 -0.0752327 0.0752327 0.997166 0 0)"/>
</g>
</g>
<path style="opacity:.8;fill:#696c00;stroke:#575700;stroke-linejoin:round" id="path4859" d="m 89.9756,152.588 l 4.9936,-3.496 c 2.5962,3.662 2.3451,7.324 0.749001,10.986 l -5.3747,-2.037 -.3679,-5.453 z "/>
<g style="stroke-linecap:round">
<g style="stroke:#550;fill:none">
<path style="opacity:.8" id="path4861" d="m 97.847,151.957 c 1.8134,1.256 1.9897,2.59799 0.328499,4.336"/>
<path style="opacity:.8" id="path4861-3" d="m 100.067,150.38 c 1.813,2.22699 1.989,4.605 0.327995,7.687"/>
</g>
<g style="stroke-linejoin:round;stroke-width:2.001;stroke:#575800;fill:#8e8d00">
<rect width="22.663906" x="306.405553" y="174.744318" rx="1.215003" ry="1.215003" height="11.50088" style="opacity:.8" id="rect4855-7-5" transform="matrix(0.990525 -0.137333 0.0921839 0.995742 0 0)"/>
<rect width="22.663906" x="306.606233" y="149.716308" rx="1.215003" ry="1.215003" height="11.50088" style="opacity:.8" id="rect4855-7-5-0" transform="matrix(0.990525 -0.137333 0.0921839 0.995742 0 0)"/>
</g>
</g>
<g style="stroke-width:.3" id="g4997">
<path style="opacity:.8;fill:#9c9fcd;stroke:#0000a3;stroke-linejoin:round;stroke-linecap:round" id="path4973" d="m 340.448,122.698 c 0,2.523 -2.12399,4.569 -4.74399,4.569 -2.62,0 -4.74402,-2.046 -4.74402,-4.569 0,-2.522 2.12402,-4.568 4.74402,-4.568 2.62,0 4.74399,2.046 4.74399,4.568 z "/>
<path style="opacity:.8;fill:url(#radialGradient5122);filter:url(#filter4991)" id="path4975" d="m 336.955,120.744 c 0,0.68 -0.550995,1.23 -1.22998,1.23 -0.679016,0 -1.23001,-0.549995 -1.23001,-1.23 0,-0.679001 0.550995,-1.229 1.23001,-1.229 0.678986,0 1.22998,0.550003 1.22998,1.229 z "/>
<rect width="10.187428" x="290.302501" y="184.441863" rx="1.22546" height="2.733212" ry="1.22546" style="opacity:.8;fill:#9c9fcd" id="rect4995" transform="matrix(0.981233 -0.192828 0.192828 0.981233 0 0)"/>
</g>
<g style="font-family:Arial Black;fill:#515300;font-weight:bold;font-size:14px" id="text5004" transform="matrix(0.997821 -0.065981 0.065981 0.997821 0 0)">
<path id="path5011" d="m 318.148,131.209 h 2.61899 v -2.632 h 2.20801 v 2.632 h 2.63098 v 2.215 h -2.63098 v 2.61801 h -2.20801 v -2.61801 h -2.61899 v -2.215"/>
</g>
<path style="fill:none;stroke:#535700;stroke-width:2.5" id="path5008" d="m 328.415,136.169 l 6.46,-.372"/>
</g>
</g>
</g>
<text x="220.331573" y="220.100433" style="stroke-dasharray:null;font-family:Arial;text-anchor:middle;stroke-linejoin:null;stroke-linecap:null;stroke-width:0;font-size:24" id="svg_2" xml:space="preserve"/>
</g>
</svg>
