<?xml version="1.0" encoding="UTF-8"?>
<svg viewBox="0 0 128 128" xmlns="http://www.w3.org/2000/svg" xmlns:xlink="http://www.w3.org/1999/xlink">
 <defs>
  <linearGradient id="a">
   <stop stop-color="#c6c6c6" offset="0"/>
   <stop stop-color="#434343" offset=".13501"/>
   <stop stop-color="#f9f9f9" offset=".64724"/>
   <stop stop-color="#bcbcbc" offset="1"/>
  </linearGradient>
  <linearGradient id="b" x1="35.358" x2="54.798" y1="27.844" y2="57.94" gradientUnits="userSpaceOnUse">
   <stop stop-color="#fff" offset="0"/>
   <stop stop-color="#fff" stop-opacity="0" offset="1"/>
  </linearGradient>
  <linearGradient id="g" x2="0" y1="107.47" y2="70.559" gradientUnits="userSpaceOnUse">
   <stop offset="0"/>
   <stop stop-opacity="0" offset="1"/>
  </linearGradient>
  <linearGradient id="i" x2="0" y1="66.886" y2="56.956" gradientTransform="matrix(.81807 2.1467e-16 8.1138e-17 .95843 9.7827 -59.993)" gradientUnits="userSpaceOnUse" xlink:href="#a"/>
  <linearGradient id="h" x1="108.57" x2="631.43" gradientTransform="matrix(.13465 .029012 -.050771 .23564 7.3354 -51.196)" gradientUnits="userSpaceOnUse" xlink:href="#a" spreadMethod="reflect"/>
  <radialGradient id="f" cx="368.57" cy="135" r="233.56" gradientTransform="matrix(.20057 .043216 -.02113 .098068 -30.04 5.2036)" gradientUnits="userSpaceOnUse">
   <stop stop-opacity="0" offset="0"/>
   <stop stop-opacity="0" offset=".5"/>
   <stop offset="1"/>
  </radialGradient>
  <radialGradient id="e" cx="59.083" cy="64.481" r="38.703" fy="53.448" gradientTransform="matrix(.80672 .18425 -.097581 .42726 .33425 3.7054)" gradientUnits="userSpaceOnUse" spreadMethod="reflect">
   <stop stop-color="#0076c8" offset="0"/>
   <stop stop-color="#79c8ff" offset="1"/>
  </radialGradient>
  <radialGradient id="c" cx="370" cy="315.22" r="261.43" gradientTransform="matrix(.087793 .018916 -.011537 .053544 12.306 9.9395)" gradientUnits="userSpaceOnUse" xlink:href="#a" spreadMethod="reflect"/>
  <radialGradient id="d" cx="-44.12" cy="189.28" r="30.862" gradientTransform="matrix(1.938 6.5829e-16 -5.0071e-16 1.6337 -4.5542 -86.188)" gradientUnits="userSpaceOnUse" xlink:href="#a" spreadMethod="reflect"/>
 </defs>
 <path d="m32.259 73.44c-13.294 0.12334-23.73 2.0011-25.531 4.9854-0.14569 0.24132-0.03379 0.49214-0.0625 0.7361-4.3e-4 0.00369 4.1e-4 0.00746 0 0.01115-0.24701 0.23572-0.63076 0.45337-0.78125 0.70264-2.6424 4.377 10.975 9.1346 30.406 10.629 9.467 0.72799 18.531 0.53857 25.688-0.34575 0.1881 0.09161 0.30479 0.19772 0.5625 0.27883l4.125 1.3049c0.59587 0.68509 2.6535 1.3851 5.125 2.1414l34.031 12.257c4.4372 1.3578 11.568 1.4916 16 0.28998s4.4372-3.2707 0-4.6285l-40.406-10.528c-2.4476-0.749-4.7474-1.3426-7.0625-1.5614l-3.9375-1.2268c2.9544-0.8786 5.0846-1.9434 5.8438-3.2009 0.15625-0.25882 0.08035-0.51994 0.125-0.78071 0.24543-0.2207 0.60833-0.42336 0.75-0.65803 2.4022-3.9791-11.412-8.4208-30.844-9.9151-4.8578-0.37355-9.5999-0.53185-14.031-0.49073z" fill="url(#g)" fill-rule="evenodd" opacity=".2"/>
 <path transform="matrix(-.83235 -.033058 .10336 -.2417 85.841 98.446)" d="m74.499 56.911a24.244 21.592 0 1 1 -48.487 0 24.244 21.592 0 1 1 48.487 0z" fill="url(#b)" fill-rule="evenodd"/>
 <path d="m75.484 45.44c-2.6424 12.264-20.557 18.819-39.989 14.633s-33.057-17.538-30.415-29.802 20.557-18.819 39.989-14.633 33.057 17.538 30.415 29.802zm-3.0734-2.832c-2.0258 9.4024-17.863 13.975-35.352 10.207s-30.037-14.457-28.012-23.859 17.863-13.975 35.352-10.207 30.037 14.457 28.012 23.859z" fill="url(#h)" fill-rule="evenodd"/>
 <path d="m76.354 41.401c-2.4022 11.149-20.122 16.8-39.554 12.613s-33.252-16.633-30.85-27.782 20.122-16.8 39.554-12.613 33.252 16.633 30.85 27.782zm-3.114-2.6435c-1.8417 8.5476-17.53 12.427-35.018 8.6587s-30.187-13.763-28.345-22.311 17.53-12.427 35.018-8.6587 30.187 13.763 28.345 22.311z" fill="url(#c)" fill-rule="evenodd"/>
 <path d="m44.204 18.703c16.203 3.4912 28.001 12.913 28.06 21.759-3.5243 7.275-18.027 10.4-34.237 6.9078s-28.164-12.318-28.38-20.399c3.6968-8.0364 18.353-11.759 34.556-8.2674z" fill="url(#e)" fill-rule="evenodd" opacity=".7"/>
 <path d="m44.383 18.822c-16.214-3.4934-30.95-0.03732-34.569 7.7199 0.01257 0.3765 0.07851 0.75361 0.14527 1.1333 4.4399-6.9865 18.512-9.9696 33.948-6.6438s27.035 11.84 28.204 20.035c0.21641-0.31762 0.42904-0.63681 0.59506-0.97375-0.10372-8.5594-12.109-17.777-28.323-21.271z" fill="url(#f)" fill-rule="evenodd" opacity=".7"/>
 <path transform="matrix(-.83235 -.06561 .10336 -.4797 85.841 70.498)" d="m74.499 56.911a24.244 21.592 0 1 1 -48.487 0 24.244 21.592 0 1 1 48.487 0z" fill="url(#b)" fill-rule="evenodd"/>
 <path d="m76.354 41.401c-2.4022 11.149-20.122 16.8-39.554 12.613s-33.252-16.633-30.85-27.782 20.122-16.8 39.554-12.613 33.252 16.633 30.85 27.782zm-3.114-2.6435c-1.8417 8.5476-17.53 12.427-35.018 8.6587s-30.187-13.763-28.345-22.311 17.53-12.427 35.018-8.6587 30.187 13.763 28.345 22.311z" fill="url(#c)" fill-rule="evenodd"/>
 <path transform="matrix(.83235 .06561 -.10336 .4797 -3.6442 -1.3274)" d="m74.499 56.911a24.244 21.592 0 1 1 -48.487 0 24.244 21.592 0 1 1 48.487 0z" fill="url(#b)" fill-rule="evenodd"/>
 <path transform="matrix(.75004,.66139,-.77728,.62916,0,0)" d="m86.604-5.3269h10.393a4.7198 4.7198 0 0 1 4.7198 4.7198 4.7198 4.7198 0 0 1 -4.7198 4.7198h-10.393a4.7198 4.7198 0 0 1 -4.7198 -4.7198 4.7198 4.7198 0 0 1 4.7198 -4.7198" fill="url(#i)" fill-rule="evenodd"/>
 <path d="m67.793 59.018c4.4318-3.367 8.3868-0.59498 12.824 3.2095l40.413 29.501c4.4372 3.8045 4.4415 9.5779 0.00963 12.945s-11.572 3.0148-16.009-0.78975l-34.043-34.34c-4.4372-3.8045-7.6265-7.1582-3.1947-10.525z" fill="url(#d)" fill-rule="evenodd"/>
 <path d="m71.87 59.132c-0.58528 5.1e-4 -1.1761 0.11415-1.7285 0.3507-0.13153 0.05126-0.18048 0.12148-0.30061 0.17535 1.9635 0.80486 3.9357 2.2778 6.0121 4.0582l40.406 29.509c3.7551 3.2197 4.3 7.8345 1.7034 11.223 3.3002-1.3471 5.6034-4.2034 4.3337-8.2666-3.952-6.2853-11.678-9.1717-17.16-14.053-10.599-7.4387-20.715-15.655-31.538-22.696-0.56343-0.18852-1.1432-0.30112-1.7285-0.3006z" fill="#fff" fill-rule="evenodd" opacity=".29046"/>
</svg>
