<?xml version="1.0" encoding="UTF-8"?>
<svg viewBox="0 0 276.55817 814.20563" xmlns="http://www.w3.org/2000/svg">
 <defs>
  <linearGradient id="a" x1="271.59" x2="358.5" gradientUnits="userSpaceOnUse">
   <stop stop-color="#fff" offset="0"/>
   <stop stop-color="#fff" stop-opacity="0" offset="1"/>
  </linearGradient>
 </defs>
 <g transform="translate(-175.56 -59.89)">
  <path d="m235.27 62.451c-31.657 0-57.156 26.712-57.156 59.915v689.25c0 33.203 25.499 59.915 57.156 59.915h157.16c31.657 0 57.125-26.712 57.125-59.915v-689.25c0-33.203-25.468-59.915-57.125-59.915h-157.16zm78.562 22.157c9.5652 0 17.344 8.1258 17.344 18.158s-7.7786 18.191-17.344 18.191-17.312-8.1585-17.312-18.191 7.7473-18.158 17.312-18.158z" fill="#d0d07f" stroke="#000" stroke-linejoin="round" stroke-width="5.1206"/>
  <g transform="matrix(1 0 0 1.0593 -1.2102 -48.703)" stroke="#000" stroke-linejoin="round">
   <path d="m315.06 184.38c-12.654 0-22.844 10.189-22.844 22.844v535.59c0 0.47084 0.12844 0.91139 0.15625 1.375-11.012 7.3441-18.281 19.842-18.281 34.062 0 22.609 18.36 40.969 40.969 40.969s40.938-18.36 40.938-40.969c0-14.205-7.2572-26.684-18.25-34.031 0.02906-0.47385 0.15625-0.92483 0.15625-1.4062v-535.59c0-12.654-10.189-22.844-22.844-22.844z" fill="url(#a)" stroke-width="5"/>
   <path d="m315.06 423.97c-12.654 0-22.844-10.434-22.844 3.4556v307.76c0 0.51678 0.12844 1.0003 0.15625 1.5092-11.012 8.0608-18.281 21.779-18.281 37.386 0 24.815 18.36 44.967 40.969 44.967s40.938-20.152 40.938-44.967c0-15.591-7.2572-29.288-18.25-37.352 0.02906-0.52009 0.15625-1.0151 0.15625-1.5435v-307.76c0-13.889-10.189-3.4556-22.844-3.4556z" fill="#ec0000" fill-opacity=".56542" stroke-width="3.7716"/>
  </g>
  <path d="m261.8 278.89h165.22" fill="none" stroke="#000" stroke-width="1.0925"/>
  <path d="m415.04 266.36h-3.9082v7.3223h-4.1328v-7.3223h-13.769v-2.9424l12.017-21.428h5.8848v20.754h3.9082v3.6162m-8.041-3.6162v-17.205l-9.8154 17.205h9.8154m20.844-21.36c3.2793 4e-5 5.7575 1.4226 7.4346 4.2676s2.5156 6.933 2.5156 12.264c-2e-5 5.2559-0.83856 9.2988-2.5156 12.129s-4.1553 4.2451-7.4346 4.2451c-3.2643 0-5.735-1.4225-7.4121-4.2676s-2.5156-6.8805-2.5156-12.106c0-5.2858 0.83854-9.3587 2.5156-12.219 1.6771-2.875 4.1478-4.3125 7.4121-4.3125m0 29.581c1.8717 0 3.2718-1.0107 4.2002-3.0322 0.94334-2.0364 1.415-5.3756 1.415-10.018-2e-5 -4.6868-0.4717-8.041-1.415-10.062-0.9284-2.0364-2.3285-3.0546-4.2002-3.0547-1.8418 3e-5 -3.2269 0.98831-4.1553 2.9648-0.92839 1.9616-1.3926 5.3457-1.3926 10.152 0 4.7468 0.46419 8.1084 1.3926 10.085s2.3135 2.9648 4.1553 2.9648" fill="#f10303"/>
  <path d="m198.21 346.33h165.77" fill="none" stroke="#000" stroke-width="1.0943"/>
  <path d="m215.78 329.01c1.5 0.35158 2.707 1.0664 3.6211 2.1445 0.91404 1.0664 1.3711 2.2969 1.3711 3.6914-2e-5 2.2031-0.8672 4.0547-2.6016 5.5547-1.7344 1.4883-3.791 2.2324-6.1699 2.2324-2.0391 0-3.9024-0.44531-5.5898-1.3359l0.72071-2.5312c1.6758 0.79688 3.334 1.1953 4.9746 1.1953 1.582 0 2.8711-0.43945 3.8672-1.3184s1.4941-2.0859 1.4941-3.6211c-1e-5 -1.3359-0.56837-2.4375-1.7051-3.3047s-2.6192-1.3008-4.4473-1.3008h-0.65039v-2.6191h0.10547c1.7226 2e-5 3.1758-0.41014 4.3594-1.2305 1.1953-0.83202 1.793-1.9219 1.793-3.2695-1e-5 -1.125-0.4336-2.0273-1.3008-2.707-0.8672-0.69138-1.9922-1.0371-3.375-1.0371-1.2539 3e-5 -2.7305 0.36917-4.4297 1.1074l-0.50976-2.6192c1.793-0.77341 3.4863-1.1601 5.0801-1.1602 2.2734 2e-5 4.1484 0.60354 5.625 1.8106 1.4883 1.1953 2.2324 2.7188 2.2324 4.5703-2e-5 1.2656-0.44533 2.4492-1.3359 3.5508s-1.9336 1.7871-3.1289 2.0566v0.14062m16.963-12.129c2.5664 2e-5 4.5058 1.1133 5.8184 3.3398s1.9687 5.4258 1.9688 9.5977c-1e-5 4.1133-0.65626 7.2774-1.9688 9.4922s-3.252 3.3223-5.8184 3.3223c-2.5547 0-4.4883-1.1133-5.8008-3.3398s-1.9688-5.3848-1.9688-9.4746c0-4.1367 0.65625-7.3242 1.9688-9.5625 1.3125-2.25 3.2461-3.375 5.8008-3.375m0 23.15c1.4648 0 2.5605-0.79101 3.2871-2.373 0.73827-1.5937 1.1074-4.207 1.1074-7.8398-2e-5 -3.668-0.36916-6.293-1.1074-7.875-0.72657-1.5937-1.8223-2.3906-3.2871-2.3906-1.4414 3e-5 -2.5254 0.77346-3.252 2.3203-0.72657 1.5352-1.0898 4.1836-1.0898 7.9453-1e-5 3.7148 0.36327 6.3457 1.0898 7.8926s1.8105 2.3203 3.252 2.3203" fill="#f10303"/>
  <path d="m198.21 481.21h165.77" fill="none" stroke="#000" stroke-width="1.0943"/>
  <path d="m216.06 477.71h-3.2344v-21.779l-4.3945 2.6719v-2.9883l4.5703-2.8125h3.0586v24.908m16.682-25.277c2.5664 2e-5 4.5058 1.1133 5.8184 3.3398s1.9687 5.4258 1.9688 9.5977c-1e-5 4.1133-0.65626 7.2774-1.9688 9.4922s-3.252 3.3223-5.8184 3.3223c-2.5547 0-4.4883-1.1133-5.8008-3.3398s-1.9688-5.3848-1.9688-9.4746c0-4.1367 0.65625-7.3242 1.9688-9.5625 1.3125-2.25 3.2461-3.375 5.8008-3.375m0 23.15c1.4648 0 2.5605-0.79101 3.2871-2.373 0.73827-1.5937 1.1074-4.207 1.1074-7.8398-2e-5 -3.668-0.36916-6.293-1.1074-7.875-0.72657-1.5937-1.8223-2.3906-3.2871-2.3906-1.4414 3e-5 -2.5254 0.77346-3.252 2.3203-0.72657 1.5352-1.0898 4.1836-1.0898 7.9453-1e-5 3.7148 0.36327 6.3457 1.0898 7.8926s1.8105 2.3203 3.252 2.3203"/>
  <path d="m198.21 616.09h165.77" fill="none" stroke="#000" stroke-width="1.0943"/>
  <path d="m216.24 604.09h-10.441v-3.0234h10.441v3.0234m12.41 7.8398h-3.2344v-21.779l-4.3945 2.6719v-2.9883l4.5703-2.8125h3.0586v24.908m16.682-25.277c2.5664 3e-5 4.5058 1.1133 5.8184 3.3398s1.9687 5.4258 1.9688 9.5976c-2e-5 4.1133-0.65627 7.2774-1.9688 9.4922s-3.252 3.3223-5.8184 3.3223c-2.5547 0-4.4883-1.1133-5.8008-3.3398s-1.9688-5.3848-1.9688-9.4746c0-4.1367 0.65625-7.3242 1.9688-9.5625 1.3125-2.25 3.2461-3.375 5.8008-3.375m0 23.15c1.4648 1e-5 2.5605-0.79101 3.2871-2.373 0.73827-1.5938 1.1074-4.207 1.1074-7.8398-1e-5 -3.668-0.36915-6.293-1.1074-7.875-0.72657-1.5937-1.8223-2.3906-3.2871-2.3906-1.4414 2e-5 -2.5254 0.77346-3.252 2.3203-0.72657 1.5352-1.0898 4.1836-1.0898 7.9453 0 3.7149 0.36328 6.3457 1.0898 7.8926s1.8105 2.3203 3.252 2.3203" fill="#08b2f4"/>
  <path d="m244.8 683.5h187.26" fill="none" stroke="#000" stroke-width="1.1631"/>
  <path transform="scale(.9393 1.0646)" d="m425.1 629.07h-11.602v-3.3594h11.602v3.3594m18.945 8.7109h-15.723v-2.6758c3.9323-4.2969 6.4648-7.1419 7.5977-8.5352 1.1458-1.3932 2.0898-2.8516 2.832-4.375 0.75519-1.5364 1.1328-3.0729 1.1328-4.6094-1e-5 -1.4453-0.48178-2.6237-1.4453-3.5352-0.95053-0.92446-2.2136-1.3867-3.7891-1.3867-1.4323 2e-5 -3.2292 0.41018-5.3906 1.2305l-0.56641-2.8711c2.0312-0.88539 4.1927-1.3281 6.4844-1.3281 2.539 3e-5 4.5833 0.70966 6.1328 2.1289 1.5625 1.4063 2.3437 3.2878 2.3438 5.6445-2e-5 1.5495-0.35158 3.0664-1.0547 4.5508-0.70314 1.4714-1.6276 2.9232-2.7734 4.3555-1.1458 1.4193-3.418 4.0365-6.8164 7.8516h11.035v3.5547m13.379-28.086c2.8516 3e-5 5.0065 1.237 6.4648 3.7109s2.1875 6.0287 2.1875 10.664c-2e-5 4.5703-0.72919 8.0859-2.1875 10.547s-3.6133 3.6914-6.4648 3.6914c-2.8386 0-4.987-1.237-6.4453-3.7109s-2.1875-5.9831-2.1875-10.527c0-4.5963 0.72916-8.138 2.1875-10.625 1.4583-2.5 3.6068-3.75 6.4453-3.75m0 25.723c1.6276 1e-5 2.845-0.8789 3.6524-2.6367 0.82029-1.7708 1.2304-4.6745 1.2305-8.7109-2e-5 -4.0755-0.41018-6.9922-1.2305-8.75-0.80731-1.7708-2.0248-2.6562-3.6524-2.6562-1.6016 2e-5 -2.806 0.8594-3.6133 2.5781-0.8073 1.7058-1.2109 4.6485-1.2109 8.8281 0 4.1276 0.40364 7.0508 1.2109 8.7695s2.0117 2.5781 3.6133 2.5781" fill="#08b2f4"/>
  <g transform="translate(0 -14.694)">
   <path d="m261.8 563.35h165.22" fill="none" stroke="#000" stroke-width="1.0925"/>
   <path d="m424.9 528.12c-2.336 3e-5 -4.0954 1.153-5.2783 3.459-1.168 2.291-1.752 5.7425-1.752 10.354-1e-5 4.597 0.58398 8.0485 1.752 10.354 1.1829 2.291 2.9424 3.4365 5.2783 3.4365 2.3509 0 4.1103-1.1455 5.2783-3.4365 1.1829-2.306 1.7744-5.7575 1.7744-10.354-2e-5 -4.612-0.5915-8.0634-1.7744-10.354-1.168-2.306-2.9274-3.459-5.2783-3.459m0-3.5938c3.7584 4e-5 6.626 1.49 8.6025 4.4697 1.9915 2.9649 2.9873 7.2774 2.9873 12.938-3e-5 5.6452-0.9958 9.9577-2.9873 12.938-1.9766 2.9648-4.8441 4.4473-8.6025 4.4473s-6.6335-1.4824-8.625-4.4473c-1.9766-2.9798-2.9648-7.2923-2.9648-12.938 0-5.6601 0.98828-9.9726 2.9648-12.938 1.9915-2.9798 4.8665-4.4697 8.625-4.4697" fill="#23a41e"/>
  </g>
  <path d="m261.8 413.77h165.22" fill="none" stroke="#000" stroke-width="1.0925"/>
  <path d="m415.76 408.74h-15.723v-2.6758c3.9323-4.2969 6.4648-7.1419 7.5976-8.5352 1.1458-1.3932 2.0898-2.8515 2.832-4.375 0.7552-1.5364 1.1328-3.0729 1.1328-4.6094-2e-5 -1.4453-0.48179-2.6237-1.4453-3.5352-0.95053-0.92445-2.2136-1.3867-3.7891-1.3867-1.4323 3e-5 -3.2292 0.41019-5.3906 1.2305l-0.56641-2.8711c2.0312-0.88539 4.1927-1.3281 6.4844-1.3281 2.539 3e-5 4.5833 0.70967 6.1328 2.1289 1.5625 1.4063 2.3437 3.2878 2.3438 5.6445-2e-5 1.5495-0.35158 3.0664-1.0547 4.5508-0.70314 1.4714-1.6276 2.9232-2.7734 4.3555-1.1458 1.4193-3.418 4.0365-6.8164 7.8516h11.035v3.5547m13.379-28.086c2.8516 3e-5 5.0065 1.237 6.4648 3.7109s2.1875 6.0287 2.1875 10.664c-2e-5 4.5703-0.72918 8.086-2.1875 10.547s-3.6133 3.6914-6.4648 3.6914c-2.8386 0-4.987-1.237-6.4453-3.7109s-2.1875-5.9831-2.1875-10.527c-1e-5 -4.5963 0.72916-8.138 2.1875-10.625 1.4583-2.5 3.6068-3.75 6.4453-3.75m0 25.723c1.6276 0 2.845-0.8789 3.6523-2.6367 0.8203-1.7708 1.2304-4.6745 1.2305-8.7109-2e-5 -4.0755-0.41017-6.9922-1.2305-8.75-0.8073-1.7708-2.0248-2.6562-3.6523-2.6562-1.6016 3e-5 -2.806 0.8594-3.6133 2.5781-0.8073 1.7058-1.211 4.6484-1.2109 8.8281-1e-5 4.1276 0.40364 7.0508 1.2109 8.7695s2.0117 2.5781 3.6133 2.5781"/>
  <path d="m382.15 768.38c2.6378 5e-5 4.8856 0.929 6.7435 2.7868s2.7868 4.1058 2.7868 6.7435c-3e-5 2.6149-0.92898 4.8512-2.7868 6.7091s-4.1058 2.7869-6.7435 2.7869c-2.6148 3e-5 -4.8512-0.92892-6.7091-2.7869s-2.7868-4.0942-2.7868-6.7091c0-2.6377 0.92895-4.8856 2.7868-6.7435s4.0943-2.7868 6.7091-2.7868m0 15.379c1.6285 4e-5 3.0047-0.57339 4.1287-1.7203 1.1468-1.1468 1.7203-2.523 1.7203-4.1287s-0.57344-2.9703-1.7203-4.0943c-1.1239-1.1239-2.5002-1.6858-4.1287-1.6859-1.6056 4e-5 -2.9704 0.562-4.0943 1.6859-1.101 1.124-1.6515 2.4887-1.6515 4.0943s0.55048 2.9818 1.6515 4.1287c1.1239 1.1469 2.4887 1.7203 4.0943 1.7203m53.466 30.07c-3.9452 3.2571-8.59 4.8856-13.934 4.8856-6.5371 0-11.824-2.374-15.861-7.122s-6.0554-10.769-6.0554-18.063c-1e-5 -7.5692 1.984-13.659 5.9522-18.269 3.9681-4.6332 9.2895-6.9499 15.964-6.9499 2.3625 5e-5 4.7709 0.36704 7.2252 1.101 2.4772 0.73403 4.4498 1.663 5.9178 2.7868l-2.3052 4.5759c-3.4177-1.9725-7.0302-2.9588-10.838-2.9589-4.8397 5e-5 -8.5899 1.7433-11.251 5.2296s-3.9911 8.3147-3.991 14.485c-1e-5 6.0325 1.3418 10.849 4.0254 14.45 2.6836 3.5782 6.4224 5.3673 11.216 5.3673 4.2663 1e-5 8.2114-1.273 11.836-3.819l2.0987 4.3007" fill="#dcae00" stroke="#fff" stroke-width="1.1802"/>
  <g transform="translate(.27454)">
   <path d="m243.28 714.35h140.57a12.877 12.877 0 0 1 12.877 12.877 12.877 12.877 0 0 1 -12.877 12.877h-140.57a12.877 12.877 0 0 1 -12.877 -12.877 12.877 12.877 0 0 1 12.877 -12.877" fill="#000051"/>
   <g transform="matrix(.4459 -.22922 .22922 .4459 92.124 492.33)" stroke="#000">
    <path transform="translate(-.31884)" d="m87.223 562.21a18.013 18.013 0 1 1 -36.027 0 18.013 18.013 0 1 1 36.027 0z" fill="#b5dfe0" stroke-linejoin="round" stroke-width="2"/>
    <path d="m50.288 562.21h37.206" fill="none"/>
   </g>
   <g transform="matrix(.39401 .31003 -.31003 .39401 522.57 484.35)" stroke="#000">
    <path transform="translate(-.31884)" d="m87.223 562.21a18.013 18.013 0 1 1 -36.027 0 18.013 18.013 0 1 1 36.027 0z" fill="#b5dfe0" stroke-linejoin="round" stroke-width="2"/>
    <path d="m50.288 562.21h37.206" fill="none"/>
   </g>
  </g>
  <path d="m243.55 170.46h140.57c7.1337 0 12.877 5.743 12.877 12.877s-5.743 12.877-12.877 12.877h-140.57c-7.1337 0-12.877-5.743-12.877-12.877s5.743-12.877 12.877-12.877z" fill="#000051"/>
  <g transform="matrix(.44046 .2395 -.2395 .44046 356.02 -80.789)" stroke="#000">
   <path transform="translate(-.31884)" d="m87.223 562.21a18.013 18.013 0 1 1 -36.027 0 18.013 18.013 0 1 1 36.027 0z" fill="#b5dfe0" stroke-linejoin="round" stroke-width="2"/>
   <path d="m50.288 562.21h37.206" fill="none"/>
  </g>
  <g transform="matrix(.49697 -.066216 .066216 .49697 303.95 -91.499)" stroke="#000">
   <path transform="translate(-.31884)" d="m87.223 562.21a18.013 18.013 0 1 1 -36.027 0 18.013 18.013 0 1 1 36.027 0z" fill="#b5dfe0" stroke-linejoin="round" stroke-width="2"/>
   <path d="m50.288 562.21h37.206" fill="none"/>
  </g>
 </g>
</svg>
