<?xml version="1.0" encoding="UTF-8"?>
<svg viewBox="0 0 744.09447 1052.362179" xmlns="http://www.w3.org/2000/svg">
 <defs>
  <linearGradient id="a" x1="271.59" x2="358.5" gradientUnits="userSpaceOnUse">
   <stop stop-color="#fff" offset="0"/>
   <stop stop-color="#fff" stop-opacity="0" offset="1"/>
  </linearGradient>
 </defs>
 <path d="m235.27 62.451c-31.657 0-57.156 26.712-57.156 59.915v689.25c0 33.203 25.499 59.915 57.156 59.915h157.16c31.657 0 57.125-26.712 57.125-59.915v-689.25c0-33.203-25.468-59.915-57.125-59.915h-157.16zm78.562 22.157c9.5652 0 17.344 8.1258 17.344 18.158s-7.7786 18.191-17.344 18.191-17.312-8.1585-17.312-18.191 7.7473-18.158 17.312-18.158z" fill="#d0d07f" stroke="#000" stroke-linejoin="round" stroke-width="5.1206"/>
 <path d="m261.8 286.89h165.22" fill="none" stroke="#000" stroke-width="1.0925"/>
 <path d="m198.21 332.96h165.77" fill="none" stroke="#000" stroke-width="1.0943"/>
 <path d="m261.8 379.04h165.22" fill="none" stroke="#000" stroke-width="1.0925"/>
 <path d="m198.21 425.12h165.77" fill="none" stroke="#000" stroke-width="1.0943"/>
 <path d="m261.8 471.19h165.22" fill="none" stroke="#000" stroke-width="1.0925"/>
 <path d="m198.21 517.27h165.77" fill="none" stroke="#000" stroke-width="1.0943"/>
 <path d="m261.8 563.35h165.22" fill="none" stroke="#000" stroke-width="1.0925"/>
 <path d="m198.21 609.42h165.77" fill="none" stroke="#000" stroke-width="1.0943"/>
 <path d="m244.8 655.5h187.26" fill="none" stroke="#000" stroke-width="1.1631"/>
 <path d="m198.21 701.57h165.77" fill="none" stroke="#000" stroke-width="1.0943"/>
 <path d="m198.21 240.81h165.77" fill="none" stroke="#000" stroke-width="1.0943"/>
 <g transform="matrix(1 0 0 1.0593 -1.2102 -48.703)" stroke="#000" stroke-linejoin="round">
  <path d="m315.06 184.38c-12.654 0-22.844 10.189-22.844 22.844v535.59c0 0.47084 0.12844 0.91139 0.15625 1.375-11.012 7.3441-18.281 19.842-18.281 34.062 0 22.609 18.36 40.969 40.969 40.969s40.938-18.36 40.938-40.969c0-14.205-7.2572-26.684-18.25-34.031 0.02906-0.47385 0.15625-0.92483 0.15625-1.4062v-535.59c0-12.654-10.189-22.844-22.844-22.844z" fill="url(#a)" stroke-width="5"/>
  <path d="m315.06 459.27c-12.654 0-22.844-9.5059-22.844 3.1484v280.4c0 0.47084 0.12844 0.91139 0.15625 1.375-11.012 7.3441-18.281 19.842-18.281 34.062 0 22.609 18.36 40.969 40.969 40.969s40.938-18.36 40.938-40.969c0-14.205-7.2572-26.684-18.25-34.031 0.02906-0.47385 0.15625-0.92483 0.15625-1.4062v-280.4c0-12.654-10.189-3.1484-22.844-3.1484z" fill="#ec0000" fill-opacity=".56542" stroke-width="3.6"/>
 </g>
 <path d="m382.63 281.68h-4.1328v-27.829l-5.6152 3.4141v-3.8184l5.8398-3.5938h3.9082v31.827m21.315-32.299c3.2793 3e-5 5.7575 1.4226 7.4346 4.2676s2.5156 6.933 2.5156 12.264c-2e-5 5.2559-0.83856 9.2988-2.5156 12.129s-4.1553 4.2451-7.4346 4.2451c-3.2643 0-5.735-1.4225-7.4121-4.2676s-2.5156-6.8805-2.5156-12.106c0-5.2858 0.83854-9.3587 2.5156-12.219 1.6771-2.875 4.1478-4.3125 7.4121-4.3125m0 29.581c1.8717 0 3.2718-1.0107 4.2002-3.0322 0.94335-2.0364 1.415-5.3756 1.415-10.018-1e-5 -4.6868-0.47169-8.041-1.415-10.062-0.9284-2.0364-2.3285-3.0547-4.2002-3.0547-1.8418 3e-5 -3.2269 0.98831-4.1553 2.9648-0.9284 1.9616-1.3926 5.3457-1.3926 10.152-1e-5 4.7468 0.46418 8.1084 1.3926 10.085s2.3135 2.9648 4.1553 2.9648m23.898-29.581c3.2793 3e-5 5.7575 1.4226 7.4346 4.2676s2.5156 6.933 2.5156 12.264c-2e-5 5.2559-0.83856 9.2988-2.5156 12.129s-4.1553 4.2451-7.4346 4.2451c-3.2643 0-5.735-1.4225-7.4121-4.2676s-2.5156-6.8805-2.5156-12.106c0-5.2858 0.83854-9.3587 2.5156-12.219 1.6771-2.875 4.1478-4.3125 7.4121-4.3125m0 29.581c1.8717 0 3.2718-1.0107 4.2002-3.0322 0.94334-2.0364 1.415-5.3756 1.415-10.018-2e-5 -4.6868-0.4717-8.041-1.415-10.062-0.9284-2.0364-2.3285-3.0547-4.2002-3.0547-1.8418 3e-5 -3.2269 0.98831-4.1553 2.9648-0.92839 1.9616-1.3926 5.3457-1.3926 10.152 0 4.7468 0.46419 8.1084 1.3926 10.085s2.3135 2.9648 4.1553 2.9648"/>
 <path d="m218.23 317.24c-0.53907 0.46877-1.3008 0.87306-2.2852 1.2129-0.97267 0.33985-1.8047 0.50977-2.4961 0.50976-2.1562 1e-5 -3.9258-0.67382-5.3086-2.0215-1.3828-1.3594-2.0742-3.123-2.0742-5.291 0-2.3086 0.68555-4.2422 2.0566-5.8008 1.3828-1.5586 3.1699-2.3379 5.3613-2.3379 2.6133 2e-5 4.623 1.1426 6.0293 3.4277s2.1094 5.332 2.1094 9.1406c-2e-5 3.6914-0.85548 6.8145-2.5664 9.3691-1.6992 2.543-4.002 3.8144-6.9082 3.8144-1.9805 0-3.7324-0.32812-5.2559-0.98437l0.58008-2.584c1.6055 0.64454 3.1406 0.9668 4.6055 0.9668 1.875 0 3.3516-0.82617 4.4297-2.4785 1.0898-1.6523 1.664-3.9668 1.7226-6.9434m-0.07031-2.8476c-1e-5 -2.2969-0.39845-4.2598-1.1953-5.8887-0.79689-1.6406-1.8867-2.4609-3.2695-2.4609-1.2774 2e-5 -2.3145 0.49807-3.1113 1.4941-0.78516 0.9844-1.1777 2.25-1.1777 3.7969s0.35742 2.7891 1.0723 3.7266c0.72656 0.92579 1.7402 1.3887 3.041 1.3887 0.7617 1e-5 1.5586-0.18163 2.3906-0.54492 0.84374-0.36327 1.5351-0.80858 2.0742-1.3359l0.17578-0.17578m14.59-10.881c2.5664 2e-5 4.5058 1.1133 5.8184 3.3398s1.9687 5.4258 1.9688 9.5977c-1e-5 4.1133-0.65626 7.2774-1.9688 9.4922s-3.252 3.3223-5.8184 3.3223c-2.5547 0-4.4883-1.1133-5.8008-3.3398s-1.9688-5.3848-1.9688-9.4746c0-4.1367 0.65625-7.3242 1.9688-9.5625 1.3125-2.25 3.2461-3.375 5.8008-3.375m0 23.15c1.4648 0 2.5605-0.79101 3.2871-2.373 0.73827-1.5937 1.1074-4.207 1.1074-7.8398-2e-5 -3.668-0.36916-6.293-1.1074-7.875-0.72657-1.5937-1.8223-2.3906-3.2871-2.3906-1.4414 3e-5 -2.5254 0.77346-3.252 2.3203-0.72657 1.5352-1.0898 4.1836-1.0898 7.9453-1e-5 3.7148 0.36327 6.3457 1.0898 7.8926s1.8105 2.3203 3.252 2.3203"/>
 <path d="m221.72 398.68-9.8613 22.939h-3.0762l9.334-21.498h-11.602v-3.3047h15.205v1.8633m11.021-2.3379c2.5664 2e-5 4.5058 1.1133 5.8184 3.3398s1.9687 5.4258 1.9688 9.5977c-1e-5 4.1133-0.65626 7.2774-1.9688 9.4922s-3.252 3.3223-5.8184 3.3223c-2.5547 0-4.4883-1.1133-5.8008-3.3398s-1.9688-5.3848-1.9688-9.4746c0-4.1367 0.65625-7.3242 1.9688-9.5625 1.3125-2.25 3.2461-3.375 5.8008-3.375m0 23.15c1.4648 0 2.5605-0.79101 3.2871-2.373 0.73827-1.5937 1.1074-4.207 1.1074-7.8398-2e-5 -3.668-0.36916-6.293-1.1074-7.875-0.72657-1.5937-1.8223-2.3906-3.2871-2.3906-1.4414 3e-5 -2.5254 0.77346-3.252 2.3203-0.72657 1.5352-1.0898 4.1836-1.0898 7.9453-1e-5 3.7148 0.36327 6.3457 1.0898 7.8926s1.8105 2.3203 3.252 2.3203"/>
 <path d="m202.19 495.3c1.3027-0.26951 2.4033-0.40428 3.3018-0.40429 3.0696 1e-5 5.473 0.92091 7.21 2.7627 1.7519 1.8418 2.6279 4.1703 2.6279 6.9854-2e-5 2.8301-1.0557 5.2708-3.167 7.3223s-4.582 3.0772-7.4121 3.0772-5.2634-0.47917-7.2998-1.4375l0.92089-3.2568c2.0065 0.88347 4.1702 1.3252 6.4912 1.3252 1.8268 0 3.3167-0.62891 4.4697-1.8867 1.153-1.2728 1.7295-3.0322 1.7295-5.2783-1e-5 -1.9316-0.53159-3.459-1.5947-4.582s-2.4483-1.6846-4.1553-1.6846c-1.3327 2e-5 -2.6055 0.26206-3.8184 0.78614l-2.5381-1.1455v-15.139h15.094v4.1328h-11.859v8.4228m28.391-13.162c3.2793 3e-5 5.7575 1.4226 7.4346 4.2676s2.5156 6.933 2.5156 12.264c-2e-5 5.2559-0.83856 9.2988-2.5156 12.129s-4.1553 4.2451-7.4346 4.2451c-3.2643 0-5.735-1.4225-7.4121-4.2676s-2.5156-6.8805-2.5156-12.106c0-5.2858 0.83854-9.3587 2.5156-12.219 1.6771-2.875 4.1478-4.3125 7.4121-4.3125m0 29.581c1.8717 0 3.2718-1.0107 4.2002-3.0322 0.94335-2.0364 1.415-5.3756 1.415-10.018-1e-5 -4.6868-0.47169-8.041-1.415-10.062-0.9284-2.0364-2.3285-3.0547-4.2002-3.0547-1.8418 2e-5 -3.2269 0.9883-4.1553 2.9648-0.92839 1.9616-1.3926 5.3457-1.3926 10.152-1e-5 4.7468 0.46418 8.1084 1.3926 10.085s2.3135 2.9648 4.1553 2.9648"/>
 <path d="m215.78 592.11c1.5 0.35158 2.707 1.0664 3.6211 2.1445 0.91404 1.0664 1.3711 2.2969 1.3711 3.6914-2e-5 2.2031-0.8672 4.0547-2.6016 5.5547-1.7344 1.4883-3.791 2.2324-6.1699 2.2324-2.0391 0-3.9024-0.44531-5.5898-1.3359l0.72071-2.5312c1.6758 0.79688 3.334 1.1953 4.9746 1.1953 1.582 1e-5 2.8711-0.43945 3.8672-1.3184s1.4941-2.0859 1.4941-3.6211c-1e-5 -1.3359-0.56837-2.4375-1.7051-3.3047s-2.6192-1.3008-4.4473-1.3008h-0.65039v-2.6191h0.10547c1.7226 2e-5 3.1758-0.41014 4.3594-1.2305 1.1953-0.83201 1.793-1.9218 1.793-3.2695-1e-5 -1.125-0.4336-2.0273-1.3008-2.707-0.8672-0.69138-1.9922-1.0371-3.375-1.0371-1.2539 2e-5 -2.7305 0.36916-4.4297 1.1074l-0.50976-2.6191c1.793-0.77341 3.4863-1.1601 5.0801-1.1602 2.2734 2e-5 4.1484 0.60354 5.625 1.8105 1.4883 1.1953 2.2324 2.7188 2.2324 4.5703-2e-5 1.2656-0.44533 2.4492-1.3359 3.5508s-1.9336 1.7871-3.1289 2.0566v0.14062m16.963-12.129c2.5664 2e-5 4.5058 1.1133 5.8184 3.3398s1.9687 5.4258 1.9688 9.5977c-1e-5 4.1133-0.65626 7.2774-1.9688 9.4922s-3.252 3.3223-5.8184 3.3223c-2.5547 0-4.4883-1.1133-5.8008-3.3398s-1.9688-5.3848-1.9688-9.4746c0-4.1367 0.65625-7.3242 1.9688-9.5625 1.3125-2.25 3.2461-3.375 5.8008-3.375m0 23.15c1.4648 0 2.5605-0.79102 3.2871-2.373 0.73827-1.5937 1.1074-4.207 1.1074-7.8398-2e-5 -3.668-0.36916-6.293-1.1074-7.875-0.72657-1.5937-1.8223-2.3906-3.2871-2.3906-1.4414 2e-5 -2.5254 0.77346-3.252 2.3203-0.72657 1.5352-1.0898 4.1836-1.0898 7.9453-1e-5 3.7148 0.36327 6.3457 1.0898 7.8926s1.8105 2.3203 3.252 2.3203"/>
 <path d="m216.06 698.09h-3.2344v-21.779l-4.3945 2.6719v-2.9883l4.5703-2.8125h3.0586v24.908m16.682-25.277c2.5664 2e-5 4.5058 1.1133 5.8184 3.3398s1.9687 5.4258 1.9688 9.5977c-1e-5 4.1133-0.65626 7.2773-1.9688 9.4922s-3.252 3.3223-5.8184 3.3223c-2.5547 0-4.4883-1.1133-5.8008-3.3398s-1.9688-5.3848-1.9688-9.4746c0-4.1367 0.65625-7.3242 1.9688-9.5625 1.3125-2.25 3.2461-3.375 5.8008-3.375m0 23.15c1.4648 0 2.5605-0.79102 3.2871-2.373 0.73827-1.5937 1.1074-4.207 1.1074-7.8398-2e-5 -3.668-0.36916-6.293-1.1074-7.875-0.72657-1.5937-1.8223-2.3906-3.2871-2.3906-1.4414 2e-5 -2.5254 0.77346-3.252 2.3203-0.72657 1.5352-1.0898 4.1836-1.0898 7.9453-1e-5 3.7148 0.36327 6.3457 1.0898 7.8926s1.8105 2.3203 3.252 2.3203"/>
 <path transform="scale(.9393 1.0646)" d="m444.05 611.48h-15.723v-2.6758c3.9323-4.2969 6.4648-7.1419 7.5977-8.5352 1.1458-1.3932 2.0898-2.8516 2.832-4.375 0.75519-1.5364 1.1328-3.0729 1.1328-4.6094-1e-5 -1.4453-0.48178-2.6237-1.4453-3.5352-0.95053-0.92445-2.2136-1.3867-3.7891-1.3867-1.4323 3e-5 -3.2292 0.41018-5.3906 1.2305l-0.56641-2.8711c2.0312-0.88539 4.1927-1.3281 6.4844-1.3281 2.539 3e-5 4.5833 0.70966 6.1328 2.1289 1.5625 1.4063 2.3437 3.2878 2.3438 5.6445-2e-5 1.5495-0.35158 3.0664-1.0547 4.5508-0.70314 1.4714-1.6276 2.9232-2.7734 4.3555-1.1458 1.4193-3.418 4.0365-6.8164 7.8516h11.035v3.5547m13.379-28.086c2.8516 3e-5 5.0065 1.237 6.4648 3.7109s2.1875 6.0287 2.1875 10.664c-2e-5 4.5703-0.72919 8.0859-2.1875 10.547s-3.6133 3.6914-6.4648 3.6914c-2.8386 0-4.987-1.237-6.4453-3.7109s-2.1875-5.9831-2.1875-10.527c0-4.5963 0.72916-8.138 2.1875-10.625 1.4583-2.5 3.6068-3.75 6.4453-3.75m0 25.723c1.6276 0 2.845-0.87891 3.6524-2.6367 0.82029-1.7708 1.2304-4.6745 1.2305-8.7109-2e-5 -4.0755-0.41018-6.9922-1.2305-8.75-0.80731-1.7708-2.0248-2.6562-3.6524-2.6562-1.6016 3e-5 -2.806 0.8594-3.6133 2.5781-0.8073 1.7058-1.2109 4.6484-1.2109 8.8281 0 4.1276 0.40364 7.0508 1.2109 8.7695s2.0117 2.5781 3.6133 2.5781"/>
 <path d="m418.01 552.3h-3.3984v6.3672h-3.5938v-6.3672h-11.973v-2.5586l10.449-18.633h5.1172v18.047h3.3984v3.1445m-6.9922-3.1445v-14.961l-8.5352 14.961h8.5352m18.125-18.574c2.8516 3e-5 5.0065 1.237 6.4648 3.7109s2.1875 6.0287 2.1875 10.664c-2e-5 4.5703-0.72918 8.0859-2.1875 10.547s-3.6133 3.6914-6.4648 3.6914c-2.8386 0-4.987-1.237-6.4453-3.7109s-2.1875-5.9831-2.1875-10.527c-1e-5 -4.5963 0.72916-8.138 2.1875-10.625 1.4583-2.5 3.6068-3.75 6.4453-3.75m0 25.723c1.6276 0 2.845-0.87891 3.6523-2.6367 0.8203-1.7708 1.2304-4.6745 1.2305-8.7109-2e-5 -4.0755-0.41017-6.9922-1.2305-8.75-0.8073-1.7708-2.0248-2.6562-3.6523-2.6562-1.6016 3e-5 -2.806 0.8594-3.6133 2.5781-0.8073 1.7058-1.211 4.6484-1.2109 8.8281-1e-5 4.1276 0.40364 7.0508 1.2109 8.7695s2.0117 2.5781 3.6133 2.5781"/>
 <path d="m403.77 453.61c0.59896-0.53384 1.4128-0.98306 2.4414-1.3477 1.0286-0.37759 1.9206-0.56639 2.6758-0.5664 2.4088 1e-5 4.4075 0.75522 5.9961 2.2656 1.6015 1.5104 2.4023 3.4636 2.4023 5.8594-2e-5 2.6302-0.70966 4.7982-2.1289 6.5039-1.4193 1.6927-3.3203 2.5391-5.7031 2.5391-2.9688 0-5.2865-1.3216-6.9531-3.9648s-2.5-5.9766-2.5-10c0-4.2969 0.86589-7.8125 2.5977-10.547 1.7448-2.7344 4.1862-4.1015 7.3242-4.1016 2.2005 3e-5 4.1471 0.36461 5.8398 1.0938l-0.625 2.8711c-1.7839-0.71612-3.4961-1.0742-5.1367-1.0742-4.0495 2e-5 -6.1263 3.4896-6.2305 10.469m0.07813 3.1641c-1e-5 2.3958 0.49478 4.5443 1.4844 6.4453 1.0026 1.888 2.2917 2.832 3.8672 2.832 1.3672 1e-5 2.4349-0.52734 3.2031-1.582 0.78123-1.0677 1.1719-2.5 1.1719-4.2969-1e-5 -1.6797-0.4297-3.0469-1.2891-4.1016s-2.0182-1.582-3.4766-1.582c-1.7839 2e-5 -3.4375 0.76174-4.9609 2.2852m25.293-16.523c2.8516 3e-5 5.0065 1.237 6.4648 3.7109s2.1875 6.0287 2.1875 10.664c-2e-5 4.5703-0.72918 8.086-2.1875 10.547s-3.6133 3.6914-6.4648 3.6914c-2.8386 0-4.987-1.237-6.4453-3.7109s-2.1875-5.9831-2.1875-10.527c-1e-5 -4.5963 0.72916-8.138 2.1875-10.625 1.4583-2.5 3.6068-3.75 6.4453-3.75m0 25.723c1.6276 0 2.845-0.8789 3.6523-2.6367 0.8203-1.7708 1.2304-4.6745 1.2305-8.7109-2e-5 -4.0755-0.41017-6.9922-1.2305-8.75-0.8073-1.7708-2.0248-2.6562-3.6523-2.6562-1.6016 3e-5 -2.806 0.8594-3.6133 2.5781-0.8073 1.7058-1.211 4.6484-1.2109 8.8281-1e-5 4.1276 0.40364 7.0508 1.2109 8.7695s2.0117 2.5781 3.6133 2.5781"/>
 <path d="m412.09 358.89c1.7187 0.65106 3.0403 1.6146 3.9648 2.8906s1.3867 2.7409 1.3867 4.3945c-2e-5 2.487-0.85288 4.5052-2.5586 6.0547-1.6927 1.5365-3.8216 2.3047-6.3867 2.3047-2.6563 0-4.8307-0.76172-6.5234-2.2852-1.6797-1.5234-2.5195-3.5352-2.5195-6.0352 0-1.6536 0.46875-3.1185 1.4062-4.3945 0.95051-1.289 2.3047-2.2656 4.0625-2.9297-1.3542-0.46873-2.4349-1.2435-3.2422-2.3242-0.79427-1.0807-1.1914-2.2656-1.1914-3.5547 0-1.8489 0.71615-3.4896 2.1484-4.9219 1.4453-1.4453 3.3659-2.1679 5.7617-2.168 2.3828 3e-5 4.3359 0.71618 5.8594 2.1484 1.5364 1.4193 2.3047 3.0664 2.3047 4.9414-2e-5 1.263-0.41017 2.4349-1.2305 3.5156-0.8073 1.0808-1.888 1.8685-3.2422 2.3633m-3.6914-1.4453c0.10416 2e-5 0.39712-0.06509 0.87891-0.19531 0.48176-0.14321 0.91144-0.31899 1.2891-0.52734 0.37759-0.22134 0.72915-0.50129 1.0547-0.83985 0.33852-0.35154 0.61196-0.7617 0.82031-1.2305 0.22134-0.48175 0.33202-1.0156 0.33203-1.6016-1e-5 -1.237-0.4297-2.2526-1.2891-3.0469-0.84637-0.79425-1.875-1.1914-3.0859-1.1914-1.1589 2e-5 -2.155 0.41018-2.9883 1.2305-0.83334 0.80731-1.25 1.8099-1.25 3.0078-1e-5 0.76825 0.15624 1.4388 0.46875 2.0117 0.31249 0.55991 0.6901 1.0156 1.1328 1.3672 0.45572 0.33856 0.95702 0.59246 1.5039 0.76172 0.55988 0.16928 0.93749 0.25392 1.1328 0.2539m0 2.8516c-1.9662 0.55991-3.3398 1.3802-4.1211 2.4609-0.76824 1.0677-1.1524 2.207-1.1524 3.418 0 1.6667 0.53385 2.9948 1.6016 3.9844 1.0807 0.98958 2.3372 1.4844 3.7695 1.4844 1.4713 0 2.7213-0.48828 3.75-1.4648 1.0416-0.98958 1.5625-2.3242 1.5625-4.0039-2e-5 -3.0599-1.8034-5.0195-5.4102-5.8789m20.742-14.375c2.8516 3e-5 5.0065 1.237 6.4648 3.7109s2.1875 6.0287 2.1875 10.664c-2e-5 4.5703-0.72918 8.086-2.1875 10.547s-3.6133 3.6914-6.4648 3.6914c-2.8386 0-4.987-1.237-6.4453-3.7109s-2.1875-5.9831-2.1875-10.527c-1e-5 -4.5963 0.72916-8.138 2.1875-10.625 1.4583-2.5 3.6068-3.75 6.4453-3.75m0 25.723c1.6276 0 2.845-0.8789 3.6523-2.6367 0.8203-1.7708 1.2304-4.6745 1.2305-8.7109-2e-5 -4.0755-0.41017-6.9922-1.2305-8.75-0.8073-1.7708-2.0248-2.6562-3.6523-2.6562-1.6016 3e-5 -2.806 0.8594-3.6133 2.5781-0.8073 1.7058-1.211 4.6485-1.2109 8.8281-1e-5 4.1276 0.40364 7.0508 1.2109 8.7695s2.0117 2.5781 3.6133 2.5781"/>
 <path d="m197.36 235.97h-3.2344v-21.779l-4.3945 2.6719v-2.9883l4.5703-2.8125h3.0586v24.908m18.703 0h-3.2344v-21.779l-4.3945 2.6719v-2.9883l4.5703-2.8125h3.0586v24.908m16.682-25.277c2.5664 2e-5 4.5058 1.1133 5.8184 3.3398s1.9687 5.4258 1.9688 9.5977c-1e-5 4.1133-0.65626 7.2774-1.9688 9.4922s-3.252 3.3223-5.8184 3.3223c-2.5547 0-4.4883-1.1133-5.8008-3.3398s-1.9688-5.3848-1.9688-9.4746c0-4.1367 0.65625-7.3242 1.9688-9.5625 1.3125-2.25 3.2461-3.375 5.8008-3.375m0 23.15c1.4648 0 2.5605-0.79101 3.2871-2.373 0.73827-1.5937 1.1074-4.207 1.1074-7.8398-2e-5 -3.668-0.36916-6.293-1.1074-7.875-0.72657-1.5937-1.8223-2.3906-3.2871-2.3906-1.4414 3e-5 -2.5254 0.77346-3.252 2.3203-0.72657 1.5352-1.0898 4.1836-1.0898 7.9453-1e-5 3.7148 0.36327 6.3457 1.0898 7.8926s1.8105 2.3203 3.252 2.3203"/>
 <path d="m379.99 764.6c3.3524 6e-5 6.2093 1.1807 8.5706 3.5419s3.5419 5.2182 3.5419 8.5706c-3e-5 3.3233-1.1807 6.1656-3.5419 8.5268s-5.2182 3.542-8.5706 3.5419c-3.3233 4e-5 -6.1656-1.1806-8.5268-3.5419s-3.5419-5.2035-3.5419-8.5268c-1e-5 -3.3524 1.1806-6.2092 3.5419-8.5706s5.2035-3.5418 8.5268-3.5419m0 19.546c2.0697 4e-5 3.8188-0.72875 5.2473-2.1864 1.4576-1.4575 2.1864-3.2066 2.1864-5.2473s-0.72881-3.7751-2.1864-5.2036c-1.4284-1.4284-3.1775-2.1426-5.2473-2.1426-2.0406 6e-5 -3.7751 0.71427-5.2036 2.1426-1.3993 1.4285-2.0989 3.163-2.0989 5.2036s0.69963 3.7898 2.0989 5.2473c1.4284 1.4576 3.1629 2.1864 5.2036 2.1864m55.665-11.631h-22.651v21.645h21.689v6.8215h-21.689v26.411h-8.0458v-61.699h30.697v6.8215" fill="#dcae00" stroke="#fff" stroke-width="1.5"/>
 <g transform="translate(.27454)">
  <path d="m243.28 714.35h140.57a12.877 12.877 0 0 1 12.877 12.877 12.877 12.877 0 0 1 -12.877 12.877h-140.57a12.877 12.877 0 0 1 -12.877 -12.877 12.877 12.877 0 0 1 12.877 -12.877" fill="#000051"/>
  <g transform="matrix(.4459 -.22922 .22922 .4459 92.124 492.33)" stroke="#000">
   <path transform="translate(-.31884)" d="m87.223 562.21a18.013 18.013 0 1 1 -36.027 0 18.013 18.013 0 1 1 36.027 0z" fill="#b5dfe0" stroke-linejoin="round" stroke-width="2"/>
   <path d="m50.288 562.21h37.206" fill="none"/>
  </g>
  <g transform="matrix(.39401 .31003 -.31003 .39401 522.57 484.35)" stroke="#000">
   <path transform="translate(-.31884)" d="m87.223 562.21a18.013 18.013 0 1 1 -36.027 0 18.013 18.013 0 1 1 36.027 0z" fill="#b5dfe0" stroke-linejoin="round" stroke-width="2"/>
   <path d="m50.288 562.21h37.206" fill="none"/>
  </g>
 </g>
 <path d="m243.55 170.46h140.57a12.877 12.877 0 0 1 12.877 12.877 12.877 12.877 0 0 1 -12.877 12.877h-140.57a12.877 12.877 0 0 1 -12.877 -12.877 12.877 12.877 0 0 1 12.877 -12.877" fill="#000051"/>
 <g transform="matrix(.44046 .2395 -.2395 .44046 356.02 -80.789)" stroke="#000">
  <path transform="translate(-.31884)" d="m87.223 562.21a18.013 18.013 0 1 1 -36.027 0 18.013 18.013 0 1 1 36.027 0z" fill="#b5dfe0" stroke-linejoin="round" stroke-width="2"/>
  <path d="m50.288 562.21h37.206" fill="none"/>
 </g>
 <g transform="matrix(.49697 -.066216 .066216 .49697 303.95 -91.499)" stroke="#000">
  <path transform="translate(-.31884)" d="m87.223 562.21a18.013 18.013 0 1 1 -36.027 0 18.013 18.013 0 1 1 36.027 0z" fill="#b5dfe0" stroke-linejoin="round" stroke-width="2"/>
  <path d="m50.288 562.21h37.206" fill="none"/>
 </g>
</svg>
