<?xml version="1.0" encoding="UTF-8"?>
<svg viewBox="0 0 2528.7883 1363.0623" xmlns="http://www.w3.org/2000/svg">
 <defs>
  <filter id="b">
   <feGaussianBlur stdDeviation="6.13688"/>
  </filter>
  <filter id="f" x="-.01595" y="-.15444" width="1.0319" height="1.3089">
   <feGaussianBlur stdDeviation="10.93453"/>
  </filter>
  <filter id="e" x="-.04397" y="-.24297" width="1.0879" height="1.4859">
   <feGaussianBlur stdDeviation="10.93453"/>
  </filter>
  <filter id="d" x="-.01931" y="-.17632" width="1.0386" height="1.3526">
   <feGaussianBlur stdDeviation="10.93453"/>
  </filter>
  <filter id="c" x="-.56616" y="-.56615" width="2.1323" height="2.1323">
   <feGaussianBlur stdDeviation="144.25947"/>
  </filter>
  <radialGradient id="a" cx="75.546" cy="185.79" r="245.94" gradientTransform="matrix(2.1505 -.02563 .02558 2.1466 1566.9 994.58)" gradientUnits="userSpaceOnUse">
   <stop stop-color="#ffd422" offset="0"/>
   <stop stop-color="#ffe990" offset=".5062"/>
   <stop stop-color="#fff" offset=".53304"/>
   <stop stop-color="#ffe990" offset=".56932"/>
   <stop stop-color="#ffd422" offset="1"/>
  </radialGradient>
 </defs>
 <g transform="translate(-510.1 1015.9)">
  <path transform="translate(1593 -467.78)" d="m-1082.9-548.12h2528.8v1363.1h-2528.8z"/>
  <g transform="matrix(.89125 -.45352 .45352 .89125 1978.2 -467.78)">
   <g transform="matrix(1.028 0 0 1.028 -457.46 -253.4)" fill="#ff0" filter="url(#c)">
    <path d="m108.85 165.74c-4.0096-104.84 101.41-145.72 2.1628-179.43-95.785-34.879-147.68-56.888-217.12 17.828-72.161 73.756-93.459 191.17-52.305 285.71 39.449 96.212 139.83 163.16 243.94 161.69 104.1 1.4769 74.926-19.147 114.34-115.37 15.602-36.714-88.967-130.61-91.018-170.42z"/>
    <path d="m44.686-119.23c-168.84 0-305.72 136.88-305.72 305.72s136.88 305.69 305.72 305.69c164.22 0 298.16-129.47 305.38-291.91-0.2286 4.4594-0.5845 8.8828-1.0312 13.281-0.4519 4.4499-1.018 8.868-1.6875 13.25s-1.4309 8.7228-2.3125 13.031-1.8806 8.583-2.9688 12.812-2.2733 8.4176-3.5625 12.562-2.6715 8.2264-4.1562 12.281-3.0754 8.0721-4.75 12.031-3.4223 7.8608-5.2813 11.719-3.8059 7.6863-5.8437 11.438-4.1639 7.4236-6.375 11.062-4.5275 7.2289-6.9063 10.75-4.834 6.9773-7.375 10.375-5.1773 6.7312-7.875 10-5.4637 6.4907-8.3125 9.625-5.7557 6.1932-8.75 9.1875-6.0844 5.9325-9.2187 8.7812-6.325 5.6149-9.5938 8.3125-6.6023 5.3028-10 7.8438-6.8539 4.9962-10.375 7.375-7.111 4.6952-10.75 6.9062-7.3425 4.3372-11.094 6.375-7.5483 3.9848-11.406 5.8437-7.7596 3.6379-11.719 5.3125-7.9765 3.2341-12.031 4.7188-8.1363 2.867-12.281 4.1562-8.333 2.5056-12.562 3.5938-8.504 2.0558-12.812 2.9375-8.6805 1.6742-13.062 2.3437-8.8001 1.2356-13.25 1.6875-8.9252 0.7713-13.438 1-9.0559 0.3438-13.625 0.3438-9.1127-0.1151-13.625-0.3438-8.9876-0.5481-13.438-1-8.868-1.0179-13.25-1.6875-8.7228-1.4621-13.031-2.3437-8.583-1.8493-12.812-2.9375-8.4175-2.3046-12.562-3.5938-8.2577-2.6716-12.312-4.1562-8.0408-3.0442-12-4.7188-7.892-3.4535-11.75-5.3125-7.655-3.806-11.406-5.8437-7.4548-4.164-11.094-6.375-7.1977-4.5275-10.719-6.9062-6.9773-4.834-10.375-7.375-6.7625-5.1461-10.031-7.8438-6.4594-5.4638-9.5938-8.3125-6.1932-5.787-9.1875-8.7812-5.9325-6.0532-8.7812-9.1875-5.6149-6.3562-8.3125-9.625-5.3028-6.6023-7.8438-10-5.0275-6.8539-7.4062-10.375-4.6639-7.1111-6.875-10.75-4.3372-7.3113-6.375-11.062-3.9848-7.5796-5.8438-11.438-3.6379-7.7596-5.3125-11.719-3.2341-7.9764-4.7188-12.031-2.8983-8.1363-4.1875-12.281-2.4743-8.333-3.5625-12.562-2.0558-8.504-2.9375-12.812-1.6742-8.6493-2.3438-13.031-1.2356-8.8001-1.6875-13.25-0.77127-8.9252-1-13.438-0.34375-9.0559-0.34375-13.625 0.11502-9.1127 0.34375-13.625 0.54809-9.0188 1-13.469 1.018-8.868 1.6875-13.25 1.4621-8.7228 2.3438-13.031 1.8493-8.583 2.9375-12.812 2.2733-8.4176 3.5625-12.562 2.7028-8.2264 4.1875-12.281 3.0442-8.0721 4.7188-12.031 3.4536-7.8608 5.3125-11.719 3.806-7.6863 5.8438-11.438 4.1639-7.4236 6.375-11.062 4.4962-7.2289 6.875-10.75 4.8653-6.9773 7.4062-10.375 5.1461-6.7312 7.8438-10 5.4638-6.4907 8.3125-9.625 5.787-6.1932 8.7812-9.1875 6.0532-5.9013 9.1875-8.75 6.325-5.6461 9.5938-8.3438 6.6336-5.3028 10.031-7.8438 6.8539-4.9962 10.375-7.375 7.0798-4.6952 10.719-6.9062 7.3426-4.3372 11.094-6.375 7.5483-3.9848 11.406-5.8438 7.7909-3.6067 11.75-5.2812 7.9452-3.2653 12-4.75 8.1676-2.867 12.312-4.1562 8.3331-2.4743 12.562-3.5625 8.504-2.0871 12.812-2.9688 8.6493-1.6742 13.031-2.3438 8.8001-1.2043 13.25-1.6562 8.9252-0.80252 13.438-1.0312 9.0559-0.34375 13.625-0.34375 9.1127 0.11502 13.625 0.34375 8.9876 0.57934 13.438 1.0312 8.868 0.9867 13.25 1.6562 8.754 1.4621 13.062 2.3438 8.583 1.8806 12.812 2.9688 8.4176 2.2733 12.562 3.5625 8.2264 2.6716 12.281 4.1562 8.0721 3.0754 12.031 4.75 7.8608 3.4223 11.719 5.2812 7.6551 3.806 11.406 5.8438 7.4548 4.1639 11.094 6.375 7.229 4.5275 10.75 6.9062 6.9773 4.834 10.375 7.375 6.7313 5.1461 10 7.8438 6.4595 5.495 9.5938 8.3438 6.2245 5.7557 9.2187 8.75 5.9013 6.0532 8.75 9.1875 5.6149 6.3562 8.3125 9.625 5.3341 6.6023 7.875 10 4.9963 6.8539 7.375 10.375 4.6952 7.1111 6.9063 10.75 4.3372 7.3113 6.375 11.062 3.9848 7.5796 5.8437 11.438 3.6067 7.7596 5.2813 11.719 3.2653 7.9764 4.75 12.031 2.867 8.1363 4.1562 12.281 2.4743 8.333 3.5625 12.562 2.0871 8.504 2.9688 12.812 1.6429 8.6493 2.3125 13.031 1.2356 8.8001 1.6875 13.25c0.4467 4.3986 0.8026 8.8529 1.0312 13.312-7.2041-162.45-141.15-291.94-305.38-291.94z" opacity=".75298"/>
   </g>
   <path d="m-116.11-57.704c-0.22867-4.4596-0.58455-8.9139-1.0312-13.312-0.45191-4.4499-1.018-8.868-1.6875-13.25s-1.4308-8.7228-2.3125-13.031-1.8806-8.583-2.9688-12.812-2.2733-8.4176-3.5625-12.562-2.6716-8.2264-4.1562-12.281-3.0754-8.0721-4.75-12.031-3.4223-7.8608-5.2812-11.719-3.806-7.6863-5.8438-11.438-4.1639-7.4236-6.375-11.062-4.5275-7.2289-6.9062-10.75-4.834-6.9773-7.375-10.375-5.1774-6.7312-7.875-10-5.4638-6.4907-8.3125-9.625-5.7557-6.1932-8.75-9.1875-6.0844-5.9013-9.2188-8.75-6.325-5.6461-9.5938-8.3438-6.6023-5.3028-10-7.8438-6.8539-4.9962-10.375-7.375-7.1111-4.6952-10.75-6.9062-7.3426-4.3372-11.094-6.375-7.5483-3.9848-11.406-5.8438-7.7596-3.6067-11.719-5.2812-7.9764-3.2653-12.031-4.75-8.1363-2.867-12.281-4.1562-8.333-2.4743-12.562-3.5625-8.504-2.0871-12.812-2.9688-8.6805-1.6742-13.062-2.3438-8.8001-1.2043-13.25-1.6562-8.9252-0.80252-13.438-1.0312-9.0559-0.34375-13.625-0.34375-9.1127 0.11502-13.625 0.34375-8.9876 0.57934-13.438 1.0312-8.868 0.9867-13.25 1.6562-8.7228 1.4621-13.031 2.3438-8.583 1.8806-12.812 2.9688-8.4176 2.2733-12.562 3.5625-8.2577 2.6716-12.312 4.1562-8.0408 3.0754-12 4.75-7.892 3.4223-11.75 5.2812-7.655 3.806-11.406 5.8438-7.4548 4.1639-11.094 6.375-7.1977 4.5275-10.719 6.9062-6.9773 4.834-10.375 7.375-6.7625 5.1461-10.031 7.8438-6.4594 5.495-9.5938 8.3438-6.1932 5.7557-9.1875 8.75-5.9325 6.0532-8.7812 9.1875-5.6149 6.3562-8.3125 9.625-5.3028 6.6023-7.8438 10-5.0275 6.8539-7.4062 10.375-4.6639 7.1111-6.875 10.75-4.3372 7.3113-6.375 11.062-3.9848 7.5796-5.8438 11.438-3.6379 7.7596-5.3125 11.719-3.2341 7.9764-4.7188 12.031-2.8983 8.1363-4.1875 12.281-2.4743 8.333-3.5625 12.562-2.0558 8.504-2.9375 12.812-1.6742 8.6493-2.3438 13.031-1.2356 8.8001-1.6875 13.25-0.77127 8.9564-1 13.469-0.34375 9.0559-0.34375 13.625 0.11502 9.1127 0.34375 13.625 0.54809 8.9876 1 13.438 1.018 8.868 1.6875 13.25 1.4621 8.7228 2.3438 13.031 1.8493 8.583 2.9375 12.812 2.2733 8.4176 3.5625 12.562 2.7028 8.2264 4.1875 12.281 3.0442 8.0721 4.7188 12.031 3.4536 7.8608 5.3125 11.719 3.806 7.6863 5.8438 11.438 4.1639 7.4236 6.375 11.062 4.4962 7.2289 6.875 10.75 4.8653 6.9773 7.4062 10.375 5.1461 6.7312 7.8438 10 5.4638 6.4907 8.3125 9.625 5.787 6.1932 8.7812 9.1875 6.0532 5.9325 9.1875 8.7812 6.325 5.6149 9.5938 8.3125 6.6336 5.3028 10.031 7.8438 6.8539 4.9962 10.375 7.375 7.0798 4.6952 10.719 6.9062 7.3426 4.3372 11.094 6.375 7.5483 3.9848 11.406 5.8438 7.7908 3.6379 11.75 5.3125 7.9452 3.2341 12 4.7188 8.1676 2.867 12.312 4.1562 8.333 2.5056 12.562 3.5938 8.504 2.0558 12.812 2.9375 8.6493 1.6742 13.031 2.3438 8.8001 1.2356 13.25 1.6875 8.9252 0.77127 13.438 1 9.0559 0.34375 13.625 0.34375 9.1127-0.11502 13.625-0.34375 8.9876-0.54809 13.438-1 8.868-1.018 13.25-1.6875 8.754-1.4621 13.062-2.3438 8.583-1.8493 12.812-2.9375 8.4176-2.3046 12.562-3.5938 8.2264-2.6716 12.281-4.1562 8.0721-3.0442 12.031-4.7188 7.8608-3.4536 11.719-5.3125 7.655-3.806 11.406-5.8438 7.4548-4.1639 11.094-6.375 7.2289-4.5275 10.75-6.9062 6.9773-4.834 10.375-7.375 6.7312-5.1461 10-7.8438 6.4594-5.4638 9.5938-8.3125 6.2245-5.787 9.2188-8.7812 5.9013-6.0532 8.75-9.1875 5.6149-6.3562 8.3125-9.625 5.334-6.6023 7.875-10 4.9962-6.8539 7.375-10.375 4.6952-7.1111 6.9062-10.75 4.3372-7.3113 6.375-11.062 3.9848-7.5796 5.8438-11.438 3.6067-7.7596 5.2812-11.719 3.2653-7.9764 4.75-12.031 2.867-8.1363 4.1562-12.281 2.4743-8.333 3.5625-12.562 2.0871-8.504 2.9688-12.812 1.643-8.6493 2.3125-13.031 1.2356-8.8001 1.6875-13.25c0.44669-4.3985 0.80258-8.8218 1.0312-13.281 0.20332-4.5757 0.34375-9.1554 0.34375-13.781 0-4.6166-0.14123-9.2145-0.34375-13.781z" fill="#333"/>
   <path d="m-421.36-349.96c-168.84 0-305.72 136.88-305.72 305.72s136.88 305.69 305.72 305.69c164.22 0 298.16-129.47 305.38-291.91-0.2286 4.4594-0.5845 8.8828-1.0312 13.281-0.4519 4.4499-1.018 8.868-1.6875 13.25s-1.4309 8.7228-2.3125 13.031-1.8806 8.583-2.9688 12.812-2.2733 8.4176-3.5625 12.562-2.6715 8.2264-4.1562 12.281-3.0754 8.0721-4.75 12.031-3.4223 7.8608-5.2813 11.719-3.8059 7.6863-5.8437 11.438-4.1639 7.4236-6.375 11.062-4.5275 7.2289-6.9063 10.75-4.834 6.9773-7.375 10.375-5.1773 6.7312-7.875 10-5.4637 6.4907-8.3125 9.625-5.7557 6.1932-8.75 9.1875-6.0844 5.9325-9.2187 8.7812-6.325 5.6149-9.5938 8.3125-6.6023 5.3028-10 7.8438-6.8539 4.9962-10.375 7.375-7.111 4.6952-10.75 6.9062-7.3425 4.3372-11.094 6.375-7.5483 3.9848-11.406 5.8437-7.7596 3.6379-11.719 5.3125-7.9765 3.2341-12.031 4.7188-8.1363 2.867-12.281 4.1562-8.333 2.5056-12.562 3.5938-8.504 2.0558-12.812 2.9375-8.6805 1.6742-13.062 2.3437-8.8001 1.2356-13.25 1.6875-8.9252 0.7713-13.438 1-9.0559 0.3438-13.625 0.3438-9.1127-0.1151-13.625-0.3438-8.9876-0.5481-13.438-1-8.868-1.0179-13.25-1.6875-8.7228-1.4621-13.031-2.3437-8.583-1.8493-12.812-2.9375-8.4175-2.3046-12.562-3.5938-8.2577-2.6716-12.312-4.1562-8.0408-3.0442-12-4.7188-7.892-3.4535-11.75-5.3125-7.655-3.806-11.406-5.8437-7.4548-4.164-11.094-6.375-7.1977-4.5275-10.719-6.9062-6.9773-4.834-10.375-7.375-6.7625-5.1461-10.031-7.8438-6.4594-5.4638-9.5938-8.3125-6.1932-5.787-9.1875-8.7812-5.9325-6.0532-8.7812-9.1875-5.6149-6.3562-8.3125-9.625-5.3028-6.6023-7.8438-10-5.0275-6.8539-7.4062-10.375-4.6639-7.1111-6.875-10.75-4.3372-7.3113-6.375-11.062-3.9848-7.5796-5.8438-11.438-3.6379-7.7596-5.3125-11.719-3.2341-7.9764-4.7188-12.031-2.8983-8.1363-4.1875-12.281-2.4743-8.333-3.5625-12.562-2.0558-8.504-2.9375-12.812-1.6742-8.6493-2.3438-13.031-1.2356-8.8001-1.6875-13.25-0.77127-8.9252-1-13.438-0.34375-9.0559-0.34375-13.625 0.11502-9.1127 0.34375-13.625 0.54809-9.0188 1-13.469 1.018-8.868 1.6875-13.25 1.4621-8.7228 2.3438-13.031 1.8493-8.583 2.9375-12.812 2.2733-8.4176 3.5625-12.562 2.7028-8.2264 4.1875-12.281 3.0442-8.0721 4.7188-12.031 3.4536-7.8608 5.3125-11.719 3.806-7.6863 5.8438-11.438 4.1639-7.4236 6.375-11.062 4.4962-7.2289 6.875-10.75 4.8653-6.9773 7.4062-10.375 5.1461-6.7312 7.8438-10 5.4638-6.4907 8.3125-9.625 5.787-6.1932 8.7812-9.1875 6.0532-5.9013 9.1875-8.75 6.325-5.6461 9.5938-8.3438 6.6336-5.3028 10.031-7.8438 6.8539-4.9962 10.375-7.375 7.0798-4.6952 10.719-6.9062 7.3426-4.3372 11.094-6.375 7.5483-3.9848 11.406-5.8438 7.7909-3.6067 11.75-5.2812 7.9452-3.2653 12-4.75 8.1676-2.867 12.312-4.1562 8.3331-2.4743 12.562-3.5625 8.504-2.0871 12.812-2.9688 8.6493-1.6742 13.031-2.3438 8.8001-1.2043 13.25-1.6562 8.9252-0.80252 13.438-1.0312 9.0559-0.34375 13.625-0.34375 9.1127 0.11502 13.625 0.34375 8.9876 0.57934 13.438 1.0312 8.868 0.9867 13.25 1.6562 8.754 1.4621 13.062 2.3438 8.583 1.8806 12.812 2.9688 8.4176 2.2733 12.562 3.5625 8.2264 2.6716 12.281 4.1562 8.0721 3.0754 12.031 4.75 7.8608 3.4223 11.719 5.2812 7.6551 3.806 11.406 5.8438 7.4548 4.1639 11.094 6.375 7.229 4.5275 10.75 6.9062 6.9773 4.834 10.375 7.375 6.7313 5.1461 10 7.8438 6.4595 5.495 9.5938 8.3438 6.2245 5.7557 9.2187 8.75 5.9013 6.0532 8.75 9.1875 5.6149 6.3562 8.3125 9.625 5.3341 6.6023 7.875 10 4.9963 6.8539 7.375 10.375 4.6952 7.1111 6.9063 10.75 4.3372 7.3113 6.375 11.062 3.9848 7.5796 5.8437 11.438 3.6067 7.7596 5.2813 11.719 3.2653 7.9764 4.75 12.031 2.867 8.1363 4.1562 12.281 2.4743 8.333 3.5625 12.562 2.0871 8.504 2.9688 12.812 1.6429 8.6493 2.3125 13.031 1.2356 8.8001 1.6875 13.25c0.4467 4.3986 0.8026 8.8529 1.0312 13.312-7.2041-162.45-141.15-291.94-305.38-291.94z" fill="#ffd422" opacity=".75298"/>
   <path d="m-116.11-57.704c-0.22867-4.4596-0.58455-8.9139-1.0312-13.312-0.45191-4.4499-1.018-8.868-1.6875-13.25s-1.4308-8.7228-2.3125-13.031-1.8806-8.583-2.9688-12.812-2.2733-8.4176-3.5625-12.562-2.6716-8.2264-4.1562-12.281-3.0754-8.0721-4.75-12.031-3.4223-7.8608-5.2812-11.719-3.806-7.6863-5.8438-11.438-4.1639-7.4236-6.375-11.062-4.5275-7.2289-6.9062-10.75-4.834-6.9773-7.375-10.375-5.1774-6.7312-7.875-10-5.4638-6.4907-8.3125-9.625-5.7557-6.1932-8.75-9.1875-6.0844-5.9013-9.2188-8.75-6.325-5.6461-9.5938-8.3438-6.6023-5.3028-10-7.8438-6.8539-4.9962-10.375-7.375-7.1111-4.6952-10.75-6.9062-7.3426-4.3372-11.094-6.375-7.5483-3.9848-11.406-5.8438-7.7596-3.6067-11.719-5.2812-7.9764-3.2653-12.031-4.75-8.1363-2.867-12.281-4.1562-8.333-2.4743-12.562-3.5625-8.504-2.0871-12.812-2.9688-8.6805-1.6742-13.062-2.3438-8.8001-1.2043-13.25-1.6562-8.9252-0.80252-13.438-1.0312-9.0559-0.34375-13.625-0.34375-9.1127 0.11502-13.625 0.34375-8.9876 0.57934-13.438 1.0312-8.868 0.9867-13.25 1.6562-8.7228 1.4621-13.031 2.3438-8.583 1.8806-12.812 2.9688-8.4176 2.2733-12.562 3.5625-8.2577 2.6716-12.312 4.1562-8.0408 3.0754-12 4.75-7.892 3.4223-11.75 5.2812-7.655 3.806-11.406 5.8438-7.4548 4.1639-11.094 6.375-7.1977 4.5275-10.719 6.9062-6.9773 4.834-10.375 7.375-6.7625 5.1461-10.031 7.8438-6.4594 5.495-9.5938 8.3438-6.1932 5.7557-9.1875 8.75-5.9325 6.0532-8.7812 9.1875-5.6149 6.3562-8.3125 9.625-5.3028 6.6023-7.8438 10-5.0275 6.8539-7.4062 10.375-4.6639 7.1111-6.875 10.75-4.3372 7.3113-6.375 11.062-3.9848 7.5796-5.8438 11.438-3.6379 7.7596-5.3125 11.719-3.2341 7.9764-4.7188 12.031-2.8983 8.1363-4.1875 12.281-2.4743 8.333-3.5625 12.562-2.0558 8.504-2.9375 12.812-1.6742 8.6493-2.3438 13.031-1.2356 8.8001-1.6875 13.25-0.77127 8.9564-1 13.469-0.34375 9.0559-0.34375 13.625 0.11502 9.1127 0.34375 13.625 0.54809 8.9876 1 13.438 1.018 8.868 1.6875 13.25 1.4621 8.7228 2.3438 13.031 1.8493 8.583 2.9375 12.812 2.2733 8.4176 3.5625 12.562 2.7028 8.2264 4.1875 12.281 3.0442 8.0721 4.7188 12.031 3.4536 7.8608 5.3125 11.719 3.806 7.6863 5.8438 11.438 4.1639 7.4236 6.375 11.062 4.4962 7.2289 6.875 10.75 4.8653 6.9773 7.4062 10.375 5.1461 6.7312 7.8438 10 5.4638 6.4907 8.3125 9.625 5.787 6.1932 8.7812 9.1875 6.0532 5.9325 9.1875 8.7812 6.325 5.6149 9.5938 8.3125 6.6336 5.3028 10.031 7.8438 6.8539 4.9962 10.375 7.375 7.0798 4.6952 10.719 6.9062 7.3426 4.3372 11.094 6.375 7.5483 3.9848 11.406 5.8438 7.7908 3.6379 11.75 5.3125 7.9452 3.2341 12 4.7188 8.1676 2.867 12.312 4.1562 8.333 2.5056 12.562 3.5938 8.504 2.0558 12.812 2.9375 8.6493 1.6742 13.031 2.3438 8.8001 1.2356 13.25 1.6875 8.9252 0.77127 13.438 1 9.0559 0.34375 13.625 0.34375 9.1127-0.11502 13.625-0.34375 8.9876-0.54809 13.438-1 8.868-1.018 13.25-1.6875 8.754-1.4621 13.062-2.3438 8.583-1.8493 12.812-2.9375 8.4176-2.3046 12.562-3.5938 8.2264-2.6716 12.281-4.1562 8.0721-3.0442 12.031-4.7188 7.8608-3.4536 11.719-5.3125 7.655-3.806 11.406-5.8438 7.4548-4.1639 11.094-6.375 7.2289-4.5275 10.75-6.9062 6.9773-4.834 10.375-7.375 6.7312-5.1461 10-7.8438 6.4594-5.4638 9.5938-8.3125 6.2245-5.787 9.2188-8.7812 5.9013-6.0532 8.75-9.1875 5.6149-6.3562 8.3125-9.625 5.334-6.6023 7.875-10 4.9962-6.8539 7.375-10.375 4.6952-7.1111 6.9062-10.75 4.3372-7.3113 6.375-11.062 3.9848-7.5796 5.8438-11.438 3.6067-7.7596 5.2812-11.719 3.2653-7.9764 4.75-12.031 2.867-8.1363 4.1562-12.281 2.4743-8.333 3.5625-12.562 2.0871-8.504 2.9688-12.812 1.643-8.6493 2.3125-13.031 1.2356-8.8001 1.6875-13.25c0.44669-4.3985 0.80258-8.8218 1.0312-13.281 0.20332-4.5757 0.34375-9.1554 0.34375-13.781 0-4.6166-0.14123-9.2145-0.34375-13.781z" fill="#1a1a1a"/>
  </g>
  <g transform="matrix(.89125 -.45352 .45352 .89125 -573.98 -786.87)">
   <path d="m1700.1 1099.1c-102.83 0.5943-202.66 59.67-253.28 148.94-44.977 77.741-52.563 176.73-18.189 259.92 33.039 82.319 104.17 148.5 189.52 173.71 79.625 24.18 170 13.881 240.79-30.192 14.17-8.5919 27.536-18.244 40.094-29.031-59.164 40.476-134.82 56.413-205.34 42.094-74.34-14.418-141.9-60.765-180.78-125.88-40.706-66.532-51.418-151.09-26.781-225.47 25.157-78.111 86.756-143.91 164.19-171.97 73.768-27.648 159.93-21.969 228.44 17.361 6.9128 3.8967 13.77 8.0735 20.313 12.577-54.683-47.318-126.6-73.787-198.97-72.062z" fill="url(#a)" filter="url(#b)" opacity=".53927"/>
  </g>
  <path d="m2166-142.5c325.77 49.131-27.153 15.712-53.024 52.98-44.08 1.6068-101.84-6.7039-152.3-16.176-51.596-4.7713-112.11 22.003-156.45 56.905-68.25-31.712-98.741 15.989-162.69-13.829-47.834 11.434-77.099-19.821-126.25-25.327-43.718 8.9766-74.525-27.032-113.47 0.73481-52.344 13.241-99.336 27.956-145.28 58.086-36.765-0.10503-67.255 13.878-103.71 2.2833-56.714 2.3371-101.99-40.519-161.39-23.525-57.006 1.1234-102.81-38.086-141.26-75.491-54.281 1.2048-101.48-9.3803-156.41 10.468-18.078-1.0595-60.821-44.026-14.831-26.895 49.84 6.7393 90.296-21.24 136.98-9.0857 34.219-37.421 110.54-31.307 137.84 7.5253 51.396 47.402 115.69 31.272 175.94 25.11 52.946-5.3879 73.055-69.398 127.64-65.1 43.896-14.005 91.527 44.948 122.55-7.9858 38.22-4.6424 65.564 39.403 106.4 18.249 35.569 7.5765 45.261 51.465 84.815 40.922 21.768 59.085 77.928 8.3693 119.86 11.542 49.329-9.7223 76.742 41.555 129.19 8.0168 23.459-35.561 71.352-18.174 94.588-50.999 42.9-30.09 89.641-8.4865 134.94 2.4621 18.446 37.313 82.842 34.5 116.32 19.129" fill="#e6e6e6" filter="url(#f)" opacity=".25"/>
  <path d="m1656.5-381.71c35.552-9.7146 49.87 41.553 84.921 60.339 35.686 24.462 41.67-33.605 73.753-2.5782 15.326 24.084 87.634 34.346 121.97 28.066 33.671 25.155 48.504-54.285 90.154-68.755 37.806 7.1733 82.054 54.822 124.32 63.87 40.078-2.7672 74.215-12.121 103.47-37.22 39.087-3.8249 48.843-14.556 87.487-25.416 43.83-5.2592 108.98 40.057 151.12 46.433 40.093 4.0118 60.242-46.39 101.31-35.441 41.417-3.9768 80.47 12.04 120.13-9.79 39.898 4.8136 80.095 3.4267 116.51-16.251 24.336-47.309 75.672 18.764 115.76-2.2966 16.17-0.0318 59.566-19.608 68.099-5.7429-46.932-11.83-152.21-43.138-198.02-40.115-48.714 11.895-74.458 12.627-123.46 19.405-41.95 7.7978-48.047-1.8921-90.39 2.1123-40.802-21.841-87.35 33.302-128.6 21.859-47.997-7.1819-92.458-41.62-138.41-56.546-49.624-1.7505-99.222 40.497-149.33 41.133-38.273 24.535-91.705-22.406-133.22-36.48-45.934-6.2167-88.691 13.641-127.73 41.116-42.879-5.2856-75.565 51.485-119.2 21.335-46.546-24.02-100.88-2.0583-150.66-9.0353" fill="#e6e6e6" filter="url(#d)" opacity=".25"/>
  <path d="m1802.7-527.82c11.908 14.992-48.223-1.7577-74.487-1.5149s-52.686-0.77921-78.788 0.21102c-18.841 9.2661-40.741 9.4539-61.243 9.2525-18.688-2.3618-34.827 10.645-53.415 12.679-18.063 10.613-32.258 24.287-54.829 18.381-16.893 3.5821-34.605 6.1434-49.304 15.886-20.779-5.1055-41.798-11.965-63.641-12.413-24.548-6.7995-47.36-23.495-73.437-22.618-19.203 7.0711-38.299-5.7311-57.794-3.3713-11.122-5.6058-43.941-18.465-15.041-19.556 25.732-4.9416 54.606 0.84577 76.809-16.303 17.832-1.9009 31.032-8.5088 41.56-23.858 18.679-10.668 44.652-12.663 65.196-6.1988 21.27 14.26 45.591 6.796 69.222 5.8343 22.909-2.6682 44.769 8.7097 67.876 9.2001 21.37-8.6142 47.486-15.723 68.662-0.18792 17.153 13.032 37.843 13.216 58.155 15.856 22.87 6.3894 55.066 4.1592 78.437 6.2234 21.994-0.6144 44.154-2.4964 56.062 12.496z" fill="#e6e6e6" filter="url(#e)" opacity=".25"/>
 </g>
</svg>
