<?xml version="1.0" encoding="UTF-8"?>
<svg viewBox="0 0 217.16 132.71" xmlns="http://www.w3.org/2000/svg">
 <defs>
  <linearGradient id="c" x1=".48148" x2=".5" y1=".15144" y2=".82825">
   <stop stop-color="#96beff" offset="0"/>
   <stop stop-color="#09719f" offset="1"/>
  </linearGradient>
  <linearGradient id="d" x1=".40874" x2=".5" y1="-.20437" y2=".90321">
   <stop stop-color="#fff" offset="0"/>
   <stop stop-color="#fff" offset="1"/>
  </linearGradient>
 </defs>
 <g fill-rule="evenodd">
  <g transform="matrix(.46448 0 0 .46448 29.799 182.98)">
   <path d="m94.438-393.95c-32.479 0-61.353 15.489-79.625 39.5-3.9898-0.74567-8.1075-1.125-12.312-1.125-36.802 0-66.656 29.854-66.656 66.656s29.854 66.688 66.656 66.688c6.7515 0 13.263-1.0061 19.406-2.875 18.225 19.182 44.004 31.156 72.531 31.156 15.962 0 31.046-3.7462 44.438-10.406 13.391 6.6601 28.475 10.406 44.438 10.406 32.873 0 62.049-15.896 80.281-40.406 29.895-0.25262 54.062-24.609 54.062-54.562 0-27.609-20.53-50.427-47.156-54.031-17.151-30.44-49.781-51-87.188-51-15.965 0-31.045 3.7442-44.438 10.406-13.393-6.662-28.473-10.406-44.438-10.406z" fill="url(#c)"/>
   <path d="m92.417-386.06c-28.489 0-54.197 13.851-70.125 34.781-2.7691 3.6441-7.1882 5.3701-11.688 4.5312-3.2638-0.61002-6.6458-0.9375-10.125-0.9375-29.078 0-54.719 25.64-54.719 54.719 0 3.8289 0.28827 5.1345 0.1875 3.5312 0.87183 13.728 10.88 25.148 24.375 27.812 32.071 6.3439 75.548 3.4797 127.22-9.3437 41.696-10.348 86.57-26.173 131.12-44 9.9847-4.0037 17.099-13 18.693-23.639 1.5942-10.639-2.5705-21.325-10.943-28.08-14.971-12.054-34.361-19.375-55.125-19.375-13.951 0-27.418 3.3329-39.125 9.1562-3.3716 1.6771-7.2534 1.6771-10.625 0-11.707-5.8234-25.174-9.1562-39.125-9.1562z" fill="url(#d)"/>
  </g>
  <g transform="matrix(.46448 0 0 .46448 69.612 222.8)">
   <path d="m94.438-393.95c-32.479 0-61.353 15.489-79.625 39.5-3.9898-0.74567-8.1075-1.125-12.312-1.125-36.802 0-66.656 29.854-66.656 66.656s29.854 66.688 66.656 66.688c6.7515 0 13.263-1.0061 19.406-2.875 18.225 19.182 44.004 31.156 72.531 31.156 15.962 0 31.046-3.7462 44.438-10.406 13.391 6.6601 28.475 10.406 44.438 10.406 32.873 0 62.049-15.896 80.281-40.406 29.895-0.25262 54.062-24.609 54.062-54.562 0-27.609-20.53-50.427-47.156-54.031-17.151-30.44-49.781-51-87.188-51-15.965 0-31.045 3.7442-44.438 10.406-13.393-6.662-28.473-10.406-44.438-10.406z" fill="url(#c)"/>
   <path d="m92.417-386.06c-28.489 0-54.197 13.851-70.125 34.781-2.7691 3.6441-7.1882 5.3701-11.688 4.5312-3.2638-0.61002-6.6458-0.9375-10.125-0.9375-29.078 0-54.719 25.64-54.719 54.719 0 3.8289 0.28827 5.1345 0.1875 3.5312 0.87183 13.728 10.88 25.148 24.375 27.812 32.071 6.3439 75.548 3.4797 127.22-9.3437 41.696-10.348 86.57-26.173 131.12-44 9.9847-4.0037 17.099-13 18.693-23.639 1.5942-10.639-2.5705-21.325-10.943-28.08-14.971-12.054-34.361-19.375-55.125-19.375-13.951 0-27.418 3.3329-39.125 9.1562-3.3716 1.6771-7.2534 1.6771-10.625 0-11.707-5.8234-25.174-9.1562-39.125-9.1562z" fill="url(#d)"/>
  </g>
 </g>
</svg>
