<?xml version="1.0" encoding="UTF-8"?>
<svg viewBox="0 0 744.09448819 1052.3622047" xmlns="http://www.w3.org/2000/svg">
 <g fill="#b3b3b3" fill-rule="evenodd" stroke="#b3b3b3" stroke-width="6.7">
  <g transform="matrix(1.073 0 0 1.073 -989.17 -70.685)">
   <path d="m1272.7 479.8 1.1343-131.58"/>
   <path d="m1264.3 441.24h18.286"/>
   <path d="m1286.3 428.76h-24.955"/>
   <path d="m1290.8 403.8h-34.029"/>
   <path d="m1292 365.24-18.218 23.82-16.946-20.417"/>
   <path d="m1260.2 353.89 12.947 12.878 12.741-13.142"/>
  </g>
  <g transform="matrix(.53653 .92929 -.92929 .53653 136.7 -999.67)">
   <path d="m1272.7 479.8 1.1343-131.58"/>
   <path d="m1264.3 441.24h18.286"/>
   <path d="m1286.3 428.76h-24.955"/>
   <path d="m1290.8 403.8h-34.029"/>
   <path d="m1292 365.24-18.218 23.82-16.946-20.417"/>
   <path d="m1260.2 353.89 12.947 12.878 12.741-13.142"/>
  </g>
  <g transform="matrix(-1.073 0 0 -1.073 1742.5 952.55)">
   <path d="m1272.7 479.8 1.1343-131.58"/>
   <path d="m1264.3 441.24h18.286"/>
   <path d="m1286.3 428.76h-24.955"/>
   <path d="m1290.8 403.8h-34.029"/>
   <path d="m1292 365.24-18.218 23.82-16.946-20.417"/>
   <path d="m1260.2 353.89 12.947 12.878 12.741-13.142"/>
  </g>
  <g transform="matrix(.53653 -.92929 .92929 .53653 -749.91 1366.3)">
   <path d="m1272.7 479.8 1.1343-131.58"/>
   <path d="m1264.3 441.24h18.286"/>
   <path d="m1286.3 428.76h-24.955"/>
   <path d="m1290.8 403.8h-34.029"/>
   <path d="m1292 365.24-18.218 23.82-16.946-20.417"/>
   <path d="m1260.2 353.89 12.947 12.878 12.741-13.142"/>
  </g>
  <g transform="matrix(2.3572e-7 -.61924 .78631 -5.0899e-8 .19316 1229.2)">
   <path d="m1272.7 479.8 1.1343-131.58"/>
   <path d="m1264.3 441.24h18.286"/>
   <path d="m1286.3 428.76h-24.955"/>
   <path d="m1290.8 403.8h-34.029"/>
   <path d="m1292 365.24-18.218 23.82-16.946-20.417"/>
   <path d="m1260.2 353.89 12.947 12.878 12.741-13.142"/>
  </g>
  <g transform="matrix(-.53653 .92929 -.92929 -.53653 1504.2 -488.28)">
   <path d="m1272.7 479.8 1.1343-131.58"/>
   <path d="m1264.3 441.24h18.286"/>
   <path d="m1286.3 428.76h-24.955"/>
   <path d="m1290.8 403.8h-34.029"/>
   <path d="m1292 365.24-18.218 23.82-16.946-20.417"/>
   <path d="m1260.2 353.89 12.947 12.878 12.741-13.142"/>
  </g>
  <g transform="matrix(-.53653 -.92929 .92929 -.53653 618.44 1880.3)">
   <path d="m1272.7 479.8 1.1343-131.58"/>
   <path d="m1264.3 441.24h18.286"/>
   <path d="m1286.3 428.76h-24.955"/>
   <path d="m1290.8 403.8h-34.029"/>
   <path d="m1292 365.24-18.218 23.82-16.946-20.417"/>
   <path d="m1260.2 353.89 12.947 12.878 12.741-13.142"/>
  </g>
  <g transform="matrix(.55757 -.26939 .34207 .70801 -498.66 445.92)">
   <path d="m1272.7 479.8 1.1343-131.58"/>
   <path d="m1264.3 441.24h18.286"/>
   <path d="m1286.3 428.76h-24.955"/>
   <path d="m1290.8 403.8h-34.029"/>
   <path d="m1292 365.24-18.218 23.82-16.946-20.417"/>
   <path d="m1260.2 353.89 12.947 12.878 12.741-13.142"/>
  </g>
  <g transform="matrix(.51316 .34659 -.4401 .65162 -69.304 -312.2)">
   <path d="m1272.7 479.8 1.1343-131.58"/>
   <path d="m1264.3 441.24h18.286"/>
   <path d="m1286.3 428.76h-24.955"/>
   <path d="m1290.8 403.8h-34.029"/>
   <path d="m1292 365.24-18.218 23.82-16.946-20.417"/>
   <path d="m1260.2 353.89 12.947 12.878 12.741-13.142"/>
  </g>
  <g transform="matrix(.00039 .61924 -.78631 .00049 749.17 -349.36)">
   <path d="m1272.7 479.8 1.1343-131.58"/>
   <path d="m1264.3 441.24h18.286"/>
   <path d="m1286.3 428.76h-24.955"/>
   <path d="m1290.8 403.8h-34.029"/>
   <path d="m1292 365.24-18.218 23.82-16.946-20.417"/>
   <path d="m1260.2 353.89 12.947 12.878 12.741-13.142"/>
  </g>
  <g transform="matrix(-.54996 -.28461 .3614 -.69834 903.56 1135.5)">
   <path d="m1272.7 479.8 1.1343-131.58"/>
   <path d="m1264.3 441.24h18.286"/>
   <path d="m1286.3 428.76h-24.955"/>
   <path d="m1290.8 403.8h-34.029"/>
   <path d="m1292 365.24-18.218 23.82-16.946-20.417"/>
   <path d="m1260.2 353.89 12.947 12.878 12.741-13.142"/>
  </g>
  <g transform="matrix(-.52381 .33028 -.41939 -.66513 1242.3 336.11)">
   <path d="m1272.7 479.8 1.1343-131.58"/>
   <path d="m1264.3 441.24h18.286"/>
   <path d="m1286.3 428.76h-24.955"/>
   <path d="m1290.8 403.8h-34.029"/>
   <path d="m1292 365.24-18.218 23.82-16.946-20.417"/>
   <path d="m1260.2 353.89 12.947 12.878 12.741-13.142"/>
  </g>
  <g transform="matrix(1.073 0 0 1.073 -989.17 -70.685)">
   <path d="m1272.7 479.8 1.1343-131.58"/>
   <path d="m1264.3 441.24h18.286"/>
   <path d="m1286.3 428.76h-24.955"/>
   <path d="m1290.8 403.8h-34.029"/>
   <path d="m1292 365.24-18.218 23.82-16.946-20.417"/>
   <path d="m1260.2 353.89 12.947 12.878 12.741-13.142"/>
  </g>
  <g transform="matrix(.53653 .92929 -.92929 .53653 136.7 -999.67)">
   <path d="m1272.7 479.8 1.1343-131.58"/>
   <path d="m1264.3 441.24h18.286"/>
   <path d="m1286.3 428.76h-24.955"/>
   <path d="m1290.8 403.8h-34.029"/>
   <path d="m1292 365.24-18.218 23.82-16.946-20.417"/>
   <path d="m1260.2 353.89 12.947 12.878 12.741-13.142"/>
  </g>
  <g transform="matrix(-1.073 0 0 -1.073 1742.5 952.55)">
   <path d="m1272.7 479.8 1.1343-131.58"/>
   <path d="m1264.3 441.24h18.286"/>
   <path d="m1286.3 428.76h-24.955"/>
   <path d="m1290.8 403.8h-34.029"/>
   <path d="m1292 365.24-18.218 23.82-16.946-20.417"/>
   <path d="m1260.2 353.89 12.947 12.878 12.741-13.142"/>
  </g>
  <g transform="matrix(.53653 -.92929 .92929 .53653 -749.91 1366.3)">
   <path d="m1272.7 479.8 1.1343-131.58"/>
   <path d="m1264.3 441.24h18.286"/>
   <path d="m1286.3 428.76h-24.955"/>
   <path d="m1290.8 403.8h-34.029"/>
   <path d="m1292 365.24-18.218 23.82-16.946-20.417"/>
   <path d="m1260.2 353.89 12.947 12.878 12.741-13.142"/>
  </g>
  <g transform="matrix(2.3572e-7 -.61924 .78631 -5.0899e-8 .19316 1229.2)">
   <path d="m1272.7 479.8 1.1343-131.58"/>
   <path d="m1264.3 441.24h18.286"/>
   <path d="m1286.3 428.76h-24.955"/>
   <path d="m1290.8 403.8h-34.029"/>
   <path d="m1292 365.24-18.218 23.82-16.946-20.417"/>
   <path d="m1260.2 353.89 12.947 12.878 12.741-13.142"/>
  </g>
  <g transform="matrix(-.53653 .92929 -.92929 -.53653 1504.2 -488.28)">
   <path d="m1272.7 479.8 1.1343-131.58"/>
   <path d="m1264.3 441.24h18.286"/>
   <path d="m1286.3 428.76h-24.955"/>
   <path d="m1290.8 403.8h-34.029"/>
   <path d="m1292 365.24-18.218 23.82-16.946-20.417"/>
   <path d="m1260.2 353.89 12.947 12.878 12.741-13.142"/>
  </g>
  <g transform="matrix(-.53653 -.92929 .92929 -.53653 618.44 1880.3)">
   <path d="m1272.7 479.8 1.1343-131.58"/>
   <path d="m1264.3 441.24h18.286"/>
   <path d="m1286.3 428.76h-24.955"/>
   <path d="m1290.8 403.8h-34.029"/>
   <path d="m1292 365.24-18.218 23.82-16.946-20.417"/>
   <path d="m1260.2 353.89 12.947 12.878 12.741-13.142"/>
  </g>
  <g transform="matrix(.55757 -.26939 .34207 .70801 -498.66 445.92)">
   <path d="m1272.7 479.8 1.1343-131.58"/>
   <path d="m1264.3 441.24h18.286"/>
   <path d="m1286.3 428.76h-24.955"/>
   <path d="m1290.8 403.8h-34.029"/>
   <path d="m1292 365.24-18.218 23.82-16.946-20.417"/>
   <path d="m1260.2 353.89 12.947 12.878 12.741-13.142"/>
  </g>
  <g transform="matrix(.51316 .34659 -.4401 .65162 -69.304 -312.2)">
   <path d="m1272.7 479.8 1.1343-131.58"/>
   <path d="m1264.3 441.24h18.286"/>
   <path d="m1286.3 428.76h-24.955"/>
   <path d="m1290.8 403.8h-34.029"/>
   <path d="m1292 365.24-18.218 23.82-16.946-20.417"/>
   <path d="m1260.2 353.89 12.947 12.878 12.741-13.142"/>
  </g>
  <g transform="matrix(.00039 .61924 -.78631 .00049 749.17 -349.36)">
   <path d="m1272.7 479.8 1.1343-131.58"/>
   <path d="m1264.3 441.24h18.286"/>
   <path d="m1286.3 428.76h-24.955"/>
   <path d="m1290.8 403.8h-34.029"/>
   <path d="m1292 365.24-18.218 23.82-16.946-20.417"/>
   <path d="m1260.2 353.89 12.947 12.878 12.741-13.142"/>
  </g>
  <g transform="matrix(-.54996 -.28461 .3614 -.69834 903.56 1135.5)">
   <path d="m1272.7 479.8 1.1343-131.58"/>
   <path d="m1264.3 441.24h18.286"/>
   <path d="m1286.3 428.76h-24.955"/>
   <path d="m1290.8 403.8h-34.029"/>
   <path d="m1292 365.24-18.218 23.82-16.946-20.417"/>
   <path d="m1260.2 353.89 12.947 12.878 12.741-13.142"/>
  </g>
  <g transform="matrix(-.52381 .33028 -.41939 -.66513 1242.3 336.11)">
   <path d="m1272.7 479.8 1.1343-131.58"/>
   <path d="m1264.3 441.24h18.286"/>
   <path d="m1286.3 428.76h-24.955"/>
   <path d="m1290.8 403.8h-34.029"/>
   <path d="m1292 365.24-18.218 23.82-16.946-20.417"/>
   <path d="m1260.2 353.89 12.947 12.878 12.741-13.142"/>
  </g>
 </g>
 <g fill="none" stroke="#d7e3f4" stroke-width="6.7">
  <g transform="matrix(1.073 0 0 1.073 -995.16 -76.399)">
   <path d="m1272.7 479.8 1.1343-131.58"/>
   <path d="m1264.3 441.24h18.286"/>
   <path d="m1286.3 428.76h-24.955"/>
   <path d="m1290.8 403.8h-34.029"/>
   <path d="m1292 365.24-18.218 23.82-16.946-20.417"/>
   <path d="m1260.2 353.89 12.947 12.878 12.741-13.142"/>
  </g>
  <g transform="matrix(.53653 .92929 -.92929 .53653 130.71 -1005.4)">
   <path d="m1272.7 479.8 1.1343-131.58"/>
   <path d="m1264.3 441.24h18.286"/>
   <path d="m1286.3 428.76h-24.955"/>
   <path d="m1290.8 403.8h-34.029"/>
   <path d="m1292 365.24-18.218 23.82-16.946-20.417"/>
   <path d="m1260.2 353.89 12.947 12.878 12.741-13.142"/>
  </g>
  <g transform="matrix(-1.073 0 0 -1.073 1736.5 946.84)">
   <path d="m1272.7 479.8 1.1343-131.58"/>
   <path d="m1264.3 441.24h18.286"/>
   <path d="m1286.3 428.76h-24.955"/>
   <path d="m1290.8 403.8h-34.029"/>
   <path d="m1292 365.24-18.218 23.82-16.946-20.417"/>
   <path d="m1260.2 353.89 12.947 12.878 12.741-13.142"/>
  </g>
  <g transform="matrix(.53653 -.92929 .92929 .53653 -755.9 1360.6)">
   <path d="m1272.7 479.8 1.1343-131.58"/>
   <path d="m1264.3 441.24h18.286"/>
   <path d="m1286.3 428.76h-24.955"/>
   <path d="m1290.8 403.8h-34.029"/>
   <path d="m1292 365.24-18.218 23.82-16.946-20.417"/>
   <path d="m1260.2 353.89 12.947 12.878 12.741-13.142"/>
  </g>
  <g transform="matrix(2.3572e-7 -.61924 .78631 -5.0899e-8 -5.801 1223.5)">
   <path d="m1272.7 479.8 1.1343-131.58"/>
   <path d="m1264.3 441.24h18.286"/>
   <path d="m1286.3 428.76h-24.955"/>
   <path d="m1290.8 403.8h-34.029"/>
   <path d="m1292 365.24-18.218 23.82-16.946-20.417"/>
   <path d="m1260.2 353.89 12.947 12.878 12.741-13.142"/>
  </g>
  <g transform="matrix(-.53653 .92929 -.92929 -.53653 1498.2 -494)">
   <path d="m1272.7 479.8 1.1343-131.58"/>
   <path d="m1264.3 441.24h18.286"/>
   <path d="m1286.3 428.76h-24.955"/>
   <path d="m1290.8 403.8h-34.029"/>
   <path d="m1292 365.24-18.218 23.82-16.946-20.417"/>
   <path d="m1260.2 353.89 12.947 12.878 12.741-13.142"/>
  </g>
  <g transform="matrix(-.53653 -.92929 .92929 -.53653 612.45 1874.6)">
   <path d="m1272.7 479.8 1.1343-131.58"/>
   <path d="m1264.3 441.24h18.286"/>
   <path d="m1286.3 428.76h-24.955"/>
   <path d="m1290.8 403.8h-34.029"/>
   <path d="m1292 365.24-18.218 23.82-16.946-20.417"/>
   <path d="m1260.2 353.89 12.947 12.878 12.741-13.142"/>
  </g>
  <g transform="matrix(.55757 -.26939 .34207 .70801 -504.65 440.21)">
   <path d="m1272.7 479.8 1.1343-131.58"/>
   <path d="m1264.3 441.24h18.286"/>
   <path d="m1286.3 428.76h-24.955"/>
   <path d="m1290.8 403.8h-34.029"/>
   <path d="m1292 365.24-18.218 23.82-16.946-20.417"/>
   <path d="m1260.2 353.89 12.947 12.878 12.741-13.142"/>
  </g>
  <g transform="matrix(.51316 .34659 -.4401 .65162 -75.298 -317.91)">
   <path d="m1272.7 479.8 1.1343-131.58"/>
   <path d="m1264.3 441.24h18.286"/>
   <path d="m1286.3 428.76h-24.955"/>
   <path d="m1290.8 403.8h-34.029"/>
   <path d="m1292 365.24-18.218 23.82-16.946-20.417"/>
   <path d="m1260.2 353.89 12.947 12.878 12.741-13.142"/>
  </g>
  <g transform="matrix(.00039 .61924 -.78631 .00049 743.18 -355.07)">
   <path d="m1272.7 479.8 1.1343-131.58"/>
   <path d="m1264.3 441.24h18.286"/>
   <path d="m1286.3 428.76h-24.955"/>
   <path d="m1290.8 403.8h-34.029"/>
   <path d="m1292 365.24-18.218 23.82-16.946-20.417"/>
   <path d="m1260.2 353.89 12.947 12.878 12.741-13.142"/>
  </g>
  <g transform="matrix(-.54996 -.28461 .3614 -.69834 897.57 1129.8)">
   <path d="m1272.7 479.8 1.1343-131.58"/>
   <path d="m1264.3 441.24h18.286"/>
   <path d="m1286.3 428.76h-24.955"/>
   <path d="m1290.8 403.8h-34.029"/>
   <path d="m1292 365.24-18.218 23.82-16.946-20.417"/>
   <path d="m1260.2 353.89 12.947 12.878 12.741-13.142"/>
  </g>
  <g transform="matrix(-.52381 .33028 -.41939 -.66513 1236.3 330.4)">
   <path d="m1272.7 479.8 1.1343-131.58"/>
   <path d="m1264.3 441.24h18.286"/>
   <path d="m1286.3 428.76h-24.955"/>
   <path d="m1290.8 403.8h-34.029"/>
   <path d="m1292 365.24-18.218 23.82-16.946-20.417"/>
   <path d="m1260.2 353.89 12.947 12.878 12.741-13.142"/>
  </g>
  <g transform="matrix(1.073 0 0 1.073 -995.16 -76.399)">
   <path d="m1272.7 479.8 1.1343-131.58"/>
   <path d="m1264.3 441.24h18.286"/>
   <path d="m1286.3 428.76h-24.955"/>
   <path d="m1290.8 403.8h-34.029"/>
   <path d="m1292 365.24-18.218 23.82-16.946-20.417"/>
   <path d="m1260.2 353.89 12.947 12.878 12.741-13.142"/>
  </g>
  <g transform="matrix(.53653 .92929 -.92929 .53653 130.71 -1005.4)">
   <path d="m1272.7 479.8 1.1343-131.58"/>
   <path d="m1264.3 441.24h18.286"/>
   <path d="m1286.3 428.76h-24.955"/>
   <path d="m1290.8 403.8h-34.029"/>
   <path d="m1292 365.24-18.218 23.82-16.946-20.417"/>
   <path d="m1260.2 353.89 12.947 12.878 12.741-13.142"/>
  </g>
  <g transform="matrix(-1.073 0 0 -1.073 1736.5 946.84)">
   <path d="m1272.7 479.8 1.1343-131.58"/>
   <path d="m1264.3 441.24h18.286"/>
   <path d="m1286.3 428.76h-24.955"/>
   <path d="m1290.8 403.8h-34.029"/>
   <path d="m1292 365.24-18.218 23.82-16.946-20.417"/>
   <path d="m1260.2 353.89 12.947 12.878 12.741-13.142"/>
  </g>
  <g transform="matrix(.53653 -.92929 .92929 .53653 -755.9 1360.6)">
   <path d="m1272.7 479.8 1.1343-131.58"/>
   <path d="m1264.3 441.24h18.286"/>
   <path d="m1286.3 428.76h-24.955"/>
   <path d="m1290.8 403.8h-34.029"/>
   <path d="m1292 365.24-18.218 23.82-16.946-20.417"/>
   <path d="m1260.2 353.89 12.947 12.878 12.741-13.142"/>
  </g>
  <g transform="matrix(2.3572e-7 -.61924 .78631 -5.0899e-8 -5.801 1223.5)">
   <path d="m1272.7 479.8 1.1343-131.58"/>
   <path d="m1264.3 441.24h18.286"/>
   <path d="m1286.3 428.76h-24.955"/>
   <path d="m1290.8 403.8h-34.029"/>
   <path d="m1292 365.24-18.218 23.82-16.946-20.417"/>
   <path d="m1260.2 353.89 12.947 12.878 12.741-13.142"/>
  </g>
  <g transform="matrix(-.53653 .92929 -.92929 -.53653 1498.2 -494)">
   <path d="m1272.7 479.8 1.1343-131.58"/>
   <path d="m1264.3 441.24h18.286"/>
   <path d="m1286.3 428.76h-24.955"/>
   <path d="m1290.8 403.8h-34.029"/>
   <path d="m1292 365.24-18.218 23.82-16.946-20.417"/>
   <path d="m1260.2 353.89 12.947 12.878 12.741-13.142"/>
  </g>
  <g transform="matrix(-.53653 -.92929 .92929 -.53653 612.45 1874.6)">
   <path d="m1272.7 479.8 1.1343-131.58"/>
   <path d="m1264.3 441.24h18.286"/>
   <path d="m1286.3 428.76h-24.955"/>
   <path d="m1290.8 403.8h-34.029"/>
   <path d="m1292 365.24-18.218 23.82-16.946-20.417"/>
   <path d="m1260.2 353.89 12.947 12.878 12.741-13.142"/>
  </g>
  <g transform="matrix(.55757 -.26939 .34207 .70801 -504.65 440.21)">
   <path d="m1272.7 479.8 1.1343-131.58"/>
   <path d="m1264.3 441.24h18.286"/>
   <path d="m1286.3 428.76h-24.955"/>
   <path d="m1290.8 403.8h-34.029"/>
   <path d="m1292 365.24-18.218 23.82-16.946-20.417"/>
   <path d="m1260.2 353.89 12.947 12.878 12.741-13.142"/>
  </g>
  <g transform="matrix(.51316 .34659 -.4401 .65162 -75.298 -317.91)">
   <path d="m1272.7 479.8 1.1343-131.58"/>
   <path d="m1264.3 441.24h18.286"/>
   <path d="m1286.3 428.76h-24.955"/>
   <path d="m1290.8 403.8h-34.029"/>
   <path d="m1292 365.24-18.218 23.82-16.946-20.417"/>
   <path d="m1260.2 353.89 12.947 12.878 12.741-13.142"/>
  </g>
  <g transform="matrix(.00039 .61924 -.78631 .00049 743.18 -355.07)">
   <path d="m1272.7 479.8 1.1343-131.58"/>
   <path d="m1264.3 441.24h18.286"/>
   <path d="m1286.3 428.76h-24.955"/>
   <path d="m1290.8 403.8h-34.029"/>
   <path d="m1292 365.24-18.218 23.82-16.946-20.417"/>
   <path d="m1260.2 353.89 12.947 12.878 12.741-13.142"/>
  </g>
  <g transform="matrix(-.54996 -.28461 .3614 -.69834 897.57 1129.8)">
   <path d="m1272.7 479.8 1.1343-131.58"/>
   <path d="m1264.3 441.24h18.286"/>
   <path d="m1286.3 428.76h-24.955"/>
   <path d="m1290.8 403.8h-34.029"/>
   <path d="m1292 365.24-18.218 23.82-16.946-20.417"/>
   <path d="m1260.2 353.89 12.947 12.878 12.741-13.142"/>
  </g>
  <g transform="matrix(-.52381 .33028 -.41939 -.66513 1236.3 330.4)">
   <path d="m1272.7 479.8 1.1343-131.58"/>
   <path d="m1264.3 441.24h18.286"/>
   <path d="m1286.3 428.76h-24.955"/>
   <path d="m1290.8 403.8h-34.029"/>
   <path d="m1292 365.24-18.218 23.82-16.946-20.417"/>
   <path d="m1260.2 353.89 12.947 12.878 12.741-13.142"/>
  </g>
 </g>
</svg>
